<svg width="20" height="20" viewBox="0 0 20 20" fill="none" xmlns="http://www.w3.org/2000/svg">
<mask id="mask0_5729_3342" style="mask-type:alpha" maskUnits="userSpaceOnUse" x="0" y="0" width="20" height="20">
<rect width="20" height="20" fill="#D9D9D9"/>
</mask>
<g mask="url(#mask0_5729_3342)">
<path d="M11.3333 17.3125L5.88543 11.6458V10.0521H8.75001C9.50001 10.0521 10.1493 9.82639 10.6979 9.375C11.2465 8.92361 11.5764 8.32639 11.6875 7.58333H5.05209V6.02083H11.5104C11.3021 5.5 10.9462 5.07465 10.4427 4.74479C9.93925 4.41493 9.37501 4.25 8.75001 4.25H5.05209V2.6875H14.9479V4.25H12.25C12.4653 4.50694 12.6528 4.78472 12.8125 5.08333C12.9722 5.38194 13.0938 5.69444 13.1771 6.02083H14.9479V7.58333H13.2604C13.1493 8.76389 12.6684 9.7309 11.8177 10.4844C10.967 11.2378 9.94445 11.6146 8.75001 11.6146H8.02084L13.5 17.3125H11.3333Z" fill="white"/>
</g>
</svg>
