<svg width="20" height="20" viewBox="0 0 20 20" fill="none" xmlns="http://www.w3.org/2000/svg">
<mask id="mask0_5729_3337" style="mask-type:alpha" maskUnits="userSpaceOnUse" x="0" y="0" width="20" height="20">
<rect width="20" height="20" fill="#D9D9D9"/>
</mask>
<g mask="url(#mask0_5729_3337)">
<path d="M4.99999 19.166V12.3118L2.29166 7.91602L6.14582 1.66602H13.8542L17.7083 7.91602L15 12.3118V19.166L9.99999 17.4993L4.99999 19.166ZM6.66666 16.8535L9.99999 15.7493L13.3333 16.8535V14.166H6.66666V16.8535ZM7.08332 3.33268L4.24999 7.91602L7.08332 12.4993H12.9167L15.75 7.91602L12.9167 3.33268H7.08332ZM9.12499 11.3118L6.16666 8.37435L7.35416 7.18685L9.12499 8.95768L12.6458 5.41602L13.8333 6.58268L9.12499 11.3118Z" fill="white"/>
</g>
</svg>
