<svg width="14" height="14" viewBox="0 0 14 14" fill="none" xmlns="http://www.w3.org/2000/svg">
<mask id="mask0_5729_3294" style="mask-type:alpha" maskUnits="userSpaceOnUse" x="0" y="0" width="14" height="14">
<rect width="14" height="14" fill="#D9D9D9"/>
</mask>
<g mask="url(#mask0_5729_3294)">
<path d="M3.50001 12.834C3.17918 12.834 2.90452 12.7197 2.67605 12.4913C2.44758 12.2628 2.33334 11.9882 2.33334 11.6673V5.83398C2.33334 5.51315 2.44758 5.2385 2.67605 5.01003C2.90452 4.78155 3.17918 4.66732 3.50001 4.66732H4.08334V3.50065C4.08334 2.69371 4.36772 2.00586 4.93647 1.43711C5.50522 0.868359 6.19307 0.583984 7.00001 0.583984C7.80695 0.583984 8.4948 0.868359 9.06355 1.43711C9.6323 2.00586 9.91668 2.69371 9.91668 3.50065V4.66732H10.5C10.8208 4.66732 11.0955 4.78155 11.324 5.01003C11.5524 5.2385 11.6667 5.51315 11.6667 5.83398V11.6673C11.6667 11.9882 11.5524 12.2628 11.324 12.4913C11.0955 12.7197 10.8208 12.834 10.5 12.834H3.50001ZM3.50001 11.6673H10.5V5.83398H3.50001V11.6673ZM7.00001 9.91732C7.32084 9.91732 7.5955 9.80308 7.82397 9.57461C8.05244 9.34614 8.16668 9.07148 8.16668 8.75065C8.16668 8.42982 8.05244 8.15517 7.82397 7.92669C7.5955 7.69822 7.32084 7.58398 7.00001 7.58398C6.67918 7.58398 6.40452 7.69822 6.17605 7.92669C5.94758 8.15517 5.83334 8.42982 5.83334 8.75065C5.83334 9.07148 5.94758 9.34614 6.17605 9.57461C6.40452 9.80308 6.67918 9.91732 7.00001 9.91732ZM5.25001 4.66732H8.75001V3.50065C8.75001 3.01454 8.57987 2.60135 8.23959 2.26107C7.89932 1.92079 7.48612 1.75065 7.00001 1.75065C6.5139 1.75065 6.1007 1.92079 5.76043 2.26107C5.42015 2.60135 5.25001 3.01454 5.25001 3.50065V4.66732Z" fill="white"/>
</g>
</svg>
