<svg width="20" height="33" viewBox="0 0 20 33" fill="none" xmlns="http://www.w3.org/2000/svg">
<path d="M1.36328 12.9525V0.5H18.6966V12.9525C18.6966 13.5006 18.5654 13.9719 18.3128 14.3811C18.0567 14.7961 17.696 15.1362 17.2169 15.4003L10.7116 18.8636L10.337 19.0631L10.473 19.4652L11.7563 23.2602L11.8712 23.6H12.2299H17.4849L13.2441 26.3086L12.9103 26.5218L13.0415 26.8955L14.7374 31.7289L10.3117 28.7095L10.0299 28.5172L9.74816 28.7095L5.3225 31.7289L7.01842 26.8955L7.14955 26.5218L6.81576 26.3086L2.57499 23.6H7.82995H8.18868L8.3036 23.2602L9.58693 19.4652L9.7229 19.0631L9.34825 18.8636L2.84306 15.4003C2.36393 15.1362 2.00325 14.7961 1.74708 14.3811C1.49448 13.9719 1.36328 13.5006 1.36328 12.9525ZM4.52995 2.8H4.02995V3.3V12.9525V13.2507L4.29237 13.3925L7.95904 15.3725L8.69662 15.7707V14.9325V3.3V2.8H8.19662H4.52995ZM16.0299 3.3V2.8H15.5299H11.8633H11.3633V3.3V14.9325V15.7707L12.1009 15.3725L15.7675 13.3925L16.0299 13.2507V12.9525V3.3Z" stroke="white"/>
</svg>
