<svg width="798" height="50" viewBox="0 0 798 50" fill="none" xmlns="http://www.w3.org/2000/svg">
<g opacity="0.4">
<g opacity="0.3">
<path d="M18.1703 19.5572L14.3597 18.4041C14.3597 18.4041 13.3602 21.5105 10.0181 20.5585C8.28068 20.0654 7.73798 18.6924 7.64818 17.7404C7.53886 16.6367 8.0269 15.5595 8.88194 14.8237C9.86192 13.9855 11.5798 13.4735 14.0044 14.691L16.6827 6.34672L12.9151 5.20508L11.3456 10.094C11.3456 10.094 5.63356 9.82096 3.81806 15.4761C2.08065 20.8885 6.67211 23.661 8.81166 24.3096C10.4476 24.8065 16.1439 26.1112 18.1664 19.5572H18.1703Z" fill="#D9FFF6"/>
<path d="M13.426 3.46779L17.25 4.62695L18.3641 1.15836L14.5402 -0.000804108L13.426 3.46779Z" fill="#D9FFF6"/>
<path d="M34.3389 9.45868L35.8655 9.06801C35.8655 9.06801 35.5258 7.82396 36.8533 7.45985C37.5405 7.27021 38.0207 7.61915 38.2549 7.91878C38.5321 8.26773 38.5985 8.72666 38.4736 9.14766C38.3291 9.62935 37.8645 10.149 36.7869 10.2362L37.6927 13.5777L39.1998 13.1908L38.6688 11.2337C38.6688 11.2337 40.6405 10.1604 40.0236 7.89603C39.434 5.73032 37.2984 5.7379 36.4394 5.95789C35.7835 6.12477 33.5932 6.853 34.335 9.45868H34.3389Z" fill="#D9FFF6"/>
<path d="M39.4077 13.8786L37.875 14.2715L38.2525 15.6614L39.7852 15.2686L39.4077 13.8786Z" fill="#D9FFF6"/>
<path d="M105.339 11.4118L106.866 11.0211C106.866 11.0211 106.526 9.77709 107.853 9.41298C108.54 9.22334 109.021 9.57228 109.255 9.87191C109.532 10.2209 109.599 10.6798 109.474 11.1008C109.329 11.5825 108.865 12.1021 107.787 12.1893L108.693 15.5308L110.2 15.144L109.669 13.1868C109.669 13.1868 111.64 12.1135 111.024 9.84915C110.434 7.68344 108.298 7.69103 107.439 7.91101C106.784 8.0779 104.593 8.80612 105.335 11.4118H105.339Z" fill="#D9FFF6"/>
<path d="M110.408 15.8318L108.875 16.2246L109.252 17.6145L110.785 17.2217L110.408 15.8318Z" fill="#D9FFF6"/>
<path d="M0.592565 35.6276L3.73162 34.4518C3.73162 34.4518 2.7165 31.8916 5.4378 30.8182C6.85116 30.2607 7.94826 30.8903 8.5222 31.4744C9.18983 32.1495 9.44751 33.1053 9.27963 34.027C9.08442 35.0776 8.22547 36.2913 5.96488 36.7199L8.69398 43.5963L11.7979 42.4357L10.201 38.4077C10.201 38.4077 14.121 35.6844 12.2742 31.023C10.5056 26.5627 5.97659 27.0671 4.21575 27.7271C2.86877 28.2315 -1.59775 30.2683 0.596469 35.6238L0.592565 35.6276Z" fill="#D9FFF6"/>
<path d="M12.4014 43.842L9.25 45.0215L10.3841 47.8812L13.5356 46.7017L12.4014 43.842Z" fill="#D9FFF6"/>
<path d="M63.7762 35.6901L66.9152 34.5143C66.9152 34.5143 65.9001 31.9541 68.6214 30.8807C70.0347 30.3232 71.1319 30.9528 71.7058 31.5369C72.3734 32.212 72.6311 33.1678 72.4632 34.0895C72.268 35.1401 71.4091 36.3538 69.1485 36.7824L71.8776 43.6588L74.9815 42.4982L73.3846 38.4702C73.3846 38.4702 77.3046 35.7469 75.4578 31.0855C73.6892 26.6252 69.1602 27.1296 67.3993 27.7896C66.0524 28.294 61.5858 30.3308 63.7801 35.6863L63.7762 35.6901Z" fill="#D9FFF6"/>
<path d="M75.585 43.9045L72.4336 45.084L73.5677 47.9437L76.7191 46.7642L75.585 43.9045Z" fill="#D9FFF6"/>
<path d="M145.776 9.30724L148.915 8.13146C148.915 8.13146 147.9 5.5713 150.621 4.49793C152.035 3.94038 153.132 4.56999 153.706 5.15409C154.373 5.82921 154.631 6.785 154.463 7.70666C154.268 8.75728 153.409 9.97099 151.148 10.3996L153.878 17.276L156.981 16.1154L155.385 12.0874C155.385 12.0874 159.305 9.36413 157.458 4.70274C155.689 0.242361 151.16 0.746808 149.399 1.40676C148.052 1.91121 143.586 3.94796 145.78 9.30345L145.776 9.30724Z" fill="#D9FFF6"/>
<path d="M157.585 17.5217L154.434 18.7012L155.568 21.5609L158.719 20.3814L157.585 17.5217Z" fill="#D9FFF6"/>
<path d="M30.3766 29.6264L34.1872 30.7794C34.1872 30.7794 35.1867 27.6731 38.5288 28.6251C40.2662 29.1182 40.8089 30.4912 40.8987 31.4432C41.008 32.5469 40.52 33.6241 39.6649 34.3599C38.685 35.1981 36.9671 35.7101 34.5425 34.4926L31.8641 42.8369L35.6318 43.9785L37.2013 39.0895C37.2013 39.0895 42.9133 39.3626 44.7288 33.7075C46.4662 28.2951 41.8748 25.5226 39.7352 24.874C38.0993 24.3771 32.4029 23.0724 30.3805 29.6264L30.3766 29.6264Z" fill="#D9FFF6"/>
<path d="M35.1208 45.7158L31.2969 44.5566L30.1827 48.0252L34.0067 49.1844L35.1208 45.7158Z" fill="#D9FFF6"/>
<path d="M98.3766 29.6264L102.187 30.7794C102.187 30.7794 103.187 27.6731 106.529 28.6251C108.266 29.1182 108.809 30.4912 108.899 31.4432C109.008 32.5469 108.52 33.6241 107.665 34.3599C106.685 35.1981 104.967 35.7101 102.542 34.4926L99.8641 42.8369L103.632 43.9785L105.201 39.0895C105.201 39.0895 110.913 39.3626 112.729 33.7075C114.466 28.2951 109.875 25.5226 107.735 24.874C106.099 24.3771 100.403 23.0724 98.3805 29.6264L98.3766 29.6264Z" fill="#D9FFF6"/>
<path d="M103.121 45.7158L99.2969 44.5566L98.1827 48.0252L102.007 49.1844L103.121 45.7158Z" fill="#D9FFF6"/>
<path d="M56.9892 22.8128L55.4626 23.2035C55.4626 23.2035 55.8023 24.4475 54.4748 24.8116C53.7877 25.0013 53.3074 24.6523 53.0732 24.3527C52.796 24.0038 52.7296 23.5448 52.8545 23.1238C52.999 22.6421 53.4636 22.1225 54.5412 22.0353L53.6354 18.6938L52.1283 19.0807L52.6593 21.0378C52.6593 21.0378 50.6877 22.1111 51.3045 24.3755C51.8941 26.5412 54.0297 26.5336 54.8887 26.3136C55.5446 26.1467 57.7349 25.4185 56.9931 22.8128L56.9892 22.8128Z" fill="#D9FFF6"/>
<path d="M51.9204 18.3928L53.4531 18L53.0756 16.6101L51.5429 17.0029L51.9204 18.3928Z" fill="#D9FFF6"/>
<path d="M132.833 19.8812L131.306 20.2718C131.306 20.2718 131.646 21.5159 130.319 21.88C129.631 22.0696 129.151 21.7207 128.917 21.4211C128.64 21.0721 128.573 20.6132 128.698 20.1922C128.843 19.7105 129.307 19.1909 130.385 19.1036L129.479 15.7621L127.972 16.149L128.503 18.1061C128.503 18.1061 126.531 19.1795 127.148 21.4438C127.738 23.6095 129.873 23.6019 130.732 23.382C131.388 23.2151 133.579 22.4868 132.837 19.8812L132.833 19.8812Z" fill="#D9FFF6"/>
<path d="M127.764 15.4612L129.297 15.0684L128.919 13.6784L127.387 14.0713L127.764 15.4612Z" fill="#D9FFF6"/>
<path d="M90.1262 16.1615L86.9871 17.3373C86.9871 17.3373 88.0022 19.8975 85.281 20.9708C83.8676 21.5284 82.7705 20.8988 82.1966 20.3147C81.5289 19.6395 81.2712 18.6837 81.4391 17.7621C81.6343 16.7115 82.4933 15.4978 84.7539 15.0692L82.0248 8.19276L78.9208 9.35337L80.5177 13.3814C80.5177 13.3814 76.5978 16.1046 78.4445 20.766C80.2132 25.2264 84.7422 24.7219 86.503 24.062C87.85 23.5575 92.3165 21.5208 90.1223 16.1653L90.1262 16.1615Z" fill="#D9FFF6"/>
<path d="M78.3173 7.94705L81.4688 6.76758L80.3346 3.90786L77.1832 5.08733L78.3173 7.94705Z" fill="#D9FFF6"/>
</g>
<g opacity="0.3">
<path d="M178.354 19.5572L174.543 18.4041C174.543 18.4041 173.544 21.5105 170.202 20.5585C168.464 20.0654 167.922 18.6924 167.832 17.7404C167.722 16.6367 168.21 15.5595 169.066 14.8237C170.046 13.9855 171.763 13.4735 174.188 14.691L176.866 6.34672L173.099 5.20508L171.529 10.094C171.529 10.094 165.817 9.82096 164.002 15.4761C162.264 20.8885 166.856 23.661 168.995 24.3096C170.631 24.8065 176.328 26.1112 178.35 19.5572H178.354Z" fill="#D9FFF6"/>
<path d="M173.61 3.46779L177.434 4.62695L178.548 1.15836L174.724 -0.000804108L173.61 3.46779Z" fill="#D9FFF6"/>
<path d="M194.523 9.45868L196.049 9.06801C196.049 9.06801 195.709 7.82396 197.037 7.45985C197.724 7.27021 198.204 7.61915 198.439 7.91878C198.716 8.26773 198.782 8.72666 198.657 9.14766C198.513 9.62935 198.048 10.149 196.971 10.2362L197.876 13.5777L199.383 13.1908L198.852 11.2337C198.852 11.2337 200.824 10.1604 200.207 7.89603C199.618 5.73032 197.482 5.7379 196.623 5.95789C195.967 6.12477 193.777 6.853 194.519 9.45868H194.523Z" fill="#D9FFF6"/>
<path d="M199.591 13.8786L198.059 14.2715L198.436 15.6614L199.969 15.2686L199.591 13.8786Z" fill="#D9FFF6"/>
<path d="M265.523 11.4118L267.049 11.0211C267.049 11.0211 266.709 9.77709 268.037 9.41298C268.724 9.22334 269.204 9.57228 269.439 9.87191C269.716 10.2209 269.782 10.6798 269.657 11.1008C269.513 11.5825 269.048 12.1021 267.971 12.1893L268.876 15.5308L270.383 15.144L269.852 13.1868C269.852 13.1868 271.824 12.1135 271.207 9.84915C270.618 7.68344 268.482 7.69103 267.623 7.91101C266.967 8.0779 264.777 8.80612 265.519 11.4118H265.523Z" fill="#D9FFF6"/>
<path d="M270.591 15.8318L269.059 16.2246L269.436 17.6145L270.969 17.2217L270.591 15.8318Z" fill="#D9FFF6"/>
<path d="M160.776 35.6276L163.915 34.4518C163.915 34.4518 162.9 31.8916 165.621 30.8182C167.035 30.2607 168.132 30.8903 168.706 31.4744C169.373 32.1495 169.631 33.1053 169.463 34.027C169.268 35.0776 168.409 36.2913 166.148 36.7199L168.878 43.5963L171.981 42.4357L170.385 38.4077C170.385 38.4077 174.305 35.6844 172.458 31.023C170.689 26.5627 166.16 27.0671 164.399 27.7271C163.052 28.2315 158.586 30.2683 160.78 35.6238L160.776 35.6276Z" fill="#D9FFF6"/>
<path d="M172.585 43.842L169.434 45.0215L170.568 47.8812L173.719 46.7017L172.585 43.842Z" fill="#D9FFF6"/>
<path d="M223.96 35.6901L227.099 34.5143C227.099 34.5143 226.084 31.9541 228.805 30.8807C230.218 30.3232 231.315 30.9528 231.889 31.5369C232.557 32.212 232.815 33.1678 232.647 34.0895C232.452 35.1401 231.593 36.3538 229.332 36.7824L232.061 43.6588L235.165 42.4982L233.568 38.4702C233.568 38.4702 237.488 35.7469 235.641 31.0855C233.873 26.6252 229.344 27.1296 227.583 27.7896C226.236 28.294 221.769 30.3308 223.964 35.6863L223.96 35.6901Z" fill="#D9FFF6"/>
<path d="M235.769 43.9045L232.617 45.084L233.751 47.9437L236.903 46.7642L235.769 43.9045Z" fill="#D9FFF6"/>
<path d="M305.96 9.30724L309.099 8.13146C309.099 8.13146 308.084 5.5713 310.805 4.49793C312.218 3.94038 313.315 4.56999 313.889 5.15409C314.557 5.82921 314.815 6.785 314.647 7.70666C314.452 8.75728 313.593 9.97099 311.332 10.3996L314.061 17.276L317.165 16.1154L315.568 12.0874C315.568 12.0874 319.488 9.36413 317.641 4.70274C315.873 0.242361 311.344 0.746808 309.583 1.40676C308.236 1.91121 303.769 3.94796 305.964 9.30345L305.96 9.30724Z" fill="#D9FFF6"/>
<path d="M317.769 17.5217L314.617 18.7012L315.751 21.5609L318.903 20.3814L317.769 17.5217Z" fill="#D9FFF6"/>
<path d="M190.56 29.6264L194.371 30.7794C194.371 30.7794 195.37 27.6731 198.712 28.6251C200.45 29.1182 200.992 30.4912 201.082 31.4432C201.192 32.5469 200.704 33.6241 199.849 34.3599C198.869 35.1981 197.151 35.7101 194.726 34.4926L192.048 42.8369L195.815 43.9785L197.385 39.0895C197.385 39.0895 203.097 39.3626 204.912 33.7075C206.65 28.2951 202.058 25.5226 199.919 24.874C198.283 24.3771 192.587 23.0724 190.564 29.6264L190.56 29.6264Z" fill="#D9FFF6"/>
<path d="M195.304 45.7158L191.48 44.5566L190.366 48.0252L194.19 49.1844L195.304 45.7158Z" fill="#D9FFF6"/>
<path d="M258.56 29.6264L262.371 30.7794C262.371 30.7794 263.37 27.6731 266.712 28.6251C268.45 29.1182 268.992 30.4912 269.082 31.4432C269.192 32.5469 268.704 33.6241 267.849 34.3599C266.869 35.1981 265.151 35.7101 262.726 34.4926L260.048 42.8369L263.815 43.9785L265.385 39.0895C265.385 39.0895 271.097 39.3626 272.912 33.7075C274.65 28.2951 270.058 25.5226 267.919 24.874C266.283 24.3771 260.587 23.0724 258.564 29.6264L258.56 29.6264Z" fill="#D9FFF6"/>
<path d="M263.304 45.7158L259.48 44.5566L258.366 48.0252L262.19 49.1844L263.304 45.7158Z" fill="#D9FFF6"/>
<path d="M217.173 22.8128L215.646 23.2035C215.646 23.2035 215.986 24.4475 214.658 24.8116C213.971 25.0013 213.491 24.6523 213.257 24.3527C212.98 24.0038 212.913 23.5448 213.038 23.1238C213.183 22.6421 213.647 22.1225 214.725 22.0353L213.819 18.6938L212.312 19.0807L212.843 21.0378C212.843 21.0378 210.871 22.1111 211.488 24.3755C212.078 26.5412 214.213 26.5336 215.072 26.3136C215.728 26.1467 217.919 25.4185 217.177 22.8128L217.173 22.8128Z" fill="#D9FFF6"/>
<path d="M212.104 18.3928L213.637 18L213.259 16.6101L211.727 17.0029L212.104 18.3928Z" fill="#D9FFF6"/>
<path d="M293.017 19.8812L291.49 20.2718C291.49 20.2718 291.83 21.5159 290.502 21.88C289.815 22.0696 289.335 21.7207 289.101 21.4211C288.823 21.0721 288.757 20.6132 288.882 20.1922C289.026 19.7105 289.491 19.1909 290.569 19.1036L289.663 15.7621L288.156 16.149L288.687 18.1061C288.687 18.1061 286.715 19.1795 287.332 21.4438C287.921 23.6095 290.057 23.6019 290.916 23.382C291.572 23.2151 293.762 22.4868 293.02 19.8812L293.017 19.8812Z" fill="#D9FFF6"/>
<path d="M287.948 15.4612L289.48 15.0684L289.103 13.6784L287.57 14.0713L287.948 15.4612Z" fill="#D9FFF6"/>
<path d="M250.31 16.1615L247.171 17.3373C247.171 17.3373 248.186 19.8975 245.465 20.9708C244.051 21.5284 242.954 20.8988 242.38 20.3147C241.713 19.6395 241.455 18.6837 241.623 17.7621C241.818 16.7115 242.677 15.4978 244.937 15.0692L242.208 8.19276L239.104 9.35337L240.701 13.3814C240.701 13.3814 236.781 16.1046 238.628 20.766C240.397 25.2264 244.926 24.7219 246.687 24.062C248.034 23.5575 252.5 21.5208 250.306 16.1653L250.31 16.1615Z" fill="#D9FFF6"/>
<path d="M238.501 7.94705L241.652 6.76758L240.518 3.90786L237.367 5.08733L238.501 7.94705Z" fill="#D9FFF6"/>
</g>
<g opacity="0.3">
<path d="M338.539 19.5572L334.729 18.4041C334.729 18.4041 333.729 21.5105 330.387 20.5585C328.65 20.0654 328.107 18.6924 328.017 17.7404C327.908 16.6367 328.396 15.5595 329.251 14.8237C330.231 13.9855 331.949 13.4735 334.374 14.691L337.052 6.34672L333.284 5.20508L331.715 10.094C331.715 10.094 326.003 9.82096 324.187 15.4761C322.45 20.8885 327.041 23.661 329.181 24.3096C330.817 24.8065 336.513 26.1112 338.536 19.5572H338.539Z" fill="#D9FFF6"/>
<path d="M333.795 3.46779L337.619 4.62695L338.733 1.15836L334.909 -0.000804108L333.795 3.46779Z" fill="#D9FFF6"/>
<path d="M354.708 9.45868L356.235 9.06801C356.235 9.06801 355.895 7.82396 357.222 7.45985C357.91 7.27021 358.39 7.61915 358.624 7.91878C358.901 8.26773 358.968 8.72666 358.843 9.14766C358.698 9.62935 358.234 10.149 357.156 10.2362L358.062 13.5777L359.569 13.1908L359.038 11.2337C359.038 11.2337 361.01 10.1604 360.393 7.89603C359.803 5.73032 357.668 5.7379 356.809 5.95789C356.153 6.12477 353.962 6.853 354.704 9.45868H354.708Z" fill="#D9FFF6"/>
<path d="M359.777 13.8786L358.244 14.2715L358.622 15.6614L360.154 15.2686L359.777 13.8786Z" fill="#D9FFF6"/>
<path d="M425.708 11.4118L427.235 11.0211C427.235 11.0211 426.895 9.77709 428.222 9.41298C428.91 9.22334 429.39 9.57228 429.624 9.87191C429.901 10.2209 429.968 10.6798 429.843 11.1008C429.698 11.5825 429.234 12.1021 428.156 12.1893L429.062 15.5308L430.569 15.144L430.038 13.1868C430.038 13.1868 432.01 12.1135 431.393 9.84915C430.803 7.68344 428.668 7.69103 427.809 7.91101C427.153 8.0779 424.962 8.80612 425.704 11.4118H425.708Z" fill="#D9FFF6"/>
<path d="M430.777 15.8318L429.244 16.2246L429.622 17.6145L431.154 17.2217L430.777 15.8318Z" fill="#D9FFF6"/>
<path d="M320.962 35.6276L324.101 34.4518C324.101 34.4518 323.086 31.8916 325.807 30.8182C327.22 30.2607 328.317 30.8903 328.891 31.4744C329.559 32.1495 329.817 33.1053 329.649 34.027C329.454 35.0776 328.595 36.2913 326.334 36.7199L329.063 43.5963L332.167 42.4357L330.57 38.4077C330.57 38.4077 334.49 35.6844 332.643 31.023C330.875 26.5627 326.346 27.0671 324.585 27.7271C323.238 28.2315 318.771 30.2683 320.966 35.6238L320.962 35.6276Z" fill="#D9FFF6"/>
<path d="M332.771 43.842L329.619 45.0215L330.753 47.8812L333.905 46.7017L332.771 43.842Z" fill="#D9FFF6"/>
<path d="M384.145 35.6901L387.284 34.5143C387.284 34.5143 386.269 31.9541 388.991 30.8807C390.404 30.3232 391.501 30.9528 392.075 31.5369C392.743 32.212 393 33.1678 392.832 34.0895C392.637 35.1401 391.778 36.3538 389.518 36.7824L392.247 43.6588L395.351 42.4982L393.754 38.4702C393.754 38.4702 397.674 35.7469 395.827 31.0855C394.058 26.6252 389.529 27.1296 387.768 27.7896C386.422 28.294 381.955 30.3308 384.149 35.6863L384.145 35.6901Z" fill="#D9FFF6"/>
<path d="M395.954 43.9045L392.803 45.084L393.937 47.9437L397.088 46.7642L395.954 43.9045Z" fill="#D9FFF6"/>
<path d="M466.145 9.30724L469.284 8.13146C469.284 8.13146 468.269 5.5713 470.991 4.49793C472.404 3.94038 473.501 4.56999 474.075 5.15409C474.743 5.82921 475 6.785 474.832 7.70666C474.637 8.75728 473.778 9.97099 471.518 10.3996L474.247 17.276L477.351 16.1154L475.754 12.0874C475.754 12.0874 479.674 9.36413 477.827 4.70274C476.058 0.242361 471.529 0.746808 469.768 1.40676C468.422 1.91121 463.955 3.94796 466.149 9.30345L466.145 9.30724Z" fill="#D9FFF6"/>
<path d="M477.954 17.5217L474.803 18.7012L475.937 21.5609L479.088 20.3814L477.954 17.5217Z" fill="#D9FFF6"/>
<path d="M350.746 29.6264L354.556 30.7794C354.556 30.7794 355.556 27.6731 358.898 28.6251C360.635 29.1182 361.178 30.4912 361.268 31.4432C361.377 32.5469 360.889 33.6241 360.034 34.3599C359.054 35.1981 357.336 35.7101 354.912 34.4926L352.233 42.8369L356.001 43.9785L357.57 39.0895C357.57 39.0895 363.282 39.3626 365.098 33.7075C366.835 28.2951 362.244 25.5226 360.104 24.874C358.468 24.3771 352.772 23.0724 350.75 29.6264L350.746 29.6264Z" fill="#D9FFF6"/>
<path d="M355.49 45.7158L351.666 44.5566L350.552 48.0252L354.376 49.1844L355.49 45.7158Z" fill="#D9FFF6"/>
<path d="M418.746 29.6264L422.556 30.7794C422.556 30.7794 423.556 27.6731 426.898 28.6251C428.635 29.1182 429.178 30.4912 429.268 31.4432C429.377 32.5469 428.889 33.6241 428.034 34.3599C427.054 35.1981 425.336 35.7101 422.912 34.4926L420.233 42.8369L424.001 43.9785L425.57 39.0895C425.57 39.0895 431.282 39.3626 433.098 33.7075C434.835 28.2951 430.244 25.5226 428.104 24.874C426.468 24.3771 420.772 23.0724 418.75 29.6264L418.746 29.6264Z" fill="#D9FFF6"/>
<path d="M423.49 45.7158L419.666 44.5566L418.552 48.0252L422.376 49.1844L423.49 45.7158Z" fill="#D9FFF6"/>
<path d="M377.358 22.8128L375.832 23.2035C375.832 23.2035 376.171 24.4475 374.844 24.8116C374.157 25.0013 373.677 24.6523 373.442 24.3527C373.165 24.0038 373.099 23.5448 373.224 23.1238C373.368 22.6421 373.833 22.1225 374.91 22.0353L374.005 18.6938L372.497 19.0807L373.028 21.0378C373.028 21.0378 371.057 22.1111 371.674 24.3755C372.263 26.5412 374.399 26.5336 375.258 26.3136C375.914 26.1467 378.104 25.4185 377.362 22.8128L377.358 22.8128Z" fill="#D9FFF6"/>
<path d="M372.29 18.3928L373.822 18L373.445 16.6101L371.912 17.0029L372.29 18.3928Z" fill="#D9FFF6"/>
<path d="M453.202 19.8812L451.676 20.2718C451.676 20.2718 452.015 21.5159 450.688 21.88C450.001 22.0696 449.52 21.7207 449.286 21.4211C449.009 21.0721 448.942 20.6132 449.067 20.1922C449.212 19.7105 449.677 19.1909 450.754 19.1036L449.848 15.7621L448.341 16.149L448.872 18.1061C448.872 18.1061 446.901 19.1795 447.517 21.4438C448.107 23.6095 450.243 23.6019 451.102 23.382C451.757 23.2151 453.948 22.4868 453.206 19.8812L453.202 19.8812Z" fill="#D9FFF6"/>
<path d="M448.133 15.4612L449.666 15.0684L449.289 13.6784L447.756 14.0713L448.133 15.4612Z" fill="#D9FFF6"/>
<path d="M410.495 16.1615L407.356 17.3373C407.356 17.3373 408.371 19.8975 405.65 20.9708C404.237 21.5284 403.14 20.8988 402.566 20.3147C401.898 19.6395 401.64 18.6837 401.808 17.7621C402.003 16.7115 402.862 15.4978 405.123 15.0692L402.394 8.19276L399.29 9.35337L400.887 13.3814C400.887 13.3814 396.967 16.1046 398.814 20.766C400.582 25.2264 405.111 24.7219 406.872 24.062C408.219 23.5575 412.686 21.5208 410.491 16.1653L410.495 16.1615Z" fill="#D9FFF6"/>
<path d="M398.686 7.94705L401.838 6.76758L400.704 3.90786L397.552 5.08733L398.686 7.94705Z" fill="#D9FFF6"/>
</g>
<g opacity="0.3">
<path d="M498.723 19.5572L494.912 18.4041C494.912 18.4041 493.913 21.5105 490.571 20.5585C488.833 20.0654 488.291 18.6924 488.201 17.7404C488.092 16.6367 488.58 15.5595 489.435 14.8237C490.415 13.9855 492.133 13.4735 494.557 14.691L497.235 6.34672L493.468 5.20508L491.898 10.094C491.898 10.094 486.186 9.82096 484.371 15.4761C482.633 20.8885 487.225 23.661 489.364 24.3096C491 24.8065 496.697 26.1112 498.719 19.5572H498.723Z" fill="#D9FFF6"/>
<path d="M493.979 3.46779L497.803 4.62695L498.917 1.15836L495.093 -0.000804108L493.979 3.46779Z" fill="#D9FFF6"/>
<path d="M514.892 9.45868L516.418 9.06801C516.418 9.06801 516.079 7.82396 517.406 7.45985C518.093 7.27021 518.573 7.61915 518.808 7.91878C519.085 8.26773 519.151 8.72666 519.026 9.14766C518.882 9.62935 518.417 10.149 517.34 10.2362L518.245 13.5777L519.753 13.1908L519.222 11.2337C519.222 11.2337 521.193 10.1604 520.576 7.89603C519.987 5.73032 517.851 5.7379 516.992 5.95789C516.336 6.12477 514.146 6.853 514.888 9.45868H514.892Z" fill="#D9FFF6"/>
<path d="M519.96 13.8786L518.428 14.2715L518.805 15.6614L520.338 15.2686L519.96 13.8786Z" fill="#D9FFF6"/>
<path d="M585.892 11.4118L587.418 11.0211C587.418 11.0211 587.079 9.77709 588.406 9.41298C589.093 9.22334 589.573 9.57228 589.808 9.87191C590.085 10.2209 590.151 10.6798 590.026 11.1008C589.882 11.5825 589.417 12.1021 588.34 12.1893L589.245 15.5308L590.753 15.144L590.222 13.1868C590.222 13.1868 592.193 12.1135 591.576 9.84915C590.987 7.68344 588.851 7.69103 587.992 7.91101C587.336 8.0779 585.146 8.80612 585.888 11.4118H585.892Z" fill="#D9FFF6"/>
<path d="M590.96 15.8318L589.428 16.2246L589.805 17.6145L591.338 17.2217L590.96 15.8318Z" fill="#D9FFF6"/>
<path d="M481.145 35.6276L484.284 34.4518C484.284 34.4518 483.269 31.8916 485.991 30.8182C487.404 30.2607 488.501 30.8903 489.075 31.4744C489.743 32.1495 490 33.1053 489.832 34.027C489.637 35.0776 488.778 36.2913 486.518 36.7199L489.247 43.5963L492.351 42.4357L490.754 38.4077C490.754 38.4077 494.674 35.6844 492.827 31.023C491.058 26.5627 486.529 27.0671 484.768 27.7271C483.422 28.2315 478.955 30.2683 481.149 35.6238L481.145 35.6276Z" fill="#D9FFF6"/>
<path d="M492.954 43.842L489.803 45.0215L490.937 47.8812L494.088 46.7017L492.954 43.842Z" fill="#D9FFF6"/>
<path d="M544.329 35.6901L547.468 34.5143C547.468 34.5143 546.453 31.9541 549.174 30.8807C550.587 30.3232 551.685 30.9528 552.259 31.5369C552.926 32.212 553.184 33.1678 553.016 34.0895C552.821 35.1401 551.962 36.3538 549.701 36.7824L552.43 43.6588L555.534 42.4982L553.937 38.4702C553.937 38.4702 557.857 35.7469 556.011 31.0855C554.242 26.6252 549.713 27.1296 547.952 27.7896C546.605 28.294 542.139 30.3308 544.333 35.6863L544.329 35.6901Z" fill="#D9FFF6"/>
<path d="M556.138 43.9045L552.986 45.084L554.12 47.9437L557.272 46.7642L556.138 43.9045Z" fill="#D9FFF6"/>
<path d="M626.329 9.30724L629.468 8.13146C629.468 8.13146 628.453 5.5713 631.174 4.49793C632.587 3.94038 633.685 4.56999 634.259 5.15409C634.926 5.82921 635.184 6.785 635.016 7.70666C634.821 8.75728 633.962 9.97099 631.701 10.3996L634.43 17.276L637.534 16.1154L635.937 12.0874C635.937 12.0874 639.857 9.36413 638.011 4.70274C636.242 0.242361 631.713 0.746808 629.952 1.40676C628.605 1.91121 624.139 3.94796 626.333 9.30345L626.329 9.30724Z" fill="#D9FFF6"/>
<path d="M638.138 17.5217L634.986 18.7012L636.12 21.5609L639.272 20.3814L638.138 17.5217Z" fill="#D9FFF6"/>
<path d="M510.929 29.6264L514.74 30.7794C514.74 30.7794 515.739 27.6731 519.082 28.6251C520.819 29.1182 521.362 30.4912 521.451 31.4432C521.561 32.5469 521.073 33.6241 520.218 34.3599C519.238 35.1981 517.52 35.7101 515.095 34.4926L512.417 42.8369L516.185 43.9785L517.754 39.0895C517.754 39.0895 523.466 39.3626 525.282 33.7075C527.019 28.2951 522.428 25.5226 520.288 24.874C518.652 24.3771 512.956 23.0724 510.933 29.6264L510.929 29.6264Z" fill="#D9FFF6"/>
<path d="M515.674 45.7158L511.85 44.5566L510.735 48.0252L514.559 49.1844L515.674 45.7158Z" fill="#D9FFF6"/>
<path d="M578.929 29.6264L582.74 30.7794C582.74 30.7794 583.739 27.6731 587.082 28.6251C588.819 29.1182 589.362 30.4912 589.451 31.4432C589.561 32.5469 589.073 33.6241 588.218 34.3599C587.238 35.1981 585.52 35.7101 583.095 34.4926L580.417 42.8369L584.185 43.9785L585.754 39.0895C585.754 39.0895 591.466 39.3626 593.282 33.7075C595.019 28.2951 590.428 25.5226 588.288 24.874C586.652 24.3771 580.956 23.0724 578.933 29.6264L578.929 29.6264Z" fill="#D9FFF6"/>
<path d="M583.674 45.7158L579.85 44.5566L578.735 48.0252L582.559 49.1844L583.674 45.7158Z" fill="#D9FFF6"/>
<path d="M537.542 22.8128L536.015 23.2035C536.015 23.2035 536.355 24.4475 535.028 24.8116C534.34 25.0013 533.86 24.6523 533.626 24.3527C533.349 24.0038 533.282 23.5448 533.407 23.1238C533.552 22.6421 534.016 22.1225 535.094 22.0353L534.188 18.6938L532.681 19.0807L533.212 21.0378C533.212 21.0378 531.24 22.1111 531.857 24.3755C532.447 26.5412 534.582 26.5336 535.441 26.3136C536.097 26.1467 538.288 25.4185 537.546 22.8128L537.542 22.8128Z" fill="#D9FFF6"/>
<path d="M532.473 18.3928L534.006 18L533.628 16.6101L532.096 17.0029L532.473 18.3928Z" fill="#D9FFF6"/>
<path d="M613.386 19.8812L611.859 20.2718C611.859 20.2718 612.199 21.5159 610.871 21.88C610.184 22.0696 609.704 21.7207 609.47 21.4211C609.192 21.0721 609.126 20.6132 609.251 20.1922C609.395 19.7105 609.86 19.1909 610.938 19.1036L610.032 15.7621L608.525 16.149L609.056 18.1061C609.056 18.1061 607.084 19.1795 607.701 21.4438C608.291 23.6095 610.426 23.6019 611.285 23.382C611.941 23.2151 614.131 22.4868 613.39 19.8812L613.386 19.8812Z" fill="#D9FFF6"/>
<path d="M608.317 15.4612L609.85 15.0684L609.472 13.6784L607.939 14.0713L608.317 15.4612Z" fill="#D9FFF6"/>
<path d="M570.679 16.1615L567.54 17.3373C567.54 17.3373 568.555 19.8975 565.834 20.9708C564.42 21.5284 563.323 20.8988 562.749 20.3147C562.082 19.6395 561.824 18.6837 561.992 17.7621C562.187 16.7115 563.046 15.4978 565.307 15.0692L562.578 8.19276L559.474 9.35337L561.07 13.3814C561.07 13.3814 557.151 16.1046 558.997 20.766C560.766 25.2264 565.295 24.7219 567.056 24.062C568.403 23.5575 572.869 21.5208 570.675 16.1653L570.679 16.1615Z" fill="#D9FFF6"/>
<path d="M558.87 7.94705L562.021 6.76758L560.887 3.90786L557.736 5.08733L558.87 7.94705Z" fill="#D9FFF6"/>
</g>
<g opacity="0.3">
<path d="M657.17 19.5572L653.36 18.4041C653.36 18.4041 652.36 21.5105 649.018 20.5585C647.281 20.0654 646.738 18.6924 646.648 17.7404C646.539 16.6367 647.027 15.5595 647.882 14.8237C648.862 13.9855 650.58 13.4735 653.004 14.691L655.683 6.34672L651.915 5.20508L650.346 10.094C650.346 10.094 644.634 9.82096 642.818 15.4761C641.081 20.8885 645.672 23.661 647.812 24.3096C649.448 24.8065 655.144 26.1112 657.166 19.5572H657.17Z" fill="#D9FFF6"/>
<path d="M652.426 3.46779L656.25 4.62695L657.364 1.15836L653.54 -0.000804108L652.426 3.46779Z" fill="#D9FFF6"/>
<path d="M673.339 9.45868L674.866 9.06801C674.866 9.06801 674.526 7.82396 675.853 7.45985C676.54 7.27021 677.021 7.61915 677.255 7.91878C677.532 8.26773 677.599 8.72666 677.474 9.14766C677.329 9.62935 676.865 10.149 675.787 10.2362L676.693 13.5777L678.2 13.1908L677.669 11.2337C677.669 11.2337 679.64 10.1604 679.024 7.89603C678.434 5.73032 676.298 5.7379 675.439 5.95789C674.784 6.12477 672.593 6.853 673.335 9.45868H673.339Z" fill="#D9FFF6"/>
<path d="M678.408 13.8786L676.875 14.2715L677.252 15.6614L678.785 15.2686L678.408 13.8786Z" fill="#D9FFF6"/>
<path d="M744.339 11.4118L745.866 11.0211C745.866 11.0211 745.526 9.77709 746.853 9.41298C747.54 9.22334 748.021 9.57228 748.255 9.87191C748.532 10.2209 748.599 10.6798 748.474 11.1008C748.329 11.5825 747.865 12.1021 746.787 12.1893L747.693 15.5308L749.2 15.144L748.669 13.1868C748.669 13.1868 750.64 12.1135 750.024 9.84915C749.434 7.68344 747.298 7.69103 746.439 7.91101C745.784 8.0779 743.593 8.80612 744.335 11.4118H744.339Z" fill="#D9FFF6"/>
<path d="M749.408 15.8318L747.875 16.2246L748.252 17.6145L749.785 17.2217L749.408 15.8318Z" fill="#D9FFF6"/>
<path d="M639.593 35.6276L642.732 34.4518C642.732 34.4518 641.717 31.8916 644.438 30.8182C645.851 30.2607 646.948 30.8903 647.522 31.4744C648.19 32.1495 648.448 33.1053 648.28 34.027C648.084 35.0776 647.225 36.2913 644.965 36.7199L647.694 43.5963L650.798 42.4357L649.201 38.4077C649.201 38.4077 653.121 35.6844 651.274 31.023C649.506 26.5627 644.977 27.0671 643.216 27.7271C641.869 28.2315 637.402 30.2683 639.596 35.6238L639.593 35.6276Z" fill="#D9FFF6"/>
<path d="M651.401 43.842L648.25 45.0215L649.384 47.8812L652.536 46.7017L651.401 43.842Z" fill="#D9FFF6"/>
<path d="M702.776 35.6901L705.915 34.5143C705.915 34.5143 704.9 31.9541 707.621 30.8807C709.035 30.3232 710.132 30.9528 710.706 31.5369C711.373 32.212 711.631 33.1678 711.463 34.0895C711.268 35.1401 710.409 36.3538 708.148 36.7824L710.878 43.6588L713.981 42.4982L712.385 38.4702C712.385 38.4702 716.305 35.7469 714.458 31.0855C712.689 26.6252 708.16 27.1296 706.399 27.7896C705.052 28.294 700.586 30.3308 702.78 35.6863L702.776 35.6901Z" fill="#D9FFF6"/>
<path d="M714.585 43.9045L711.434 45.084L712.568 47.9437L715.719 46.7642L714.585 43.9045Z" fill="#D9FFF6"/>
<path d="M784.776 9.30724L787.915 8.13146C787.915 8.13146 786.9 5.5713 789.621 4.49793C791.035 3.94038 792.132 4.56999 792.706 5.15409C793.373 5.82921 793.631 6.785 793.463 7.70666C793.268 8.75728 792.409 9.97099 790.148 10.3996L792.878 17.276L795.981 16.1154L794.385 12.0874C794.385 12.0874 798.305 9.36413 796.458 4.70274C794.689 0.242361 790.16 0.746808 788.399 1.40676C787.052 1.91121 782.586 3.94796 784.78 9.30345L784.776 9.30724Z" fill="#D9FFF6"/>
<path d="M796.585 17.5217L793.434 18.7012L794.568 21.5609L797.719 20.3814L796.585 17.5217Z" fill="#D9FFF6"/>
<path d="M669.377 29.6264L673.187 30.7794C673.187 30.7794 674.187 27.6731 677.529 28.6251C679.266 29.1182 679.809 30.4912 679.899 31.4432C680.008 32.5469 679.52 33.6241 678.665 34.3599C677.685 35.1981 675.967 35.7101 673.542 34.4926L670.864 42.8369L674.632 43.9785L676.201 39.0895C676.201 39.0895 681.913 39.3626 683.729 33.7075C685.466 28.2951 680.875 25.5226 678.735 24.874C677.099 24.3771 671.403 23.0724 669.381 29.6264L669.377 29.6264Z" fill="#D9FFF6"/>
<path d="M674.121 45.7158L670.297 44.5566L669.183 48.0252L673.007 49.1844L674.121 45.7158Z" fill="#D9FFF6"/>
<path d="M737.377 29.6264L741.187 30.7794C741.187 30.7794 742.187 27.6731 745.529 28.6251C747.266 29.1182 747.809 30.4912 747.899 31.4432C748.008 32.5469 747.52 33.6241 746.665 34.3599C745.685 35.1981 743.967 35.7101 741.542 34.4926L738.864 42.8369L742.632 43.9785L744.201 39.0895C744.201 39.0895 749.913 39.3626 751.729 33.7075C753.466 28.2951 748.875 25.5226 746.735 24.874C745.099 24.3771 739.403 23.0724 737.381 29.6264L737.377 29.6264Z" fill="#D9FFF6"/>
<path d="M742.121 45.7158L738.297 44.5566L737.183 48.0252L741.007 49.1844L742.121 45.7158Z" fill="#D9FFF6"/>
<path d="M695.989 22.8128L694.463 23.2035C694.463 23.2035 694.802 24.4475 693.475 24.8116C692.788 25.0013 692.307 24.6523 692.073 24.3527C691.796 24.0038 691.73 23.5448 691.855 23.1238C691.999 22.6421 692.464 22.1225 693.541 22.0353L692.635 18.6938L691.128 19.0807L691.659 21.0378C691.659 21.0378 689.688 22.1111 690.305 24.3755C690.894 26.5412 693.03 26.5336 693.889 26.3136C694.545 26.1467 696.735 25.4185 695.993 22.8128L695.989 22.8128Z" fill="#D9FFF6"/>
<path d="M690.92 18.3928L692.453 18L692.076 16.6101L690.543 17.0029L690.92 18.3928Z" fill="#D9FFF6"/>
<path d="M771.833 19.8812L770.306 20.2718C770.306 20.2718 770.646 21.5159 769.319 21.88C768.631 22.0696 768.151 21.7207 767.917 21.4211C767.64 21.0721 767.573 20.6132 767.698 20.1922C767.843 19.7105 768.307 19.1909 769.385 19.1036L768.479 15.7621L766.972 16.149L767.503 18.1061C767.503 18.1061 765.531 19.1795 766.148 21.4438C766.738 23.6095 768.873 23.6019 769.732 23.382C770.388 23.2151 772.579 22.4868 771.837 19.8812L771.833 19.8812Z" fill="#D9FFF6"/>
<path d="M766.764 15.4612L768.297 15.0684L767.919 13.6784L766.387 14.0713L766.764 15.4612Z" fill="#D9FFF6"/>
<path d="M729.126 16.1615L725.987 17.3373C725.987 17.3373 727.002 19.8975 724.281 20.9708C722.868 21.5284 721.77 20.8988 721.197 20.3147C720.529 19.6395 720.271 18.6837 720.439 17.7621C720.634 16.7115 721.493 15.4978 723.754 15.0692L721.025 8.19276L717.921 9.35337L719.518 13.3814C719.518 13.3814 715.598 16.1046 717.445 20.766C719.213 25.2264 723.742 24.7219 725.503 24.062C726.85 23.5575 731.316 21.5208 729.122 16.1653L729.126 16.1615Z" fill="#D9FFF6"/>
<path d="M717.317 7.94705L720.469 6.76758L719.335 3.90786L716.183 5.08733L717.317 7.94705Z" fill="#D9FFF6"/>
</g>
</g>
</svg>
