<svg width="75" height="50" viewBox="0 0 75 50" fill="none" xmlns="http://www.w3.org/2000/svg">
<g clip-path="url(#clip0_6104_5569)">
<path d="M74.2678 10.894C74.7579 9.73559 75.0073 8.48567 75.0003 7.22346C75.0003 3.23263 72.6421 0 69.7326 0C66.823 0 64.462 3.23263 64.462 7.22346C64.4568 8.48608 64.7082 9.73603 65.2002 10.894H74.2678Z" fill="#0C0C0C"/>
<path d="M75.0002 6.98438H64.4619V11.5982H75.0002V6.98438Z" fill="#0C0C0C"/>
<path d="M65.5245 50H0V5.49547C0 4.03798 0.565881 2.64019 1.57316 1.60959C2.58043 0.578986 3.94659 0 5.37109 0L70.2838 0C70.2838 0 65.5274 0.317386 65.5274 5.62772L65.5245 50Z" fill="#1F1F1F"/>
<path d="M57.1433 21.1914H30.4946V21.9761H57.1433V21.1914Z" fill="white"/>
<path d="M61.3511 24.4688H27.4414V25.2534H61.3511V24.4688Z" fill="#9CB7C6"/>
<path d="M61.3511 27.7461H27.4414V28.5307H61.3511V27.7461Z" fill="#9CB7C6"/>
<path d="M61.3511 31.0234H27.4414V31.8081H61.3511V31.0234Z" fill="#9CB7C6"/>
<path d="M61.3511 34.3008H27.4414V35.0854H61.3511V34.3008Z" fill="#9CB7C6"/>
<path d="M61.3511 37.5781H4.17334V38.3628H61.3511V37.5781Z" fill="#9CB7C6"/>
<path d="M61.3511 40.8555H4.17334V41.6401H61.3511V40.8555Z" fill="#9CB7C6"/>
<path d="M61.3511 44.1328H4.17334V44.9175H61.3511V44.1328Z" fill="#9CB7C6"/>
<path d="M20.3932 31.2673L17.7422 30.9734C17.6427 30.9615 17.5419 30.9733 17.4477 31.0079C17.3535 31.0426 17.2685 31.0992 17.1993 31.1733L15.3438 33.1334C15.2661 33.2155 15.1692 33.276 15.0623 33.3092C14.9553 33.3423 14.8419 33.3471 14.7327 33.323C14.6235 33.2989 14.5221 33.2467 14.4381 33.1714C14.354 33.096 14.2901 33 14.2524 32.8925L10.0015 20.9023L16.8317 18.375L21.0711 30.371C21.1081 30.4773 21.1184 30.5915 21.1011 30.7029C21.0837 30.8144 21.0392 30.9196 20.9717 31.0088C20.9042 31.0981 20.8159 31.1686 20.7148 31.2137C20.6137 31.2589 20.5031 31.2773 20.3932 31.2673Z" fill="#3A3A3A"/>
<path d="M3.03313 31.2673L5.68421 30.9734C5.78363 30.9617 5.88436 30.9736 5.97853 31.0083C6.0727 31.0429 6.15776 31.0994 6.22706 31.1733L8.08253 33.1334C8.16028 33.2155 8.25718 33.276 8.3641 33.3092C8.47102 33.3423 8.58443 33.3471 8.69364 33.323C8.80285 33.2989 8.90426 33.2467 8.9883 33.1714C9.07234 33.096 9.13624 33 9.17398 32.8925L13.4134 20.9023L6.58322 18.375L2.34379 30.371C2.30617 30.4783 2.29582 30.5937 2.3137 30.7062C2.33158 30.8187 2.37711 30.9248 2.44602 31.0144C2.51492 31.104 2.60495 31.1742 2.70764 31.2184C2.81034 31.2627 2.92234 31.2795 3.03313 31.2673Z" fill="#3A3A3A"/>
<path d="M15.6905 24.218C20.7807 22.0405 23.1818 16.0533 21.0536 10.8453C18.9254 5.63732 13.0737 3.18059 7.9836 5.35808C2.89346 7.53558 0.492343 13.5227 2.62055 18.7307C4.74876 23.9387 10.6004 26.3955 15.6905 24.218Z" fill="#CCF900"/>
<path d="M14.3105 20.9996C17.6628 19.602 19.2731 15.6885 17.9071 12.2585C16.5411 8.8286 12.7161 7.1811 9.36382 8.57873C6.01152 9.97637 4.40131 13.8899 5.76731 17.3198C7.13331 20.7497 10.9582 22.3972 14.3105 20.9996Z" fill="#3A3A3A"/>
<path d="M11.8367 20.0441C14.673 20.0441 16.9723 17.6916 16.9723 14.7897C16.9723 11.8877 14.673 9.53516 11.8367 9.53516C9.00044 9.53516 6.70117 11.8877 6.70117 14.7897C6.70117 17.6916 9.00044 20.0441 11.8367 20.0441Z" stroke="#CCF900" stroke-width="0.9" stroke-miterlimit="10"/>
<path d="M8.92725 6.73668H14.755L12.71 4.0154C12.6076 3.88161 12.4768 3.77342 12.3276 3.69901C12.1783 3.62461 12.0144 3.58594 11.8483 3.58594C11.6823 3.58594 11.5184 3.62461 11.3691 3.69901C11.2198 3.77342 11.089 3.88161 10.9866 4.0154L8.92725 6.73668Z" fill="#CCF900"/>
<path d="M14.7002 6.71332L19.1407 10.5778L19.3044 7.14826C19.3129 6.97642 19.2827 6.80488 19.2162 6.64689C19.1496 6.48889 19.0484 6.34867 18.9204 6.23705C18.7924 6.12543 18.6411 6.0454 18.4781 6.00314C18.3151 5.96088 18.1448 5.95752 17.9803 5.99332L14.7002 6.71332Z" fill="#CCF900"/>
<path d="M19.1123 10.5234L20.0544 16.401L22.3522 13.8971C22.4682 13.7712 22.5542 13.6195 22.6034 13.4539C22.6527 13.2883 22.6638 13.1133 22.636 12.9426C22.6082 12.7719 22.5422 12.6101 22.4431 12.4698C22.3441 12.3295 22.2146 12.2145 22.065 12.1339L19.1123 10.5234Z" fill="#CCF900"/>
<path d="M20.0658 16.3477L17.0586 21.4523L20.3933 21.0673C20.5602 21.0477 20.7206 20.989 20.8619 20.896C21.0032 20.8029 21.1217 20.6778 21.2083 20.5304C21.2949 20.383 21.3473 20.2173 21.3613 20.0459C21.3754 19.8746 21.3508 19.7022 21.2894 19.5421L20.0658 16.3477Z" fill="#CCF900"/>
<path d="M17.1073 21.418L11.584 23.3193L14.3614 25.2325C14.5008 25.3283 14.6598 25.39 14.8262 25.4128C14.9926 25.4357 15.162 25.419 15.3211 25.3642C15.4802 25.3094 15.6248 25.2178 15.7438 25.0966C15.8628 24.9754 15.9529 24.8278 16.0072 24.6653L17.1073 21.418Z" fill="#CCF900"/>
<path d="M11.6413 23.3232L6.22998 21.1133L7.14335 24.4164C7.18886 24.582 7.27101 24.7345 7.38343 24.8623C7.49584 24.9901 7.63552 25.0897 7.79161 25.1533C7.94771 25.217 8.11604 25.243 8.28355 25.2294C8.45106 25.2157 8.61325 25.1628 8.75755 25.0747L11.6413 23.3232Z" fill="#CCF900"/>
<path d="M6.27312 21.1579L3.54737 15.8828L2.15146 19.0038C2.08287 19.16 2.05015 19.3303 2.0558 19.5015C2.06145 19.6727 2.10532 19.8403 2.18406 19.9915C2.26279 20.1427 2.3743 20.2735 2.51003 20.3737C2.64577 20.474 2.80215 20.5412 2.96717 20.5701L6.27312 21.1579Z" fill="#CCF900"/>
<path d="M3.55311 15.9428L4.81116 10.1211L1.77232 11.5905C1.62042 11.6637 1.48696 11.7715 1.38223 11.9058C1.27749 12.0401 1.20427 12.1971 1.1682 12.3649C1.13213 12.5327 1.13417 12.7067 1.17417 12.8736C1.21418 13.0404 1.29107 13.1956 1.39893 13.3273L3.55311 15.9428Z" fill="#CCF900"/>
<path d="M4.77979 10.1722L9.42133 6.56635L6.18431 5.66416C6.02224 5.61917 5.85223 5.61285 5.68739 5.64569C5.52255 5.67852 5.36728 5.74963 5.23353 5.85354C5.09979 5.95745 4.99114 6.09139 4.91596 6.24503C4.84078 6.39867 4.80107 6.56792 4.79989 6.73974L4.77979 10.1722Z" fill="#CCF900"/>
<path d="M11.7017 6.17296L17.179 8.21246L16.168 4.93574C16.1172 4.77185 16.0303 4.62207 15.914 4.49797C15.7977 4.37387 15.6551 4.27877 15.4972 4.21999C15.3393 4.16121 15.1703 4.14032 15.0032 4.15895C14.8362 4.17758 14.6755 4.23522 14.5337 4.32742L11.7017 6.17296Z" fill="#CCF900"/>
<path d="M17.1333 8.16797L20.0055 13.349L21.3038 10.1869C21.3693 10.0283 21.3983 9.85646 21.3883 9.68461C21.3784 9.51276 21.3299 9.34556 21.2465 9.19602C21.1631 9.04648 21.0472 8.91862 20.9077 8.82238C20.7682 8.72614 20.6089 8.66411 20.4421 8.64111L17.1333 8.16797Z" fill="#CCF900"/>
<path d="M20.0053 13.2891L18.9253 19.1489L21.9182 17.5973C22.0704 17.5199 22.2031 17.4075 22.3056 17.2687C22.4081 17.13 22.4777 16.9687 22.5089 16.7977C22.5401 16.6268 22.532 16.4507 22.4853 16.2835C22.4386 16.1162 22.3546 15.9624 22.2399 15.834L20.0053 13.2891Z" fill="#CCF900"/>
<path d="M18.9571 19.1016L14.4219 22.8426L17.6847 23.6449C17.8483 23.685 18.0186 23.6862 18.1827 23.6482C18.3467 23.6103 18.5 23.5343 18.6308 23.4261C18.7615 23.3178 18.8662 23.1803 18.9367 23.0241C19.0073 22.8679 19.0418 22.6972 19.0376 22.5252L18.9571 19.1016Z" fill="#CCF900"/>
<path d="M14.4792 22.8266L8.6543 22.6797L10.6275 25.4509C10.7266 25.5874 10.8547 25.699 11.0022 25.7773C11.1497 25.8555 11.3126 25.8984 11.4787 25.9027C11.6448 25.9069 11.8096 25.8724 11.9607 25.8018C12.1119 25.7311 12.2453 25.6262 12.3509 25.495L14.4792 22.8266Z" fill="#CCF900"/>
<path d="M8.70873 22.7007L4.36016 18.7305L4.11601 22.1541C4.10418 22.3249 4.13089 22.4962 4.1941 22.6548C4.2573 22.8134 4.3553 22.9549 4.48051 23.0686C4.60573 23.1822 4.7548 23.2648 4.91622 23.3101C5.07763 23.3554 5.24706 23.362 5.4114 23.3296L8.70873 22.7007Z" fill="#CCF900"/>
<path d="M4.38911 18.7858L3.58775 12.8789L1.23539 15.3269C1.11684 15.4492 1.02746 15.5978 0.974199 15.7611C0.920936 15.9245 0.905226 16.0983 0.928292 16.2689C0.951357 16.4395 1.01258 16.6023 1.10719 16.7448C1.2018 16.8872 1.32725 17.0054 1.47378 17.0901L4.38911 18.7858Z" fill="#CCF900"/>
<path d="M3.57338 12.9315L6.70125 7.90625L3.36084 8.20013C3.19342 8.21544 3.03167 8.2699 2.88809 8.35931C2.74451 8.44873 2.62292 8.5707 2.53271 8.71581C2.44251 8.86093 2.38609 9.02531 2.36783 9.19627C2.34956 9.36723 2.36993 9.5402 2.42736 9.70183L3.57338 12.9315Z" fill="#CCF900"/>
<path d="M6.65527 7.9339L12.2217 6.17064L9.47869 4.19874C9.34162 4.09922 9.18399 4.03334 9.01802 4.00621C8.85205 3.97908 8.6822 3.99143 8.52165 4.0423C8.3611 4.09317 8.21416 4.1812 8.09222 4.29956C7.97029 4.41791 7.87664 4.56341 7.81853 4.72477L6.65527 7.9339Z" fill="#CCF900"/>
</g>
<defs>
<clipPath id="clip0_6104_5569">
<rect width="75" height="50" fill="white"/>
</clipPath>
</defs>
</svg>
