<svg width="73" height="61" viewBox="0 0 73 61" fill="none" xmlns="http://www.w3.org/2000/svg">
<g opacity="0.8" clip-path="url(#clip0_6104_5611)">
<path d="M70.7685 30.0443L68.7573 33.0926C69.806 31.5028 67.6732 27.8186 61.5561 23.814C61.3687 23.6903 61.1762 23.5667 60.9811 23.443C60.8976 23.39 60.814 23.3345 60.7329 23.2866L62.7441 20.2383C62.8251 20.2862 62.9087 20.3392 62.9923 20.3947C63.1874 20.5184 63.3799 20.642 63.5673 20.7657C69.6869 24.7703 71.8172 28.4545 70.7685 30.0443Z" fill="#FFC727"/>
<path d="M69.9733 29.3478L67.9621 32.3961C68.9677 30.872 66.9236 27.3367 61.0522 23.496C60.9458 23.4279 60.8369 23.3572 60.7305 23.2866L62.7416 20.2383C62.8506 20.3089 62.9595 20.3771 63.0633 20.4477C68.9347 24.2884 70.9788 27.8237 69.9733 29.3478Z" fill="#FFC727"/>
<path d="M60.5734 24.3072C60.5734 24.3072 60.5684 24.3047 60.5684 24.3022C61.2396 23.2853 61.9083 22.2683 62.5795 21.2539C62.5795 21.2539 62.5846 21.2564 62.5846 21.259C61.9818 22.175 61.1763 23.3938 60.5734 24.3072Z" fill="#FFC727"/>
<path d="M60.566 24.3023C60.3507 24.1635 60.1405 24.1055 60.0898 24.1685L62.101 21.1202C62.1491 21.0546 62.3619 21.1152 62.5772 21.254C62.5063 21.36 62.4126 21.5038 62.3416 21.6098C62.2682 21.7233 62.1669 21.8748 62.0934 21.9883C62.0149 22.1069 61.9136 22.2634 61.8351 22.3794C61.7565 22.498 61.6502 22.6595 61.5716 22.7781C61.4931 22.8967 61.3867 23.0582 61.3082 23.1768C61.2297 23.2954 61.1284 23.4519 61.0498 23.568C60.9764 23.6815 60.8751 23.8329 60.8016 23.9465C60.7307 24.0525 60.637 24.1963 60.566 24.3023Z" fill="#FFC727"/>
<path d="M62.8809 21.6324L60.8697 24.6807C60.9153 24.6126 60.7785 24.441 60.5708 24.3022L62.582 21.2539C62.7897 21.3927 62.9265 21.5643 62.8809 21.6324Z" fill="#FFC727"/>
<path d="M62.8809 21.6367L60.8697 24.6875L60.7178 24.8894L62.7289 21.8411L62.8809 21.6367Z" fill="#FFC727"/>
<path d="M62.8813 21.6328L60.8727 24.6836L60.8701 24.6861L62.8813 21.6353V21.6328Z" fill="#FFC727"/>
<path d="M62.1009 21.1211L60.0897 24.1719L59.9453 24.3637L61.9565 21.3154L62.1009 21.1211Z" fill="#FFC727"/>
<path d="M59.9452 24.3637C59.3069 23.9474 58.699 23.6092 58.1519 23.3569C58.8231 22.3399 59.4918 21.323 60.163 20.3086C60.7101 20.5609 61.3181 20.8991 61.9564 21.3154C61.3535 22.2314 60.548 23.4502 59.9452 24.3637Z" fill="#FFC727"/>
<path d="M58.286 23.1041C58.9041 22.1679 59.5196 21.2317 60.1376 20.293C60.1452 20.2955 60.1528 20.3005 60.163 20.3031C60.092 20.409 59.9983 20.5529 59.9274 20.6589C59.8539 20.7724 59.7526 20.9238 59.6792 21.0374C59.6007 21.156 59.4993 21.3124 59.4208 21.4285C59.3423 21.5471 59.2359 21.7086 59.1574 21.8272C59.0789 21.9458 58.9725 22.1073 58.894 22.2259C58.8154 22.3445 58.7141 22.501 58.6356 22.617C58.5621 22.7306 58.4608 22.882 58.3874 22.9955C58.3164 23.1015 58.2227 23.2454 58.1518 23.3514C58.1442 23.3488 58.1366 23.3438 58.1265 23.3413C58.1797 23.2605 58.2329 23.1823 58.2835 23.1015L58.286 23.1041Z" fill="#FFC727"/>
<path d="M65.3557 24.116L63.3445 27.1643C62.6176 26.3769 61.8653 25.6956 60.7153 24.8881L62.7265 21.8398C63.8739 22.6473 64.6288 23.3287 65.3557 24.116Z" fill="#FFC727"/>
<path d="M58.1269 23.3459C57.4835 23.0507 56.9313 22.8766 56.521 22.8413C57.1922 21.8243 57.8609 20.8074 58.5322 19.793C58.9425 19.8283 59.4972 20.0024 60.1381 20.2977C60.0899 20.3708 60.0266 20.4667 59.9785 20.5374C59.9532 20.5752 59.9202 20.6257 59.8949 20.6635C59.8442 20.7418 59.7759 20.8452 59.7227 20.9235C59.6973 20.9638 59.6619 21.0168 59.634 21.0572C59.5808 21.138 59.5099 21.2465 59.4567 21.3272C59.4288 21.3676 59.3934 21.4206 59.368 21.4635C59.3149 21.5442 59.2439 21.6502 59.1907 21.731C59.1654 21.7713 59.1299 21.8218 59.1046 21.8622C59.054 21.9379 58.9881 22.0413 58.9374 22.117C58.9121 22.1549 58.8817 22.2028 58.8564 22.2407C58.8235 22.2886 58.7829 22.3542 58.75 22.4022C58.7424 22.4148 58.7297 22.4325 58.7221 22.4451C58.7044 22.4728 58.6816 22.5082 58.6639 22.5359C58.6538 22.5511 58.6436 22.5687 58.6335 22.5813C58.6158 22.6091 58.5904 22.647 58.5702 22.6747C58.56 22.6899 58.5474 22.7075 58.5398 22.7227C58.5195 22.7504 58.4942 22.7908 58.4764 22.8185C58.4663 22.8337 58.4536 22.8514 58.4435 22.8665C58.4233 22.8968 58.3979 22.9346 58.3802 22.9624C58.3701 22.9775 58.3574 22.9952 58.3473 23.0103C58.3295 23.0381 58.3042 23.0759 58.2839 23.1062C58.2814 23.1113 58.2763 23.1163 58.2738 23.1214C58.2687 23.1315 58.2586 23.1441 58.2535 23.1516C58.251 23.1567 58.2459 23.1617 58.2434 23.1668C58.2383 23.1769 58.2282 23.1895 58.2231 23.1971C58.2206 23.2021 58.2156 23.2072 58.213 23.2122C58.208 23.2223 58.2004 23.2324 58.1928 23.2425C58.1902 23.2475 58.1852 23.2526 58.1826 23.2576C58.1776 23.2652 58.17 23.2778 58.1624 23.2879C58.1598 23.2929 58.1548 23.298 58.1522 23.303C58.1472 23.3106 58.1396 23.3232 58.1345 23.3308C58.132 23.3358 58.1269 23.3409 58.1244 23.3459H58.1269Z" fill="#FFC727"/>
<path d="M56.5513 22.7807C57.2073 21.7839 57.8633 20.7872 58.5219 19.793C58.5244 19.793 58.5295 19.793 58.532 19.793C57.8608 20.8099 57.1921 21.8268 56.5209 22.8413C56.5183 22.8413 56.5133 22.8413 56.5107 22.8413C56.5234 22.8211 56.5386 22.8009 56.5513 22.7807Z" fill="#FFC727"/>
<path d="M65.5003 24.3872L63.4891 27.4355C63.5246 27.3825 63.4663 27.2992 63.3447 27.1655L65.3559 24.1172C65.4775 24.2509 65.5332 24.3342 65.5003 24.3872Z" fill="#FFC727"/>
<path d="M64.7175 24.0028L62.7063 27.0511C62.0554 26.3243 61.3537 25.7061 60.5103 25.103L62.5214 22.0547C63.3624 22.6578 64.064 23.2735 64.7175 24.0028Z" fill="#FFC727"/>
<path d="M56.5107 22.8399C56.4018 22.8298 56.3005 22.8323 56.2144 22.8424C56.8856 21.8255 57.5543 20.8085 58.2255 19.7941C58.3142 19.784 58.413 19.7815 58.5219 19.7916C58.5016 19.8244 58.4738 19.8648 58.4535 19.8976C58.4434 19.9152 58.4282 19.9354 58.418 19.9531C58.3952 19.9884 58.3648 20.0338 58.342 20.0666C58.3294 20.0843 58.3142 20.107 58.304 20.1247C58.2813 20.16 58.2483 20.2079 58.2255 20.2433C58.2129 20.2609 58.1977 20.2836 58.1875 20.3013C58.1647 20.3366 58.1343 20.3846 58.109 20.4199C58.0989 20.4376 58.0811 20.4603 58.071 20.478C57.7949 20.8968 57.5188 21.3157 57.2427 21.7321C57.1895 21.8128 57.1161 21.9239 57.0629 22.0046C57.035 22.045 56.9996 22.098 56.9742 22.1384C56.9211 22.2166 56.8527 22.3226 56.7995 22.4033C56.7741 22.4412 56.7412 22.4942 56.7159 22.532C56.6678 22.6052 56.6019 22.7036 56.5538 22.7793V22.7818C56.5538 22.7818 56.5512 22.7869 56.5487 22.7894C56.5487 22.7894 56.5487 22.7919 56.5487 22.7944C56.5487 22.7944 56.5462 22.7995 56.5436 22.802C56.5436 22.802 56.5436 22.8045 56.5436 22.8071C56.5436 22.8071 56.5411 22.8121 56.5386 22.8146C56.5386 22.8146 56.5386 22.8172 56.5386 22.8197C56.5386 22.8197 56.536 22.8247 56.5335 22.8273C56.5335 22.8273 56.5335 22.8298 56.5335 22.8323C56.5335 22.8323 56.531 22.8373 56.5284 22.8399V22.8424L56.5107 22.8399Z" fill="#FFC727"/>
<path d="M65.4999 24.3875L63.4887 27.4358C63.4355 27.5064 63.205 27.4358 62.9796 27.2869C62.8707 27.2162 62.7972 27.1582 62.7061 27.0522L64.7172 24.0039C64.8084 24.1099 64.8819 24.1679 64.9908 24.2386C65.2162 24.3849 65.4493 24.4581 65.4999 24.3875Z" fill="#FFC727"/>
<path d="M56.2142 22.8413C56.1863 22.8438 56.161 22.8488 56.1382 22.8539C56.8094 21.8369 57.4781 20.82 58.1494 19.8056C58.1747 19.8005 58.2 19.7955 58.2253 19.793C58.1544 19.899 58.0607 20.0428 57.9898 20.1488C57.9163 20.2623 57.815 20.4137 57.7415 20.5273C57.663 20.6459 57.5617 20.8023 57.4832 20.9184C57.4047 21.037 57.2983 21.1985 57.2198 21.3171C56.8854 21.8243 56.5485 22.334 56.2142 22.8413Z" fill="#FFC727"/>
<path d="M56.6777 23.5738L58.6889 20.5255C58.6889 20.5255 58.699 20.5129 58.7041 20.5053C58.9751 20.1394 60.2366 20.5306 61.8222 21.5677L59.811 24.616C58.2254 23.5789 56.964 23.1877 56.6929 23.5536C56.6879 23.5612 56.6828 23.5662 56.6777 23.5738Z" fill="#FFC727"/>
<path d="M55.8468 23.026C55.8468 23.026 55.8342 23.0436 55.8291 23.0512L57.8403 20.0029C57.8403 20.0029 57.8504 19.9852 57.858 19.9777C57.9213 19.8944 58.0176 19.8364 58.1493 19.8086C58.0784 19.9146 57.9847 20.0584 57.9137 20.1644C57.8403 20.278 57.739 20.4294 57.6655 20.5429C57.587 20.6615 57.4857 20.818 57.4071 20.934C57.3286 21.0526 57.2222 21.2141 57.1437 21.3327C57.0652 21.4513 56.9588 21.6128 56.8803 21.7314C56.8018 21.85 56.7004 22.0065 56.6219 22.1226C56.5485 22.2361 56.4471 22.3875 56.3737 22.5011C56.3028 22.6071 56.209 22.7509 56.1381 22.8569C56.0089 22.8846 55.9102 22.9402 55.8468 23.026Z" fill="#FFC727"/>
<path d="M56.6777 23.5717L58.6889 20.5234C58.4584 20.8717 58.8459 21.4394 60.7862 22.956L58.775 26.0043C56.8347 24.4877 56.4497 23.92 56.6777 23.5717Z" fill="#FFC727"/>
<path d="M61.8196 21.5664L59.8084 24.6147L58.7725 26.0076L60.7836 22.9568L61.8196 21.5664Z" fill="#FFC727"/>
<path d="M61.8199 21.5677L60.7839 22.9581C58.8057 21.4112 58.4435 20.851 58.7018 20.5053C58.9728 20.1394 60.2343 20.5306 61.8199 21.5677Z" fill="#FFC727"/>
<path d="M62.5216 22.0547L60.513 25.103L59.4517 26.5312L61.4628 23.4804L62.5216 22.0547Z" fill="#FFC727"/>
<path d="M55.8294 23.0483L57.8406 20C57.5012 20.5123 58.3142 21.4636 60.5939 23.2199L58.5827 26.2682C56.3056 24.5119 55.4925 23.5631 55.8294 23.0483Z" fill="#FFC727"/>
<path d="M61.7415 28.5085C61.2729 27.9962 60.5206 27.3503 59.4517 26.5327L61.4628 23.4844C62.5292 24.302 63.2815 24.9505 63.7526 25.4602C63.6817 25.5662 63.588 25.71 63.5171 25.816C63.4436 25.9296 63.3423 26.081 63.2688 26.1945C63.1903 26.3131 63.089 26.4696 63.0105 26.5857C62.9319 26.7043 62.8256 26.8658 62.747 26.9844C62.4127 27.4916 62.0758 28.0013 61.7415 28.5085Z" fill="#FFC727"/>
<path d="M61.7944 28.5673C61.7767 28.5471 61.7589 28.5294 61.7412 28.5092C62.4124 27.4923 63.0811 26.4754 63.7524 25.4609C63.7701 25.4811 63.7878 25.5013 63.8056 25.519C63.7726 25.5694 63.7296 25.6351 63.6967 25.683C63.6789 25.7082 63.6561 25.7436 63.6409 25.7688C63.6055 25.8218 63.5599 25.8924 63.5244 25.9454C63.5067 25.9732 63.4839 26.0085 63.4636 26.0363C63.4282 26.0918 63.38 26.165 63.342 26.2205C63.3243 26.2482 63.299 26.2861 63.2813 26.3139C63.2433 26.3694 63.1951 26.4451 63.1597 26.5006C63.1419 26.5283 63.1166 26.5662 63.0989 26.594C63.0634 26.6495 63.0128 26.7226 62.9773 26.7782C62.9596 26.8059 62.9368 26.8412 62.9165 26.869C62.8937 26.9018 62.8658 26.9472 62.8431 26.98C62.838 26.9876 62.8329 26.9952 62.8279 27.0027C62.8203 27.0154 62.8076 27.033 62.8 27.0456C62.7949 27.0532 62.7899 27.0608 62.7848 27.0684C62.7772 27.081 62.7645 27.0986 62.7569 27.1113C62.7519 27.1188 62.7468 27.1264 62.7417 27.1314C62.7341 27.1441 62.7215 27.1617 62.7139 27.1743C62.7088 27.1819 62.7037 27.1895 62.7012 27.1945C62.6936 27.2071 62.6809 27.2248 62.6733 27.2349C62.6683 27.2399 62.6632 27.25 62.6607 27.2551C62.6531 27.2677 62.6429 27.2828 62.6328 27.2955C62.6176 27.3182 62.5999 27.3459 62.5847 27.3686C62.5543 27.4141 62.5138 27.4771 62.4834 27.5226C62.4682 27.5453 62.4454 27.5781 62.4302 27.6033C62.3972 27.6513 62.3542 27.7169 62.3213 27.7673C62.3061 27.7926 62.2833 27.8254 62.2655 27.8506C62.2326 27.9011 62.1895 27.9667 62.1566 28.0172C62.1414 28.0424 62.1186 28.0752 62.1009 28.1004C62.068 28.1484 62.0249 28.214 61.992 28.2645C61.9768 28.2872 61.954 28.32 61.9388 28.3452C61.9084 28.3906 61.8679 28.4537 61.8375 28.4991C61.8223 28.5218 61.8045 28.5496 61.7893 28.5723L61.7944 28.5673Z" fill="#FFC727"/>
<path d="M62.6329 27.296C63.023 26.703 63.4131 26.11 63.8032 25.5195C63.9678 25.7037 64.097 25.8728 64.1856 26.0217C64.1147 26.1277 64.021 26.2715 63.9501 26.3775C63.9121 26.433 63.864 26.5087 63.826 26.5642C63.75 26.6803 63.6487 26.8342 63.5727 26.9503C63.5347 27.0083 63.4815 27.0891 63.4435 27.1471C63.0205 27.7881 62.5975 28.429 62.1745 29.07C62.0858 28.9211 61.9566 28.7546 61.792 28.5678C62.0706 28.1439 62.3518 27.72 62.6304 27.296H62.6329Z" fill="#FFC727"/>
<path d="M62.2198 29.146C62.2072 29.1208 62.192 29.0956 62.1768 29.0678C62.848 28.0509 63.5167 27.0339 64.1879 26.0195C64.2031 26.0448 64.2183 26.0725 64.231 26.0978C64.1829 26.1684 64.1221 26.2643 64.0739 26.335C64.0233 26.4107 63.9574 26.5116 63.9068 26.5873C63.8561 26.6655 63.7852 26.7715 63.7345 26.8497C63.6813 26.9305 63.6104 27.0365 63.5598 27.1172C63.5066 27.198 63.4356 27.304 63.385 27.3847C63.3343 27.4629 63.2634 27.5689 63.2127 27.6471C63.1621 27.7228 63.0962 27.8238 63.0456 27.8995C62.9974 27.9701 62.9366 28.066 62.8885 28.1367C62.8657 28.172 62.8353 28.22 62.81 28.2553C62.7847 28.2931 62.7517 28.3436 62.7264 28.3815C62.7011 28.4193 62.6656 28.4723 62.6403 28.5101C62.615 28.5505 62.5795 28.6035 62.5542 28.6414C62.5288 28.6817 62.4934 28.7347 62.468 28.7726C62.4427 28.8104 62.4073 28.8634 62.3819 28.9013C62.3566 28.9391 62.3237 28.9896 62.2983 29.0274C62.2755 29.0628 62.2451 29.1107 62.2198 29.146Z" fill="#FFC727"/>
<path d="M62.2197 29.1459C62.891 28.129 63.5597 27.1121 64.2309 26.0977C64.3221 26.2692 64.3601 26.4156 64.3499 26.5418C64.279 26.6478 64.1853 26.7916 64.1144 26.8976C64.0409 27.0111 63.9396 27.1625 63.8662 27.2761C63.7876 27.3947 63.6863 27.5511 63.6078 27.6672C63.5293 27.7858 63.4229 27.9473 63.3444 28.0659C63.2658 28.1845 63.1595 28.346 63.0809 28.4646C63.0024 28.5832 62.9011 28.7397 62.8226 28.8558C62.7491 28.9693 62.6478 29.1207 62.5743 29.2343C62.5034 29.3402 62.4097 29.4841 62.3388 29.5901C62.3489 29.4639 62.3109 29.3175 62.2197 29.1459Z" fill="#FFC727"/>
<path d="M62.2705 29.7931C62.311 29.7326 62.3338 29.6644 62.3389 29.5913C63.0101 28.5743 63.6788 27.5574 64.3501 26.543C64.345 26.6187 64.3197 26.6843 64.2817 26.7448C63.6788 27.6608 62.8734 28.8797 62.2705 29.7931Z" fill="#FFC727"/>
<path d="M63.4356 26.2151L61.4245 29.2634C61.6575 28.9076 61.2244 28.3096 59.2588 26.7905L61.27 23.7422C63.2355 25.2613 63.6687 25.8619 63.4356 26.2151Z" fill="#FFC727"/>
<path d="M63.4359 26.2148L61.4248 29.2631C61.4248 29.2631 61.4172 29.2758 61.4121 29.2808L63.4233 26.2325C63.4233 26.2325 63.4334 26.2199 63.4359 26.2148Z" fill="#FFC727"/>
<path d="M56.6853 22.1046L54.6742 25.1529C54.6387 25.1075 54.5526 25.0192 54.4082 24.9233L56.4194 21.875C56.5638 21.9709 56.6499 22.0592 56.6853 22.1046Z" fill="#FFC727"/>
<path d="M54.4107 24.9286C54.1954 24.7873 53.9573 24.7217 53.9092 24.7848L55.9204 21.7365C55.9685 21.6709 56.204 21.7365 56.4193 21.8778C55.7532 22.8897 55.087 23.9016 54.4183 24.9135C55.0845 23.9016 55.7532 22.8897 56.4193 21.8778C56.4193 21.8778 56.4193 21.8778 56.4219 21.8778C55.819 22.7938 55.0136 24.0126 54.4107 24.9261V24.9286Z" fill="#FFC727"/>
<path d="M59.5148 24.6743L57.5036 27.7226C56.2625 26.8394 55.3886 26.0243 54.6743 25.1538L56.6855 22.1055C57.3998 22.9735 58.2737 23.7911 59.5148 24.6743Z" fill="#FFC727"/>
<path d="M60.5936 23.2188L58.5825 26.2696L57.5034 27.7231L59.5146 24.6748L60.5936 23.2188Z" fill="#FFC727"/>
<path d="M61.2702 23.7422L59.2615 26.793L58.2129 28.1985L60.2241 25.1503L61.2702 23.7422Z" fill="#FFC727"/>
<path d="M63.4232 26.2374L61.412 29.2857C61.1258 29.6743 59.8467 29.268 58.2129 28.2006L60.2241 25.1523C61.8578 26.2172 63.137 26.626 63.4232 26.2374Z" fill="#FFC727"/>
<path d="M63.4233 26.2353C63.137 26.6239 61.8579 26.2177 60.2241 25.1503L61.2702 23.7422C63.2713 25.289 63.6841 25.882 63.4233 26.2353Z" fill="#FFC727"/>
<path d="M59.3072 24.8811L57.2961 27.9294C55.9105 26.9578 54.8771 26.0318 54.0083 25.0098C53.9171 24.9038 53.8766 24.8331 53.907 24.7827L55.9181 21.7344C55.8852 21.7823 55.9283 21.8555 56.0194 21.9615C56.8908 22.9809 57.9242 23.9096 59.3072 24.8811Z" fill="#FFC727"/>
<path d="M64.2818 26.7448L62.2707 29.7931C62.2707 29.7931 62.2605 29.8082 62.2555 29.8133C61.8553 30.3558 60.1227 29.7754 58.0786 28.4506L60.0898 25.4023C62.1364 26.7271 63.869 27.3075 64.2666 26.765C64.2717 26.7574 64.2768 26.7524 64.2818 26.7448Z" fill="#FFC727"/>
<path d="M50.9381 24.2523C50.2567 23.3363 49.8641 22.5187 49.7476 21.8374L51.7587 18.7891C51.8752 19.4704 52.2653 20.288 52.9492 21.204C52.8783 21.31 52.7846 21.4538 52.7137 21.5598C52.6402 21.6733 52.5389 21.8247 52.4654 21.9383C52.3869 22.0569 52.2856 22.2133 52.2071 22.3294C52.1285 22.448 52.0222 22.6095 51.9436 22.7281C51.8651 22.8467 51.7587 23.0082 51.6802 23.1268C51.6017 23.2454 51.5004 23.4019 51.4218 23.5179C51.3484 23.6315 51.2471 23.7829 51.1736 23.8965C51.1027 24.0024 51.009 24.1463 50.9381 24.2523Z" fill="#FFC727"/>
<path d="M59.307 24.8789L57.2983 27.9272L57.002 28.3335L59.0106 25.2827L59.307 24.8789Z" fill="#FFC727"/>
<path d="M56.9995 28.3346L59.0107 25.2838V25.2812L57.002 28.3321L56.9995 28.3346Z" fill="#FFC727"/>
<path d="M60.0873 25.4023L58.0787 28.4506L57.7798 28.8468L59.791 25.7985L60.0873 25.4023Z" fill="#FFC727"/>
<path d="M51.3052 24.7196C51.176 24.5632 51.0544 24.4067 50.9404 24.2553C51.6117 23.2384 52.2804 22.2214 52.9516 21.207C53.0656 21.3584 53.1872 21.5149 53.3163 21.6713C52.6451 22.6883 51.9764 23.7052 51.3052 24.7196Z" fill="#FFC727"/>
<path d="M56.9995 28.3374L59.0107 25.2891C58.9651 25.3572 59.1019 25.5288 59.3096 25.6676L57.2984 28.7159C57.0907 28.5771 56.9539 28.4055 56.9995 28.3374Z" fill="#FFC727"/>
<path d="M59.7908 25.8003L57.7796 28.8486C57.7289 28.9142 57.5086 28.8511 57.2983 28.7124L59.3095 25.6641C59.5223 25.8029 59.7426 25.8659 59.7908 25.8003Z" fill="#FFC727"/>
<path d="M61.4627 23.4823C63.8133 25.284 64.639 26.2631 64.2667 26.7652C63.8665 27.3078 62.1339 26.7274 60.0898 25.4026L59.7935 25.7988C59.7428 25.8644 59.5225 25.8013 59.3122 25.6625C59.102 25.5212 58.9652 25.3496 59.0159 25.2815L59.3122 24.8777C57.9267 23.9062 56.8932 22.9801 56.0244 21.9581C55.9332 21.8521 55.8902 21.7815 55.9231 21.731C55.9712 21.6654 56.2093 21.731 56.417 21.8698C56.569 21.9708 56.6551 22.0591 56.6906 22.1045C57.4049 22.9725 58.2788 23.7901 59.5199 24.6733L60.599 23.2173C58.2838 21.4333 57.4809 20.4819 57.8634 19.9722C58.2458 19.4574 59.9657 20.0101 61.9617 21.3096L62.1061 21.1178C62.1542 21.0522 62.372 21.1128 62.5797 21.2491C62.7976 21.3954 62.9344 21.567 62.8837 21.6351L62.7317 21.837C63.8792 22.6445 64.634 23.3258 65.3609 24.1131C65.4825 24.2469 65.5382 24.3301 65.5053 24.3831C65.4521 24.4538 65.2216 24.3831 64.9962 24.2343C64.8873 24.1636 64.8138 24.1056 64.7226 23.9996C64.0717 23.2703 63.37 22.6546 62.5265 22.0515L61.4652 23.4798L61.4627 23.4823ZM63.4232 26.2353C63.6841 25.882 63.2712 25.289 61.2702 23.7422L60.2241 25.1503C61.8578 26.2151 63.137 26.6239 63.4232 26.2353ZM60.7839 22.9574L61.8199 21.567C60.2342 20.5299 58.9728 20.1387 58.7018 20.5046C58.4434 20.8504 58.8056 21.4131 60.7839 22.9574Z" fill="#FFC727"/>
<g opacity="0.1">
<path d="M61.4627 23.4823C63.8133 25.284 64.639 26.2631 64.2667 26.7652C63.8665 27.3078 62.1339 26.7274 60.0898 25.4026L59.7935 25.7988C59.7428 25.8644 59.5225 25.8013 59.3122 25.6625C59.102 25.5212 58.9652 25.3496 59.0159 25.2815L59.3122 24.8777C57.9267 23.9062 56.8932 22.9801 56.0244 21.9581C55.9332 21.8521 55.8902 21.7815 55.9231 21.731C55.9712 21.6654 56.2093 21.731 56.417 21.8698C56.569 21.9708 56.6551 22.0591 56.6906 22.1045C57.4049 22.9725 58.2788 23.7901 59.5199 24.6733L60.599 23.2173C58.2838 21.4333 57.4809 20.4819 57.8634 19.9722C58.2458 19.4574 59.9657 20.0101 61.9617 21.3096L62.1061 21.1178C62.1542 21.0522 62.372 21.1128 62.5797 21.2491C62.7976 21.3954 62.9344 21.567 62.8837 21.6351L62.7317 21.837C63.8792 22.6445 64.634 23.3258 65.3609 24.1131C65.4825 24.2469 65.5382 24.3301 65.5053 24.3831C65.4521 24.4538 65.2216 24.3831 64.9962 24.2343C64.8873 24.1636 64.8138 24.1056 64.7226 23.9996C64.0717 23.2703 63.37 22.6546 62.5265 22.0515L61.4652 23.4798L61.4627 23.4823ZM63.4232 26.2353C63.6841 25.882 63.2712 25.289 61.2702 23.7422L60.2241 25.1503C61.8578 26.2151 63.137 26.6239 63.4232 26.2353ZM60.7839 22.9574L61.8199 21.567C60.2342 20.5299 58.9728 20.1387 58.7018 20.5046C58.4434 20.8504 58.8056 21.4131 60.7839 22.9574Z" fill="black"/>
</g>
<path d="M51.7181 25.1996C51.5712 25.0381 51.4344 24.8766 51.3027 24.7202C51.3737 24.6142 51.4674 24.4703 51.5383 24.3644C51.5763 24.3088 51.6244 24.2331 51.6624 24.1776C51.7384 24.0616 51.8397 23.9076 51.9157 23.7915C51.9942 23.6729 52.0981 23.514 52.1766 23.3954C52.2171 23.3348 52.2678 23.2566 52.3083 23.196C52.3868 23.0774 52.4932 22.9159 52.5718 22.7973C52.82 22.4213 53.0657 22.0479 53.3139 21.6719C53.4431 21.8309 53.5824 21.9898 53.7293 22.1513C53.395 22.6585 53.0581 23.1683 52.7237 23.6755C52.6452 23.7941 52.5388 23.9556 52.4603 24.0742C52.2121 24.4502 51.9664 24.8236 51.7181 25.1996Z" fill="#FFC727"/>
<path d="M56.8703 29.4349C54.5932 27.9461 52.891 26.5002 51.7183 25.2006C52.3895 24.1837 53.0582 23.1668 53.7294 22.1523C54.9022 23.4519 56.6044 24.8953 58.8815 26.3866C59.0613 26.5052 59.2437 26.6213 59.4311 26.7399C65.2747 30.4317 69.0159 30.8077 69.9759 29.3517L67.9647 32.3999C67.0047 33.856 63.266 33.48 57.42 29.7882C57.2325 29.6696 57.0502 29.5535 56.8703 29.4349Z" fill="#FFC727"/>
<path d="M64.0109 20.1303C78.431 29.5628 74.4771 37.5217 59.4515 28.0336C59.216 27.8847 58.9855 27.7359 58.7575 27.587C44.3374 18.1544 48.2938 10.1931 63.3143 19.6836C63.5499 19.8325 63.7829 19.9814 64.0083 20.1303H64.0109ZM59.7834 27.322C72.2506 35.1976 75.5283 28.5913 63.5676 20.7662C63.3802 20.6425 63.1877 20.5189 62.9926 20.3952C62.909 20.3422 62.8255 20.2867 62.7444 20.2388C62.8533 20.3094 62.9622 20.3776 63.0661 20.4482C74.5429 27.9554 71.397 34.2942 59.4313 26.7341C59.2438 26.6155 59.0615 26.4994 58.8816 26.3808C54.3299 23.4032 52.0705 20.6022 51.7589 18.7853C51.8982 20.6627 54.2362 23.6984 59.2008 26.9435C59.3908 27.0672 59.5858 27.1933 59.7834 27.317M56.4221 21.8714C56.2068 21.7301 55.9687 21.6645 55.9206 21.7276C55.8877 21.7755 55.9307 21.8487 56.0219 21.9547C56.8933 22.9742 57.9267 23.9028 59.3097 24.8743L59.0133 25.2781C58.9627 25.3437 59.0995 25.5178 59.3097 25.6591C59.5225 25.7979 59.7428 25.861 59.791 25.7954L60.0873 25.3992C62.134 26.724 63.8665 27.3044 64.2642 26.7618C64.6365 26.2622 63.8108 25.2806 61.4602 23.4789L62.5215 22.0506C63.3624 22.6537 64.0641 23.2694 64.7176 23.9987C64.8088 24.1047 64.8822 24.1627 64.9835 24.2283C65.2166 24.3822 65.4496 24.4529 65.5028 24.3822C65.5383 24.3292 65.48 24.246 65.3584 24.1122C64.6315 23.3249 63.8792 22.6436 62.7292 21.8361L62.8812 21.6342C62.9318 21.5686 62.7951 21.3945 62.5848 21.2532C62.3695 21.1119 62.1517 21.0513 62.1036 21.1169L61.9592 21.3087C59.9632 20.0092 58.2433 19.454 57.8608 19.9713C57.4784 20.4785 58.2813 21.4298 60.5964 23.2164L59.5174 24.6724C58.2763 23.7892 57.4024 22.9742 56.6881 22.1036C56.6526 22.0582 56.5665 21.9699 56.4221 21.874" fill="#FFC727"/>
<path d="M63.565 20.7649C75.5257 28.59 72.248 35.1988 59.7808 27.3207C59.5832 27.1946 59.3882 27.0709 59.1982 26.9473C54.2361 23.6996 51.8982 20.664 51.7563 18.7891C52.0679 20.6034 54.3248 23.4044 58.879 26.3846C59.0589 26.5032 59.2413 26.6192 59.4287 26.7378C71.3919 34.298 74.5404 27.9592 63.0635 20.452C62.9571 20.3839 62.8482 20.3132 62.7418 20.2426C62.8229 20.2905 62.9064 20.3435 62.99 20.399C63.1851 20.5227 63.3776 20.6463 63.565 20.7699V20.7649Z" fill="#FFC727"/>
<g opacity="0.1">
<path d="M63.565 20.7649C75.5257 28.59 72.248 35.1988 59.7808 27.3207C59.5832 27.1946 59.3882 27.0709 59.1982 26.9473C54.2361 23.6996 51.8982 20.664 51.7563 18.7891C52.0679 20.6034 54.3248 23.4044 58.879 26.3846C59.0589 26.5032 59.2413 26.6192 59.4287 26.7378C71.3919 34.298 74.5404 27.9592 63.0635 20.452C62.9571 20.3839 62.8482 20.3132 62.7418 20.2426C62.8229 20.2905 62.9064 20.3435 62.99 20.399C63.1851 20.5227 63.3776 20.6463 63.565 20.7699V20.7649Z" fill="black"/>
</g>
<path d="M72.6912 31.3121L70.6801 34.3604C69.4744 36.1898 64.7782 35.7154 57.4403 31.0824C57.2047 30.9336 56.9717 30.7847 56.7462 30.6358C49.3702 25.811 46.8018 21.3698 48.0632 19.4545L50.0744 16.4062C48.813 18.3215 51.3789 22.7627 58.7574 27.5875C58.9828 27.7364 59.2159 27.8853 59.4514 28.0342C66.7894 32.6697 71.4855 33.1416 72.6912 31.3121Z" fill="#FFC727"/>
<g opacity="0.1">
<path d="M72.6912 31.3121L70.6801 34.3604C69.4744 36.1898 64.7782 35.7154 57.4403 31.0824C57.2047 30.9336 56.9717 30.7847 56.7462 30.6358C49.3702 25.811 46.8018 21.3698 48.0632 19.4545L50.0744 16.4062C48.813 18.3215 51.3789 22.7627 58.7574 27.5875C58.9828 27.7364 59.2159 27.8853 59.4514 28.0342C66.7894 32.6697 71.4855 33.1416 72.6912 31.3121Z" fill="black"/>
</g>
<path d="M29.5846 8.51645C29.5213 8.56188 29.4554 8.60477 29.3972 8.6502L28.0269 6.34379C28.0851 6.29837 28.151 6.25547 28.2143 6.21005C28.3637 6.10407 28.5107 6.00313 28.6576 5.90472C30.4129 4.72628 32.0771 3.97683 33.5614 3.57812C34.0173 4.34777 34.4758 5.11489 34.9317 5.88453C33.4474 6.28323 31.7832 7.03268 30.0304 8.21112C29.8835 8.30953 29.7366 8.41047 29.5872 8.51645H29.5846Z" fill="#FFC727"/>
<path d="M40.9168 7.0705C40.091 5.68262 37.8645 5.09466 34.9314 5.88197C34.4754 5.11233 34.017 4.34521 33.561 3.57557C36.4942 2.78826 38.7207 3.37622 39.5464 4.7641C39.9568 5.45551 40.5064 6.37908 40.9168 7.0705Z" fill="#FFC727"/>
<path d="M38.7236 5.081L40.0939 7.3874C38.9009 5.38129 34.6582 5.11633 29.648 8.48004C29.5644 8.53556 29.4808 8.5936 29.3972 8.65164L28.0269 6.34523C28.1104 6.28719 28.194 6.23168 28.2776 6.17364C33.2878 2.80992 37.5305 3.07488 38.7236 5.081Z" fill="#FFC727"/>
<path d="M30.4687 9.26344C30.4687 9.26344 30.4661 9.26344 30.4636 9.26596C30.0077 8.49632 29.5492 7.7292 29.0933 6.95955C29.0933 6.95955 29.0958 6.95955 29.0983 6.95703C29.5087 7.64845 30.0583 8.57202 30.4687 9.26344Z" fill="#FFC727"/>
<path d="M29.5313 6.88678L30.9016 9.19318C30.8358 9.12001 30.6357 9.15281 30.4685 9.26384L29.0981 6.95744C29.2653 6.84641 29.4654 6.8136 29.5313 6.88678Z" fill="#FFC727"/>
<path d="M29.1081 7.50494L30.4785 9.81134L30.2834 9.59937L28.9131 7.29297L29.1081 7.50494Z" fill="#FFC727"/>
<path d="M30.4636 9.26734C30.3091 9.37333 30.228 9.50959 30.2736 9.58277L28.9033 7.27636C28.8602 7.20319 28.9388 7.06692 29.0933 6.96094C29.5492 7.73058 30.0077 8.4977 30.4636 9.26734Z" fill="#FFC727"/>
<path d="M30.2707 9.58375L28.9004 7.27734C28.9004 7.27734 28.908 7.28744 28.9131 7.29248L30.2834 9.59889C30.2834 9.59889 30.2733 9.5888 30.2707 9.58375Z" fill="#FFC727"/>
<path d="M29.7339 7.10878L31.1042 9.41518L30.9016 9.19312L29.5312 6.88672L29.7339 7.10878Z" fill="#FFC727"/>
<path d="M30.4787 9.81031C29.9822 10.1459 29.5668 10.4942 29.2502 10.8323C28.7943 10.0627 28.3358 9.29553 27.8799 8.52589C28.1965 8.18775 28.6094 7.83952 29.1084 7.50391C29.5187 8.19532 30.0684 9.11637 30.4787 9.81031Z" fill="#FFC727"/>
<path d="M29.1211 10.6571C28.7032 9.95307 28.2827 9.24904 27.8647 8.54248C27.8698 8.53744 27.8749 8.53239 27.8799 8.52734C28.3359 9.29699 28.7943 10.0641 29.2503 10.8337C29.2452 10.8388 29.2401 10.8438 29.2351 10.8489C29.23 10.8413 29.2249 10.8337 29.2224 10.8262C29.2173 10.8186 29.2123 10.811 29.2097 10.8035C29.1996 10.7883 29.192 10.7707 29.1819 10.7555C29.1616 10.7227 29.1439 10.6899 29.1236 10.6571H29.1211Z" fill="#FFC727"/>
<path d="M32.3858 5.99219L33.7561 8.29859C32.8544 8.53327 32.0641 8.8386 31.1067 9.41647L29.7363 7.11006C30.6938 6.53472 31.4866 6.22687 32.3858 5.99219Z" fill="#FFC727"/>
<path d="M34.0524 8.30741C34.0018 8.25189 33.9081 8.25946 33.7561 8.29731L32.3857 5.99091C32.5377 5.95306 32.634 5.94549 32.6821 6.001C33.138 6.77065 33.5965 7.53776 34.0524 8.30741Z" fill="#FFC727"/>
<path d="M34.0655 8.32154C34.0655 8.32154 34.0579 8.31145 34.0554 8.3064C33.5995 7.53676 33.141 6.76964 32.6851 6C32.6901 6.00505 32.6927 6.01009 32.6952 6.01514C33.1055 6.70656 33.6552 7.63013 34.0655 8.32154Z" fill="#FFC727"/>
<path d="M32.2112 6.47266L33.5816 8.77906C32.7482 8.97841 32.0289 9.27365 31.3171 9.69001L29.9468 7.38361C30.6585 6.96977 31.3779 6.67201 32.2112 6.47266Z" fill="#FFC727"/>
<path d="M32.6922 6.01953L34.0625 8.32594C34.1107 8.40668 34.0195 8.55304 33.8548 8.66407C33.7712 8.71959 33.7029 8.75492 33.5813 8.78015L32.2109 6.47375C32.3325 6.44851 32.4009 6.41318 32.4845 6.35767C32.6491 6.24664 32.7429 6.10028 32.6922 6.01953Z" fill="#FFC727"/>
<path d="M29.2349 10.8494C28.8676 11.2456 28.6371 11.6241 28.5637 11.9496C28.1078 11.1799 27.6493 10.4128 27.1934 9.64318C27.2668 9.32018 27.4973 8.93915 27.8646 8.54297C28.3205 9.31261 28.779 10.0797 29.2349 10.8494Z" fill="#FFC727"/>
<path d="M28.541 11.9167C28.0901 11.1597 27.6418 10.4052 27.1909 9.64819C27.1909 9.64819 27.1909 9.64315 27.1909 9.64062C27.6469 10.4103 28.1053 11.1774 28.5613 11.947V11.9521C28.5537 11.9395 28.5461 11.9268 28.5385 11.9142L28.541 11.9167Z" fill="#FFC727"/>
<path d="M29.288 12.071L27.9177 9.76459C27.6644 9.33813 28.1989 8.52559 29.3666 7.73828L30.7369 10.0447C29.5692 10.832 29.0347 11.6445 29.288 12.071Z" fill="#FFC727"/>
<path d="M28.5638 11.9548C28.5182 12.1618 28.5385 12.346 28.6271 12.4949L27.2568 10.1884C27.1682 10.037 27.1479 9.85283 27.1935 9.64844C27.4848 10.1405 27.7786 10.63 28.0699 11.1221C28.2295 11.3896 28.3891 11.6571 28.5486 11.9246C28.5537 11.9347 28.5638 11.9422 28.5664 11.9523L28.5638 11.9548Z" fill="#FFC727"/>
<path d="M29.3665 7.73828L30.7672 9.2599C28.946 10.181 28.3204 10.2163 27.9708 9.83776C27.601 9.43654 28.1253 8.57353 29.3665 7.73828Z" fill="#FFC727"/>
<path d="M30.7649 9.2599L32.1378 11.5638L30.737 10.0422L29.3667 7.73828L30.7649 9.2599Z" fill="#FFC727"/>
<path d="M29.2883 12.0689L27.918 9.7625C27.9332 9.78773 27.9509 9.81296 27.9712 9.83568C28.3207 10.2142 28.9464 10.1789 30.7676 9.25781L32.1379 11.5642C30.3167 12.4853 29.691 12.5206 29.3415 12.1421C29.3212 12.1194 29.3035 12.0941 29.2883 12.0689Z" fill="#FFC727"/>
<path d="M31.383 8.94228L32.7558 11.2462L31.3171 9.68922L29.9468 7.38281L31.383 8.94228Z" fill="#FFC727"/>
<path d="M35.0606 10.2752C34.4755 10.424 33.7181 10.747 32.7556 11.2517L31.3853 8.94531C32.3478 8.44063 33.1051 8.12016 33.6902 7.96875C34.1462 8.73839 34.6046 9.50551 35.0606 10.2752Z" fill="#FFC727"/>
<path d="M28.6272 12.4954L27.2568 10.189C27.2796 10.2243 27.305 10.2596 27.3354 10.2924C27.8495 10.8476 28.9286 10.6306 31.0335 9.54297L32.4038 11.8494C30.3015 12.9395 29.2199 13.1565 28.7057 12.5988C28.6753 12.566 28.65 12.5307 28.6272 12.4954Z" fill="#FFC727"/>
<path d="M35.1267 10.2556C35.1039 10.2607 35.0811 10.2657 35.0583 10.2733C34.6024 9.50364 34.1439 8.73653 33.688 7.96688C33.7108 7.96184 33.7336 7.95679 33.7564 7.94922C34.2123 8.71886 34.6708 9.48598 35.1267 10.2556Z" fill="#FFC727"/>
<path d="M34.5492 9.28479C34.2857 8.84067 34.0198 8.39655 33.7563 7.95243C34.0046 7.89439 34.2199 7.86663 34.4073 7.87168C34.8633 8.64132 35.3217 9.40844 35.7777 10.1781C35.5902 10.173 35.3749 10.2008 35.1267 10.2588C34.9342 9.93331 34.7417 9.61031 34.5466 9.28479H34.5492Z" fill="#FFC727"/>
<path d="M34.4881 8.60722L35.8584 10.9136C35.5038 10.5275 34.8351 10.5932 33.0139 11.5344L31.6436 9.22798C33.4648 8.28675 34.1335 8.22366 34.4881 8.60722Z" fill="#FFC727"/>
<path d="M35.78 10.1736C35.3241 9.40395 34.8656 8.63683 34.4097 7.86719C34.7238 7.87476 34.9593 7.97065 35.1265 8.15233C35.1594 8.18766 35.1873 8.22299 35.2101 8.26336L36.5804 10.5698C36.5576 10.5319 36.5298 10.4941 36.4968 10.4587C36.3297 10.2771 36.0966 10.1812 35.78 10.1736Z" fill="#FFC727"/>
<path d="M34.5465 8.6876L35.9169 10.994C35.9017 10.9662 35.8814 10.941 35.8586 10.9158L34.4883 8.60938C34.5111 8.63461 34.5288 8.65984 34.5465 8.6876Z" fill="#FFC727"/>
<path d="M29.5161 12.2773L30.8864 14.5837C30.8307 14.5938 30.7344 14.6216 30.6179 14.6973L29.2476 12.3909C29.3641 12.3152 29.4603 12.2874 29.5161 12.2773Z" fill="#FFC727"/>
<path d="M30.6206 14.6945C30.461 14.803 30.3698 14.9544 30.4179 15.0326L29.0476 12.7262C29.002 12.6505 29.0906 12.4966 29.2502 12.3906C29.6606 13.082 30.2102 14.0056 30.6206 14.697V14.6945Z" fill="#FFC727"/>
<path d="M34.5467 8.6875L35.9171 10.9939C36.183 11.4405 35.6359 12.2632 34.4353 13.0732L33.0649 10.7668C34.2656 9.9593 34.8127 9.13667 34.5467 8.6875Z" fill="#FFC727"/>
<path d="M33.0645 10.7672L34.4349 13.0711L33.0164 11.5343L31.6436 9.23047L33.0645 10.7672Z" fill="#FFC727"/>
<path d="M32.4923 11.1327L33.8626 13.4366L32.4011 11.8468L31.0308 9.54297L32.4923 11.1327Z" fill="#FFC727"/>
<path d="M32.4923 11.1328L33.8627 13.4392C32.8191 14.0549 31.8743 14.3981 30.8864 14.5823L29.5161 12.2759C30.504 12.0917 31.4488 11.746 32.4923 11.1328Z" fill="#FFC727"/>
<path d="M35.2075 8.26562L36.5778 10.572C36.9451 11.1903 36.1852 12.2854 34.6882 13.3049L33.3179 10.9985C34.8123 9.97903 35.5747 8.88386 35.2075 8.26562Z" fill="#FFC727"/>
<path d="M30.4153 15.0322L29.0449 12.7258C29.0449 12.7258 29.05 12.7358 29.0551 12.7384C29.1006 12.7914 29.1842 12.7863 29.3058 12.7611C30.4659 12.5188 31.545 12.0924 32.6975 11.3984L34.0678 13.7048C32.9153 14.4013 31.8337 14.8278 30.6761 15.0675C30.5546 15.0927 30.471 15.0978 30.4254 15.0448C30.4229 15.0397 30.4178 15.0372 30.4153 15.0322Z" fill="#FFC727"/>
<path d="M33.7206 11.4301L35.0909 13.7365L34.6882 13.3025L33.3179 10.9961L33.7206 11.4301Z" fill="#FFC727"/>
<path d="M33.7308 11.4462L35.1012 13.7526C35.1012 13.7526 35.0961 13.7425 35.091 13.74L33.7207 11.4336C33.7207 11.4336 33.7283 11.4437 33.7308 11.4462Z" fill="#FFC727"/>
<path d="M33.1051 11.8375L34.4754 14.1439L34.0676 13.7048L32.6973 11.3984L33.1051 11.8375Z" fill="#FFC727"/>
<path d="M33.7312 11.4453L35.1015 13.7517C35.1471 13.8299 35.061 13.9713 34.9065 14.0772L33.5361 11.7708C33.6932 11.6649 33.7768 11.5235 33.7312 11.4453Z" fill="#FFC727"/>
<path d="M33.5361 11.7695L34.9064 14.0759C34.7392 14.187 34.5417 14.2172 34.4758 14.1441L33.1055 11.8377C33.1713 11.9108 33.3689 11.878 33.5361 11.7695Z" fill="#FFC727"/>
<path d="M41.1371 3.85938L42.5075 6.16578C43.6929 8.15928 42.4796 11.5205 37.4466 15.076C37.2693 15.2021 37.0895 15.3258 36.9122 15.4444C30.6152 19.6711 25.2859 19.3355 23.7863 16.8171L22.416 14.5107C23.9155 17.0291 29.2449 17.3647 35.5418 13.138C35.7191 13.0194 35.8964 12.8957 36.0763 12.7696C41.1093 9.21407 42.3226 5.85288 41.1371 3.85938Z" fill="#FFC727"/>
<g opacity="0.1">
<path d="M41.1371 3.85938L42.5075 6.16578C43.6929 8.15928 42.4796 11.5205 37.4466 15.076C37.2693 15.2021 37.0895 15.3258 36.9122 15.4444C30.6152 19.6711 25.2859 19.3355 23.7863 16.8171L22.416 14.5107C23.9155 17.0291 29.2449 17.3647 35.5418 13.138C35.7191 13.0194 35.8964 12.8957 36.0763 12.7696C41.1093 9.21407 42.3226 5.85288 41.1371 3.85938Z" fill="black"/>
</g>
<path d="M28.0142 5.23134C39.2935 -2.33892 47.4699 4.72161 36.0792 12.7688C35.9019 12.895 35.722 13.0186 35.5447 13.1372C24.2655 20.7075 16.089 13.6444 27.4798 5.59976C27.6571 5.47359 27.8369 5.34994 28.0142 5.23134ZM35.3472 12.1581C44.7977 5.48368 38.0144 -0.375697 28.6551 5.90257C28.5082 6.00098 28.3613 6.10192 28.2118 6.2079C28.1485 6.25332 28.0826 6.29622 28.0244 6.34164C28.108 6.2836 28.1915 6.22809 28.2751 6.17005C37.252 0.144127 43.7642 5.7663 34.6911 12.1733C34.5493 12.2742 34.4074 12.3701 34.2681 12.4635C30.7042 14.8557 27.5228 15.4159 25.5598 14.8153C27.576 15.5849 31.0158 15.0701 34.8988 12.466C35.0483 12.365 35.1977 12.2641 35.3472 12.1581ZM29.2478 12.3878C29.0781 12.5013 28.9869 12.6679 29.0528 12.7385C29.0983 12.7915 29.1819 12.7865 29.3035 12.7612C30.4636 12.519 31.5427 12.0925 32.6952 11.3986L33.103 11.8376C33.1688 11.9108 33.3664 11.878 33.5336 11.7695C33.7007 11.6585 33.7843 11.5046 33.7185 11.4314L33.3157 10.9973C34.9039 9.9148 35.6638 8.74646 35.1217 8.15346C34.6177 7.60587 33.5006 7.83046 31.3805 8.94076L29.9418 7.38129C30.6536 6.96745 31.3729 6.66969 32.2063 6.47034C32.3279 6.4451 32.3963 6.40977 32.4748 6.35678C32.6572 6.23314 32.7509 6.07668 32.68 5.99846C32.6293 5.94294 32.5356 5.95051 32.3836 5.98836C31.4819 6.22304 30.6916 6.52838 29.7341 7.10624L29.5315 6.88418C29.4656 6.811 29.2655 6.8438 29.0983 6.95483C28.9286 7.06839 28.8451 7.21979 28.916 7.29045L29.111 7.50241C27.5558 8.55216 26.8187 9.72807 27.3379 10.2908C27.8521 10.8459 28.9312 10.6289 31.0361 9.54134L32.4976 11.1311C31.454 11.7468 30.5092 12.09 29.5214 12.2742C29.4656 12.2843 29.3694 12.3121 29.2529 12.3878" fill="#FFC727"/>
<path d="M34.4882 8.60974C34.8757 9.03368 34.3387 9.90678 33.0621 10.7647L31.6411 9.22798C33.4623 8.28675 34.131 8.22366 34.4856 8.60722L34.4882 8.60974Z" fill="#FFC727"/>
<path d="M31.3826 8.94331C33.5027 7.833 34.6198 7.60842 35.1238 8.156C35.6659 8.74901 34.906 9.91735 33.3178 10.9999L33.7206 11.4339C33.7864 11.5071 33.7003 11.661 33.5357 11.7721C33.3685 11.8831 33.1709 11.9134 33.1051 11.8402L32.6973 11.4011C31.5448 12.0976 30.4632 12.524 29.3056 12.7638C29.184 12.789 29.1004 12.794 29.0549 12.7411C28.989 12.6704 29.0802 12.5039 29.2448 12.3928C29.3664 12.3146 29.4627 12.2868 29.5184 12.2767C30.5062 12.0925 31.451 11.7468 32.4946 11.1336L31.0331 9.54388C28.9307 10.634 27.8492 10.851 27.335 10.2933C26.8157 9.73062 27.5528 8.5547 29.108 7.50496L28.913 7.29299C28.8446 7.22234 28.9282 7.07093 29.0903 6.96243C29.2626 6.84887 29.4627 6.81607 29.5311 6.88672L29.7337 7.10878C30.6912 6.53344 31.484 6.22559 32.3832 5.99091C32.5351 5.95306 32.6314 5.94549 32.6795 6.001C32.7504 6.07923 32.6593 6.23568 32.482 6.35428C32.3984 6.4098 32.33 6.44512 32.2084 6.47036C31.3776 6.66971 30.6557 6.96495 29.9439 7.38131L31.3826 8.94079V8.94331ZM34.4881 8.60769C34.1334 8.22161 33.4647 8.28722 31.6435 9.22845L33.0645 10.7652C34.3386 9.90725 34.8781 9.03415 34.4906 8.61022M30.7671 9.26378L29.3664 7.74216C28.1278 8.57489 27.6009 9.44042 27.9707 9.84165C28.3203 10.2202 28.9459 10.1848 30.7671 9.26378Z" fill="#FFC727"/>
<g opacity="0.1">
<path d="M31.3826 8.94331C33.5027 7.833 34.6198 7.60842 35.1238 8.156C35.6659 8.74901 34.906 9.91735 33.3178 10.9999L33.7206 11.4339C33.7864 11.5071 33.7003 11.661 33.5357 11.7721C33.3685 11.8831 33.1709 11.9134 33.1051 11.8402L32.6973 11.4011C31.5448 12.0976 30.4632 12.524 29.3056 12.7638C29.184 12.789 29.1004 12.794 29.0549 12.7411C28.989 12.6704 29.0802 12.5039 29.2448 12.3928C29.3664 12.3146 29.4627 12.2868 29.5184 12.2767C30.5062 12.0925 31.451 11.7468 32.4946 11.1336L31.0331 9.54388C28.9307 10.634 27.8492 10.851 27.335 10.2933C26.8157 9.73062 27.5528 8.5547 29.108 7.50496L28.913 7.29299C28.8446 7.22234 28.9282 7.07093 29.0903 6.96243C29.2626 6.84887 29.4627 6.81607 29.5311 6.88672L29.7337 7.10878C30.6912 6.53344 31.484 6.22559 32.3832 5.99091C32.5351 5.95306 32.6314 5.94549 32.6795 6.001C32.7504 6.07923 32.6593 6.23568 32.482 6.35428C32.3984 6.4098 32.33 6.44512 32.2084 6.47036C31.3776 6.66971 30.6557 6.96495 29.9439 7.38131L31.3826 8.94079V8.94331ZM34.4881 8.60769C34.1334 8.22161 33.4647 8.28722 31.6435 9.22845L33.0645 10.7652C34.3386 9.90725 34.8781 9.03415 34.4906 8.61022M30.7671 9.26378L29.3664 7.74216C28.1278 8.57489 27.6009 9.44042 27.9707 9.84165C28.3203 10.2202 28.9459 10.1848 30.7671 9.26378Z" fill="black"/>
</g>
<path d="M28.6549 5.90166C38.0116 -0.376605 44.7974 5.48277 35.3469 12.1572C35.1975 12.2632 35.048 12.3667 34.8986 12.4651C31.0156 15.0692 27.5783 15.5865 25.5596 14.8144C27.5226 15.4149 30.7015 14.8547 34.2679 12.4625C34.4072 12.3692 34.5491 12.2708 34.6909 12.1724C43.764 5.76792 37.2543 0.148266 28.2749 6.17167C28.1913 6.22718 28.1077 6.28522 28.0241 6.34326C28.0824 6.29784 28.1483 6.25494 28.2116 6.20952C28.361 6.10353 28.5079 6.0026 28.6549 5.90418V5.90166Z" fill="#FFC727"/>
<g opacity="0.1">
<path d="M28.6549 5.90166C38.0116 -0.376605 44.7974 5.48277 35.3469 12.1572C35.1975 12.2632 35.048 12.3667 34.8986 12.4651C31.0156 15.0692 27.5783 15.5865 25.5596 14.8144C27.5226 15.4149 30.7015 14.8547 34.2679 12.4625C34.4072 12.3692 34.5491 12.2708 34.6909 12.1724C43.764 5.76792 37.2543 0.148266 28.2749 6.17167C28.1913 6.22718 28.1077 6.28522 28.0241 6.34326C28.0824 6.29784 28.1483 6.25494 28.2116 6.20952C28.361 6.10353 28.5079 6.0026 28.6549 5.90418V5.90166Z" fill="black"/>
</g>
<path d="M34.8513 53.3038C34.7905 53.2558 34.7297 53.2053 34.6689 53.165L36.4952 51.1992C36.556 51.2421 36.6168 51.2901 36.6776 51.338C36.822 51.449 36.9613 51.5626 37.0981 51.6736C38.7318 53.0136 39.9274 54.3888 40.7354 55.6909C40.1275 56.347 39.517 57.0031 38.9091 57.6566C38.1036 56.3546 36.9056 54.9793 35.2743 53.6394C35.1375 53.5258 34.9982 53.4148 34.8539 53.3038H34.8513Z" fill="#FFC727"/>
<path d="M39.4686 63.7134C40.5679 62.5299 40.4995 60.2336 38.9062 57.6572C39.5167 57.0011 40.1246 56.3475 40.7325 55.6914C42.3257 58.2678 42.3941 60.5616 41.2948 61.7476C40.7477 62.3381 40.0157 63.1254 39.4686 63.7134Z" fill="#FFC727"/>
<path d="M40.7607 61.0532L38.9345 63.0189C40.5226 61.308 39.5702 57.1822 34.9045 53.3542C34.8285 53.2911 34.7475 53.228 34.6689 53.165L36.4952 51.1992C36.5737 51.2623 36.6523 51.3254 36.7308 51.3885C41.394 55.214 42.3489 59.3423 40.7607 61.0532Z" fill="#FFC727"/>
<path d="M34.3825 54.3628C34.3825 54.3628 34.38 54.3628 34.3774 54.3603C34.9854 53.7042 35.5958 53.0481 36.2037 52.3945C36.2037 52.3945 36.2062 52.3945 36.2088 52.3971C35.6617 52.9875 34.9296 53.7748 34.3825 54.3628Z" fill="#FFC727"/>
<path d="M36.4016 52.7882L34.5753 54.7539C34.626 54.6707 34.5373 54.489 34.3828 54.3603L36.2091 52.3945C36.3636 52.5232 36.4522 52.7049 36.4016 52.7882Z" fill="#FFC727"/>
<path d="M35.6872 52.5637L33.8584 54.5294L34.0078 54.2847L35.8341 52.3164L35.6872 52.5637Z" fill="#FFC727"/>
<path d="M34.3777 54.3589C34.2333 54.2403 34.0788 54.2024 34.0205 54.2655L35.8468 52.2997C35.905 52.2367 36.0595 52.2745 36.2039 52.3931C35.596 53.0492 34.9856 53.7053 34.3777 54.3589Z" fill="#FFC727"/>
<path d="M34.0205 54.2665L35.8467 52.3008C35.8467 52.3008 35.8391 52.3109 35.8341 52.3159L34.0078 54.2817C34.0078 54.2817 34.0154 54.269 34.0205 54.2665Z" fill="#FFC727"/>
<path d="M36.2442 53.0465L34.418 55.0147L34.5725 54.7573L36.4013 52.7891L36.2442 53.0465Z" fill="#FFC727"/>
<path d="M33.8582 54.53C33.3922 54.1515 32.9388 53.8537 32.5259 53.6493C33.1338 52.9933 33.7442 52.3372 34.3521 51.6836C34.7675 51.888 35.221 52.1858 35.6845 52.5643C35.1374 53.1547 34.4053 53.9421 33.8582 54.53Z" fill="#FFC727"/>
<path d="M32.6578 53.4761C33.2151 52.8755 33.7749 52.275 34.3321 51.6719C34.3397 51.6744 34.3448 51.6794 34.3524 51.682C33.7445 52.3381 33.134 52.9941 32.5261 53.6477C32.5185 53.6452 32.5135 53.6401 32.5059 53.6376C32.5109 53.6326 32.5185 53.625 32.5236 53.6174C32.5287 53.6124 32.5363 53.6048 32.5413 53.5972C32.554 53.5846 32.5666 53.5695 32.5793 53.5569C32.6046 53.5291 32.6325 53.5014 32.6578 53.4736V53.4761Z" fill="#FFC727"/>
<path d="M38.0755 55.2599L36.2492 57.2257C35.7679 56.4333 35.2462 55.7646 34.4204 55.0126L36.2467 53.0469C37.075 53.7963 37.5942 54.465 38.0755 55.2599Z" fill="#FFC727"/>
<path d="M36.3231 57.5151C36.3636 57.452 36.3281 57.3637 36.2471 57.2275L38.0733 55.2617C38.1544 55.3955 38.1873 55.4838 38.1493 55.5494C37.5414 56.2055 36.931 56.8616 36.3231 57.5151Z" fill="#FFC727"/>
<path d="M36.3125 57.5278C36.3125 57.5278 36.3201 57.5177 36.3226 57.5126C36.9305 56.8565 37.541 56.2004 38.1489 55.5469C38.1464 55.5519 38.1413 55.557 38.1388 55.562C37.5916 56.1525 36.8596 56.9398 36.3125 57.5278Z" fill="#FFC727"/>
<path d="M37.5639 55.2308L35.7376 57.1965C35.307 56.4597 34.8182 55.8541 34.2153 55.2939L36.0416 53.3281C36.6444 53.8883 37.1333 54.4939 37.5639 55.2308Z" fill="#FFC727"/>
<path d="M38.139 55.561L36.3128 57.5268C36.2495 57.5949 36.0823 57.5495 35.9278 57.4233C35.8492 57.3577 35.7961 57.3022 35.7378 57.1962L37.5641 55.2305C37.6223 55.339 37.6755 55.3945 37.754 55.4576C37.9085 55.5837 38.0757 55.6292 38.139 55.561Z" fill="#FFC727"/>
<path d="M32.5056 53.6365C32.0193 53.3993 31.5887 53.2857 31.2568 53.3084C31.8647 52.6523 32.4752 51.9963 33.0831 51.3427C33.4149 51.32 33.8481 51.4335 34.3319 51.6707C33.7239 52.3268 33.1135 52.9829 32.5056 53.6365Z" fill="#FFC727"/>
<path d="M31.2798 53.2792C31.8801 52.6332 32.4779 51.9897 33.0782 51.3438C33.0782 51.3438 33.0833 51.3438 33.0858 51.3438C32.4779 51.9998 31.8675 52.6559 31.2596 53.3095C31.2596 53.3095 31.2545 53.3095 31.252 53.3095C31.2621 53.2994 31.2722 53.2893 31.2823 53.2767L31.2798 53.2792Z" fill="#FFC727"/>
<path d="M31.3457 54.0349L33.172 52.0692C33.5089 51.7058 34.446 51.9834 35.5352 52.8742L33.709 54.8399C32.6198 53.9492 31.6826 53.6716 31.3457 54.0349Z" fill="#FFC727"/>
<path d="M31.2491 53.3095C31.0389 53.3246 30.8666 53.3953 30.7476 53.524L32.5738 51.5582C32.6929 51.4295 32.8651 51.3589 33.0754 51.3438C32.6853 51.7626 32.2977 52.1815 31.9077 52.6004C31.6949 52.83 31.4821 53.0572 31.2719 53.2868C31.2643 53.2944 31.2592 53.307 31.2491 53.312V53.3095Z" fill="#FFC727"/>
<path d="M35.5352 52.8759L34.4688 54.6473C33.0655 53.1711 32.8502 52.5832 33.1162 52.1416C33.3948 51.6747 34.3776 51.9296 35.5326 52.8759H35.5352Z" fill="#FFC727"/>
<path d="M34.4688 54.6464L32.6426 56.6122L33.709 54.8407L35.5352 52.875L34.4688 54.6464Z" fill="#FFC727"/>
<path d="M31.3456 54.0361L33.1719 52.0703C33.1516 52.093 33.1339 52.1157 33.1187 52.1435C32.8528 52.5851 33.0655 53.173 34.4713 54.6492L32.645 56.615C31.2418 55.1388 31.0265 54.5508 31.2924 54.1092C31.3076 54.0815 31.3254 54.0588 31.3456 54.0361Z" fill="#FFC727"/>
<path d="M34.9523 55.1475L33.1235 57.1133L34.2152 55.2964L36.0415 53.3281L34.9523 55.1475Z" fill="#FFC727"/>
<path d="M34.7193 59.037C34.4077 58.5197 33.8834 57.8914 33.1235 57.1142L34.9498 55.1484C35.7097 55.9257 36.234 56.554 36.5456 57.0713C35.9377 57.7274 35.3272 58.3835 34.7193 59.037Z" fill="#FFC727"/>
<path d="M30.7478 53.5282L32.5741 51.5625C32.5463 51.5928 32.5184 51.6281 32.4956 51.666C32.1055 52.3145 32.6248 53.286 34.2712 54.9817L32.4449 56.9475C30.7985 55.2492 30.2792 54.2802 30.6693 53.6317C30.6921 53.5939 30.7175 53.5585 30.7478 53.5282Z" fill="#FFC727"/>
<path d="M34.7547 59.0966C34.742 59.0764 34.7319 59.0562 34.7192 59.0361C35.3271 58.38 35.9376 57.7239 36.5455 57.0703C36.5582 57.0905 36.5683 57.1107 36.581 57.1309C35.9731 57.787 35.3626 58.4431 34.7547 59.0966Z" fill="#FFC727"/>
<path d="M35.5273 58.2644C35.8794 57.8859 36.2315 57.5074 36.5836 57.1289C36.7102 57.3484 36.7989 57.5478 36.847 57.727C36.2391 58.383 35.6287 59.0391 35.0208 59.6927C34.9726 59.5135 34.884 59.3142 34.7573 59.0947C35.0132 58.8171 35.2715 58.542 35.5299 58.2644H35.5273Z" fill="#FFC727"/>
<path d="M36.1584 58.0137L34.3322 59.9795C34.6006 59.5303 34.3499 58.9121 32.9238 57.4384L34.7501 55.4727C36.1736 56.9438 36.4269 57.5646 36.1584 58.0137Z" fill="#FFC727"/>
<path d="M35.0183 59.6923C35.6262 59.0362 36.2366 58.3801 36.8445 57.7266C36.9281 58.0294 36.9003 58.2817 36.7736 58.4912C36.7483 58.5315 36.7204 58.5694 36.69 58.6022L34.8638 60.5679C34.8942 60.5351 34.922 60.4973 34.9474 60.4569C35.074 60.2449 35.0993 59.9951 35.0183 59.6923Z" fill="#FFC727"/>
<path d="M36.0997 58.0939L34.2734 60.0596C34.2962 60.0369 34.314 60.0116 34.3317 59.9814L36.158 58.0156C36.1402 58.0434 36.1225 58.0686 36.0997 58.0939Z" fill="#FFC727"/>
<path d="M31.2114 54.3119L29.3851 56.2776C29.3598 56.2272 29.3066 56.1439 29.2002 56.0556L31.0265 54.0898C31.1303 54.1782 31.186 54.264 31.2114 54.3144V54.3119Z" fill="#FFC727"/>
<path d="M29.2003 56.0563C29.0509 55.9352 28.8787 55.8923 28.8179 55.9579L30.6441 53.9922C30.7049 53.9266 30.8772 53.967 31.0266 54.0881C30.4795 54.6786 29.7475 55.4659 29.2003 56.0538V56.0563Z" fill="#FFC727"/>
<path d="M36.0998 58.0922L34.2736 60.0579C33.9189 60.4389 32.9716 60.1513 31.8521 59.2353L33.6783 57.2695C34.7979 58.1855 35.7452 58.4732 36.0998 58.0922Z" fill="#FFC727"/>
<path d="M33.6783 57.2668L31.8521 59.2351L32.9235 57.4409L34.7523 55.4727L33.6783 57.2668Z" fill="#FFC727"/>
<path d="M33.1618 56.8276L31.333 58.7959L32.445 56.9462L34.2738 54.9805L33.1618 56.8276Z" fill="#FFC727"/>
<path d="M33.1619 56.8283L31.3356 58.7941C30.4466 57.974 29.8463 57.169 29.3853 56.2782L31.2115 54.3125C31.67 55.2033 32.2703 56.0057 33.1619 56.8283Z" fill="#FFC727"/>
<path d="M36.6928 58.6026L34.8665 60.5684C34.3751 61.0958 33.1035 60.6819 31.6978 59.5439L33.524 57.5781C34.9298 58.7162 36.2014 59.13 36.6928 58.6026Z" fill="#FFC727"/>
<path d="M28.8149 55.9579L30.6412 53.9922C30.6412 53.9922 30.6336 53.9998 30.631 54.0048C30.593 54.0628 30.6209 54.1436 30.6817 54.2496C31.244 55.2867 31.9634 56.1977 32.9614 57.101L31.1351 59.0668C30.1371 58.1634 29.4203 57.255 28.8554 56.2153C28.7972 56.1068 28.7693 56.0286 28.8048 55.9705C28.8073 55.9655 28.8098 55.9605 28.8149 55.9579Z" fill="#FFC727"/>
<path d="M33.2223 58.0853L31.396 60.0536L31.6974 59.5439L33.5262 57.5781L33.2223 58.0853Z" fill="#FFC727"/>
<path d="M33.2125 58.1025L31.3862 60.0682C31.3862 60.0682 31.3938 60.0606 31.3964 60.0556L33.2226 58.0898C33.2226 58.0898 33.215 58.0999 33.2125 58.1025Z" fill="#FFC727"/>
<path d="M32.6574 57.6163L30.8286 59.5821L31.1351 59.0673L32.9614 57.1016L32.6574 57.6163Z" fill="#FFC727"/>
<path d="M33.2121 58.1012L31.3858 60.0669C31.325 60.1325 31.1629 60.0922 31.0186 59.9736L32.8448 58.0078C32.9892 58.1264 33.1513 58.1668 33.2121 58.1012Z" fill="#FFC727"/>
<path d="M32.8452 58.0044L31.019 59.9702C30.8645 59.8415 30.7783 59.6623 30.829 59.579L32.6553 57.6133C32.6046 57.6966 32.6907 57.8757 32.8452 58.0044Z" fill="#FFC727"/>
<path d="M42.6248 63.0082L40.7986 64.9739C39.218 66.6747 35.6389 66.4754 30.7832 62.6827C30.611 62.5489 30.4413 62.4127 30.2766 62.2764C24.4154 57.4693 23.2173 52.2837 25.2132 50.1337L27.0395 48.168C25.0435 50.3179 26.2416 55.501 32.1029 60.3107C32.2675 60.4469 32.4373 60.5807 32.6095 60.7169C37.4652 64.5096 41.0443 64.709 42.6248 63.0082Z" fill="#FFC727"/>
<g opacity="0.1">
<path d="M42.6248 63.0082L40.7986 64.9739C39.218 66.6747 35.6389 66.4754 30.7832 62.6827C30.611 62.5489 30.4413 62.4127 30.2766 62.2764C24.4154 57.4693 23.2173 52.2837 25.2132 50.1337L27.0395 48.168C25.0435 50.3179 26.2416 55.501 32.1029 60.3107C32.2675 60.4469 32.4373 60.5807 32.6095 60.7169C37.4652 64.5096 41.0443 64.709 42.6248 63.0082Z" fill="black"/>
</g>
<path d="M37.5616 50.8693C48.0607 59.4818 43.5976 69.3004 32.6096 60.7182C32.4374 60.5845 32.2677 60.4482 32.103 60.312C21.6039 51.6995 26.067 41.8784 37.055 50.4631C37.2272 50.5968 37.3969 50.7331 37.5616 50.8693ZM32.9896 59.8477C42.1057 66.9687 45.8089 58.8206 37.1006 51.6743C36.9638 51.5608 36.8245 51.4497 36.6801 51.3387C36.6193 51.2907 36.5585 51.2403 36.4977 51.1999C36.5763 51.263 36.6548 51.3261 36.7333 51.3892C45.0895 58.2453 41.5383 66.0628 32.7869 59.2269C32.6502 59.1209 32.5159 59.0124 32.3867 58.9064C29.0686 56.1837 27.6248 53.307 27.6425 51.263C27.4779 53.4079 28.952 56.5445 32.5666 59.5095C32.7059 59.6231 32.8452 59.7366 32.9921 59.8502M31.0316 54.0917C30.8746 53.963 30.6897 53.9227 30.639 54.0059C30.601 54.064 30.6289 54.1447 30.6897 54.2507C31.252 55.2878 31.9713 56.1988 32.9693 57.1022L32.6628 57.617C32.6122 57.7002 32.6983 57.8794 32.8528 58.0081C33.0073 58.1343 33.1796 58.1721 33.2302 58.0888L33.5316 57.5816C35.0261 58.7903 36.3686 59.1815 36.7814 58.4951C37.1639 57.8567 36.6294 56.8574 34.9577 55.1491L36.0494 53.3322C36.6522 53.8924 37.1411 54.498 37.5717 55.2349C37.63 55.3434 37.6832 55.3989 37.7566 55.4569C37.9263 55.5957 38.1036 55.6386 38.1594 55.5503C38.1999 55.4872 38.1644 55.3989 38.0834 55.2626C37.6021 54.4703 37.0803 53.8015 36.2546 53.0496L36.4091 52.7922C36.4597 52.7089 36.3711 52.5272 36.2166 52.3985C36.0595 52.2698 35.8898 52.232 35.8417 52.3178L35.6923 52.5626C34.2383 51.3765 32.8959 51.0081 32.5033 51.6642C32.1132 52.3127 32.6324 53.2843 34.2789 54.98L33.1669 56.8297C32.2778 56.0095 31.6775 55.2046 31.2165 54.3138C31.1912 54.2633 31.1355 54.1801 31.0316 54.0892" fill="#FFC727"/>
<path d="M36.158 58.0137C35.8591 58.5058 34.8662 58.2408 33.6782 57.2668L34.7522 55.4727C36.1757 56.9438 36.429 57.5646 36.1605 58.0137H36.158Z" fill="#FFC727"/>
<path d="M34.9526 55.1469C36.6243 56.8553 37.1588 57.8571 36.7763 58.493C36.3609 59.1794 35.021 58.7882 33.5265 57.5795L33.2251 58.0867C33.1744 58.17 33.0022 58.1321 32.8477 58.006C32.6932 57.8773 32.607 57.6981 32.6577 57.6149L32.9642 57.1001C31.9662 56.1967 31.2494 55.2883 30.6845 54.2486C30.6263 54.1401 30.5984 54.0619 30.6339 54.0038C30.6845 53.9206 30.8694 53.9609 31.0214 54.0846C31.1303 54.178 31.1861 54.2612 31.2114 54.3117C31.6699 55.2025 32.2702 56.0049 33.1618 56.8275L34.2737 54.9779C32.6273 53.2796 32.1081 52.3106 32.4981 51.6621C32.8907 51.006 34.2332 51.3744 35.6871 52.5604L35.8366 52.3157C35.8847 52.2299 36.0519 52.2652 36.2064 52.3914C36.366 52.5251 36.4546 52.7068 36.404 52.7901L36.2495 53.0475C37.0777 53.7969 37.597 54.4656 38.0783 55.2605C38.1593 55.3942 38.1922 55.4826 38.1542 55.5482C38.101 55.639 37.9212 55.5936 37.7591 55.4599C37.6806 55.3942 37.6274 55.3387 37.5691 55.2327C37.1385 54.4959 36.6497 53.8903 36.0468 53.3301L34.9551 55.1469H34.9526ZM36.1608 58.0161C36.4293 57.5669 36.1785 56.9487 34.7525 55.475L33.6785 57.2691C34.8665 58.2432 35.8619 58.5056 36.1583 58.0161M34.4688 54.6473L35.5352 52.8759C34.3801 51.9296 33.3973 51.6747 33.1187 52.1416C32.8527 52.5832 33.0655 53.1711 34.4713 54.6473" fill="#FFC727"/>
<g opacity="0.1">
<path d="M34.9526 55.1469C36.6243 56.8553 37.1588 57.8571 36.7763 58.493C36.3609 59.1794 35.021 58.7882 33.5265 57.5795L33.2251 58.0867C33.1744 58.17 33.0022 58.1321 32.8477 58.006C32.6932 57.8773 32.607 57.6981 32.6577 57.6149L32.9642 57.1001C31.9662 56.1967 31.2494 55.2883 30.6845 54.2486C30.6263 54.1401 30.5984 54.0619 30.6339 54.0038C30.6845 53.9206 30.8694 53.9609 31.0214 54.0846C31.1303 54.178 31.1861 54.2612 31.2114 54.3117C31.6699 55.2025 32.2702 56.0049 33.1618 56.8275L34.2737 54.9779C32.6273 53.2796 32.1081 52.3106 32.4981 51.6621C32.8907 51.006 34.2332 51.3744 35.6871 52.5604L35.8366 52.3157C35.8847 52.2299 36.0519 52.2652 36.2064 52.3914C36.366 52.5251 36.4546 52.7068 36.404 52.7901L36.2495 53.0475C37.0777 53.7969 37.597 54.4656 38.0783 55.2605C38.1593 55.3942 38.1922 55.4826 38.1542 55.5482C38.101 55.639 37.9212 55.5936 37.7591 55.4599C37.6806 55.3942 37.6274 55.3387 37.5691 55.2327C37.1385 54.4959 36.6497 53.8903 36.0468 53.3301L34.9551 55.1469H34.9526ZM36.1608 58.0161C36.4293 57.5669 36.1785 56.9487 34.7525 55.475L33.6785 57.2691C34.8665 58.2432 35.8619 58.5056 36.1583 58.0161M34.4688 54.6473L35.5352 52.8759C34.3801 51.9296 33.3973 51.6747 33.1187 52.1416C32.8527 52.5832 33.0655 53.1711 34.4713 54.6473" fill="black"/>
</g>
<path d="M37.098 51.6761C45.8063 58.8199 42.1031 66.9706 32.987 59.8495C32.8426 59.7359 32.7007 59.6224 32.5614 59.5088C28.9469 56.5438 27.4727 53.4072 27.6373 51.2623C27.6196 53.3063 29.0634 56.1855 32.3816 58.9057C32.5133 59.0117 32.645 59.1202 32.7818 59.2262C41.5332 66.0621 45.0844 58.2446 36.7281 51.3885C36.6522 51.3254 36.5711 51.2623 36.4926 51.1992C36.5534 51.2421 36.6142 51.2901 36.675 51.338C36.8193 51.449 36.9586 51.5626 37.0954 51.6736L37.098 51.6761Z" fill="#FFC727"/>
<g opacity="0.1">
<path d="M37.098 51.6761C45.8063 58.8199 42.1031 66.9706 32.987 59.8495C32.8426 59.7359 32.7007 59.6224 32.5614 59.5088C28.9469 56.5438 27.4727 53.4072 27.6373 51.2623C27.6196 53.3063 29.0634 56.1855 32.3816 58.9057C32.5133 59.0117 32.645 59.1202 32.7818 59.2262C41.5332 66.0621 45.0844 58.2446 36.7281 51.3885C36.6522 51.3254 36.5711 51.2623 36.4926 51.1992C36.5534 51.2421 36.6142 51.2901 36.675 51.338C36.8193 51.449 36.9586 51.5626 37.0954 51.6736L37.098 51.6761Z" fill="black"/>
</g>
<path d="M26.0462 27.5045C25.9373 27.4767 25.8309 27.4465 25.7271 27.4263L26.991 23.8203C27.0949 23.8405 27.2012 23.8708 27.3102 23.8985C27.5609 23.9641 27.8091 24.0298 28.0523 24.1004C30.9526 24.9256 33.3006 26.0434 35.099 27.29C34.6785 28.4912 34.2555 29.6923 33.8351 30.896C32.0367 29.6494 29.6886 28.5315 26.7909 27.7064C26.5477 27.6382 26.302 27.5701 26.0487 27.5045H26.0462Z" fill="#FFC727"/>
<path d="M38.0271 38.4919C38.7895 36.3218 37.3888 33.3618 33.8325 30.8989C34.2555 29.6978 34.676 28.4966 35.0965 27.293C38.6502 29.7558 40.0509 32.7158 39.2885 34.8859C38.9086 35.9685 38.4045 37.4094 38.0246 38.4919H38.0271Z" fill="#FFC727"/>
<path d="M38.1947 34.2799L36.9307 37.8858C38.03 34.7492 34.4256 29.8992 26.1454 27.5424C26.0086 27.5045 25.8693 27.4641 25.73 27.4263L26.9939 23.8203C27.1332 23.8582 27.2726 23.896 27.4093 23.9364C35.6896 26.2933 39.294 31.1433 38.1947 34.2799Z" fill="#FFC727"/>
<path d="M26.0389 29.1528C26.0389 29.1528 26.0338 29.1528 26.0312 29.1528C26.4517 27.9517 26.8747 26.7505 27.2952 25.5469C27.2977 25.5469 27.3003 25.5469 27.3028 25.5469C26.9229 26.6294 26.4188 28.0703 26.0389 29.1528Z" fill="#FFC727"/>
<path d="M27.7787 25.9531L26.5148 29.5591C26.5325 29.4203 26.3121 29.2336 26.0386 29.1528L27.3025 25.5469C27.5761 25.6276 27.7964 25.8144 27.7787 25.9531Z" fill="#FFC727"/>
<path d="M26.7152 26.0625L25.4487 29.666L25.5045 29.2622L26.7684 25.6562L26.7152 26.0625Z" fill="#FFC727"/>
<path d="M26.031 29.1533C25.7751 29.0827 25.5522 29.1205 25.5117 29.2366L26.7757 25.6306C26.8162 25.5145 27.0391 25.4767 27.2949 25.5473C26.8745 26.7485 26.4514 27.9496 26.031 29.1533Z" fill="#FFC727"/>
<path d="M25.5095 29.2349L26.7734 25.6289C26.7734 25.6289 26.7683 25.6466 26.7683 25.6567L25.5044 29.2626C25.5044 29.2626 25.5069 29.2424 25.5095 29.2349Z" fill="#FFC727"/>
<path d="M27.7234 26.3796L26.4595 29.9855L26.5152 29.5591L27.7791 25.9531L27.7234 26.3796Z" fill="#FFC727"/>
<path d="M25.4488 29.6676C24.6256 29.4354 23.8632 29.3067 23.2046 29.2739C23.6251 28.0728 24.0481 26.8716 24.4685 25.668C25.1271 25.7008 25.8895 25.8295 26.7127 26.0616C26.3328 27.1442 25.8287 28.585 25.4488 29.6676Z" fill="#FFC727"/>
<path d="M23.2777 28.9736C23.6652 27.8709 24.0502 26.7707 24.4378 25.668C24.4479 25.668 24.458 25.668 24.4682 25.668C24.0477 26.8691 23.6247 28.0703 23.2042 29.2739C23.1941 29.2739 23.184 29.2739 23.1738 29.2739C23.1764 29.2638 23.1814 29.2487 23.1865 29.2386C23.1916 29.2285 23.1941 29.2134 23.1992 29.2033C23.2068 29.178 23.2169 29.1528 23.2245 29.1301C23.2422 29.0796 23.2599 29.0266 23.2777 28.9762V28.9736Z" fill="#FFC727"/>
<path d="M31.3785 28.2336L30.1145 31.8396C29.0304 31.0775 27.9691 30.4971 26.4595 29.9849L27.7234 26.3789C29.2331 26.8912 30.2944 27.469 31.3785 28.2336Z" fill="#FFC727"/>
<path d="M30.3752 32.1709C30.3904 32.0649 30.2941 31.969 30.1143 31.8403L31.3782 28.2344C31.5606 28.3656 31.6543 28.459 31.6391 28.5649C31.2186 29.7661 30.7956 30.9698 30.3752 32.1709Z" fill="#FFC727"/>
<path d="M30.3701 32.1976C30.3701 32.1976 30.3752 32.1799 30.3752 32.1724C30.7957 30.9712 31.2187 29.7701 31.6391 28.5664C31.6391 28.5765 31.6366 28.5841 31.6341 28.5916C31.2541 29.6742 30.7501 31.1151 30.3701 32.1976Z" fill="#FFC727"/>
<path d="M30.692 28.4858L29.428 32.0918C28.4453 31.3726 27.4599 30.8604 26.353 30.4692L27.617 26.8633C28.7239 27.2544 29.7092 27.7667 30.692 28.4858Z" fill="#FFC727"/>
<path d="M31.6339 28.5904L30.37 32.1963C30.3244 32.3225 30.0812 32.3578 29.8077 32.2796C29.6684 32.2392 29.567 32.1963 29.4277 32.0903L30.6917 28.4844C30.831 28.5929 30.9323 28.6358 31.0716 28.6736C31.3452 28.7519 31.5884 28.7165 31.6339 28.5904Z" fill="#FFC727"/>
<path d="M23.1741 29.2732C22.4041 29.2378 21.7759 29.3337 21.3555 29.5533C21.7759 28.3521 22.1989 27.151 22.6194 25.9473C23.0424 25.7303 23.6681 25.6319 24.4381 25.6672C24.0176 26.8683 23.5946 28.0695 23.1741 29.2732Z" fill="#FFC727"/>
<path d="M21.3655 29.4958C21.7809 28.3148 22.1938 27.1313 22.6092 25.9504C22.6117 25.9504 22.6142 25.9478 22.6168 25.9453C22.1963 27.1465 21.7733 28.3501 21.3528 29.5513C21.3503 29.5513 21.3477 29.5538 21.3452 29.5563C21.3528 29.5361 21.3579 29.5159 21.3655 29.4983V29.4958Z" fill="#FFC727"/>
<path d="M21.8848 30.4498L23.1487 26.8438C23.3817 26.1776 24.7622 26.0111 26.6974 26.5586L25.4334 30.1646C23.5008 29.617 22.1203 29.7861 21.8848 30.4498Z" fill="#FFC727"/>
<path d="M21.345 29.5552C21.0765 29.694 20.8941 29.8858 20.8105 30.1204L22.0745 26.5145C22.1581 26.2773 22.3405 26.088 22.609 25.9492C22.3405 26.7163 22.0694 27.486 21.8009 28.2531C21.654 28.672 21.5071 29.0909 21.3602 29.5098C21.3551 29.5249 21.3551 29.54 21.345 29.5552Z" fill="#FFC727"/>
<path d="M26.6948 26.5585L26.3149 29.4756C23.6375 28.3426 23.022 27.6966 23.1183 26.9698C23.2171 26.2002 24.6456 25.9781 26.6948 26.5585Z" fill="#FFC727"/>
<path d="M26.3147 29.4757L25.0508 33.0816L25.4307 30.1646L26.6947 26.5586L26.3147 29.4757Z" fill="#FFC727"/>
<path d="M21.885 30.4497L23.1489 26.8438C23.1337 26.8841 23.1261 26.9245 23.1185 26.9699C23.0248 27.6967 23.6378 28.3452 26.3151 29.4757L25.0512 33.0816C22.3739 31.9486 21.7583 31.3026 21.8546 30.5759C21.8597 30.533 21.8698 30.4901 21.885 30.4497Z" fill="#FFC727"/>
<path d="M27.2293 29.8561L25.9653 33.4595L26.3529 30.4667L27.6168 26.8633L27.2293 29.8561Z" fill="#FFC727"/>
<path d="M29.1493 35.0689C28.4476 34.5692 27.4015 34.0443 25.9653 33.4614L27.2293 29.8555C28.6655 30.4384 29.7116 30.9658 30.4132 31.4629C29.9927 32.664 29.5697 33.8652 29.1493 35.0689Z" fill="#FFC727"/>
<path d="M20.8135 30.1216L22.0775 26.5156C22.0572 26.5737 22.0445 26.6317 22.0344 26.6948C21.8976 27.7622 23.1261 28.7388 26.2493 30.0232L24.9853 33.6291C21.8622 32.3447 20.6337 31.3707 20.7705 30.3033C20.7781 30.2402 20.7933 30.1822 20.8135 30.1241V30.1216Z" fill="#FFC727"/>
<path d="M29.2305 35.1288C29.2051 35.1087 29.1773 35.091 29.1494 35.0708C29.5699 33.8697 29.9929 32.6685 30.4134 31.4648C30.4412 31.485 30.4666 31.5027 30.4944 31.5229C30.0739 32.724 29.6509 33.9252 29.2305 35.1288Z" fill="#FFC727"/>
<path d="M29.7649 33.6039C30.0081 32.9099 30.2513 32.216 30.4944 31.5195C30.7857 31.734 31.0137 31.946 31.1808 32.1529C30.7604 33.3541 30.3374 34.5552 29.9169 35.7589C29.7497 35.552 29.5218 35.34 29.2305 35.1255C29.4078 34.6183 29.5851 34.1111 29.7649 33.6039Z" fill="#FFC727"/>
<path d="M30.4488 32.9232L29.1848 36.5292C29.2811 35.7898 28.5972 35.1237 25.8945 34.0083L27.1585 30.4023C29.8612 31.5177 30.5451 32.1864 30.4488 32.9232Z" fill="#FFC727"/>
<path d="M29.917 35.7583C30.3375 34.5572 30.7605 33.356 31.1809 32.1523C31.4621 32.5031 31.571 32.8438 31.5254 33.192C31.5178 33.2601 31.5026 33.3232 31.4798 33.3838L30.2159 36.9897C30.2361 36.9292 30.2513 36.8661 30.2615 36.798C30.3071 36.4497 30.1982 36.1065 29.917 35.7583Z" fill="#FFC727"/>
<path d="M30.4158 33.0556L29.1519 36.6616C29.1671 36.6187 29.1772 36.5733 29.1848 36.5278L30.4487 32.9219C30.4437 32.9673 30.431 33.0127 30.4158 33.0556Z" fill="#FFC727"/>
<path d="M21.8672 30.886L20.6032 34.4919C20.5424 34.4414 20.4208 34.3607 20.2334 34.3052L21.4973 30.6992C21.6848 30.7547 21.8038 30.8355 21.8672 30.886Z" fill="#FFC727"/>
<path d="M20.233 34.3045C19.9696 34.2288 19.7188 34.2717 19.6758 34.3929L20.9397 30.7869C20.9828 30.6658 21.231 30.6229 21.4919 30.696C21.4919 30.696 21.4944 30.696 21.497 30.696C21.117 31.7786 20.613 33.2195 20.233 34.302V34.3045Z" fill="#FFC727"/>
<path d="M30.4158 33.0547L29.1519 36.6607C28.9062 37.3596 27.5029 37.5211 25.5171 36.9584L26.781 33.3524C28.7694 33.9152 30.1701 33.7537 30.4158 33.0547Z" fill="#FFC727"/>
<path d="M26.7811 33.3534L25.5146 36.9568L25.8946 34.0044L27.1585 30.3984L26.7811 33.3534Z" fill="#FFC727"/>
<path d="M25.8514 33.0692L24.5874 36.6752L24.9851 33.6294L26.249 30.0234L25.8514 33.0692Z" fill="#FFC727"/>
<path d="M25.8513 33.0695L24.5874 36.6754C22.9562 36.1077 21.7125 35.3961 20.603 34.4927L21.867 30.8867C22.9764 31.7901 24.2201 32.4992 25.8513 33.0695Z" fill="#FFC727"/>
<path d="M31.4821 33.3867L30.2181 36.9927C29.8787 37.9617 27.9815 38.1408 25.4941 37.4494L26.7581 33.8435C29.2455 34.5323 31.1426 34.3532 31.4821 33.3867Z" fill="#FFC727"/>
<path d="M19.6758 34.3911L20.9398 30.7852C20.9398 30.7852 20.9347 30.8003 20.9347 30.8079C20.9195 30.9063 21.0006 30.9921 21.1399 31.1006C22.4697 32.1377 23.9261 32.92 25.7473 33.5332L24.4834 37.1391C22.6622 36.5259 21.2057 35.7437 19.8759 34.7065C19.7366 34.598 19.6556 34.5122 19.6708 34.4138C19.6708 34.4063 19.6733 34.3987 19.6758 34.3911Z" fill="#FFC727"/>
<path d="M26.6516 34.679L25.3877 38.285L25.4915 37.4497L26.7555 33.8438L26.6516 34.679Z" fill="#FFC727"/>
<path d="M26.6468 34.7024L25.3828 38.3084C25.3828 38.3084 25.3879 38.2932 25.3879 38.2857L26.6518 34.6797C26.6518 34.6797 26.6493 34.6948 26.6468 34.7024Z" fill="#FFC727"/>
<path d="M25.6409 34.383L24.377 37.9865L24.4833 37.1411L25.7473 33.5352L25.6409 34.383Z" fill="#FFC727"/>
<path d="M26.6465 34.6992L25.3826 38.3052C25.3395 38.4263 25.1065 38.4642 24.8481 38.391L26.1121 34.785C26.3705 34.8582 26.6035 34.8203 26.6465 34.6992Z" fill="#FFC727"/>
<path d="M26.1121 34.7852L24.8481 38.3911C24.5746 38.3104 24.3593 38.1237 24.377 37.9849L25.6409 34.3789C25.6232 34.5177 25.8385 34.7044 26.1121 34.7852Z" fill="#FFC727"/>
<path d="M41.7457 35.782L40.4818 39.388C39.3875 42.5044 34.5952 44.2733 26.0869 42.0704C25.7855 41.9922 25.4866 41.9114 25.1953 41.8281C14.7925 38.8682 10.2635 32.7716 11.6465 28.8325L12.9105 25.2266C11.53 29.1656 16.0564 35.2622 26.4593 38.2222C26.7506 38.3054 27.0495 38.3862 27.3509 38.4644C35.8591 40.6674 40.654 38.8984 41.7457 35.782Z" fill="#FFC727"/>
<g opacity="0.1">
<path d="M41.7457 35.782L40.4818 39.388C39.3875 42.5044 34.5952 44.2733 26.0869 42.0704C25.7855 41.9922 25.4866 41.9114 25.1953 41.8281C14.7925 38.8682 10.2635 32.7716 11.6465 28.8325L12.9105 25.2266C11.53 29.1656 16.0564 35.2622 26.4593 38.2222C26.7506 38.3054 27.0495 38.3862 27.3509 38.4644C35.8591 40.6674 40.654 38.8984 41.7457 35.782Z" fill="black"/>
</g>
<path d="M28.1967 22.7874C46.8343 28.0891 46.6114 43.4517 27.3507 38.4654C27.0493 38.3872 26.7504 38.3064 26.4591 38.2232C7.82158 32.919 8.04448 17.5564 27.3051 22.5452C27.6066 22.6234 27.9054 22.7042 28.1993 22.7874H28.1967ZM27.3482 37.1103C43.3261 41.2488 43.511 28.5004 28.0524 24.1021C27.8092 24.034 27.5635 23.9659 27.3102 23.9003C27.2013 23.8725 27.0949 23.8422 26.991 23.822C27.1304 23.8599 27.2697 23.8977 27.4065 23.9381C42.2395 28.1598 42.0647 40.3883 26.7251 36.4164C26.487 36.3533 26.2489 36.2902 26.0184 36.2246C20.1292 34.5491 16.5983 31.6068 15.4534 28.9244C16.4615 31.8213 20.1824 35.084 26.5959 36.9085C26.8416 36.9791 27.0898 37.0473 27.3457 37.1129M21.4945 30.7009C21.2159 30.6201 20.9499 30.6756 20.9322 30.8119C20.917 30.9103 20.9981 30.9961 21.1374 31.1046C22.4672 32.1417 23.9236 32.924 25.7448 33.5372L25.6384 34.3825C25.6207 34.5213 25.836 34.7081 26.1096 34.7888C26.3831 34.867 26.6314 34.8191 26.6491 34.6803L26.7529 33.845C29.3974 34.5768 31.3731 34.3295 31.5225 33.1965C31.6593 32.1468 30.3877 31.1425 27.2266 29.858L27.6142 26.8653C28.7211 27.2564 29.7064 27.7687 30.6892 28.4878C30.8285 28.5963 30.9298 28.6392 31.059 28.6746C31.3604 28.7604 31.6188 28.7149 31.6365 28.5686C31.6517 28.4626 31.5554 28.3667 31.3756 28.238C30.2915 27.4759 29.2302 26.8956 27.7205 26.3833L27.7763 25.9594C27.794 25.8206 27.5736 25.6338 27.3001 25.5531C27.0214 25.4723 26.7783 25.5228 26.7656 25.6616L26.7124 26.0679C24.1339 25.3437 22.1708 25.6212 22.0315 26.7012C21.8947 27.7687 23.1232 28.7452 26.2464 30.0296L25.8487 33.0754C24.2175 32.5076 22.9738 31.796 21.8643 30.8926C21.8035 30.8422 21.682 30.7614 21.4945 30.7059" fill="#FFC727"/>
<path d="M30.4485 32.9232C30.3396 33.7358 28.8907 33.9528 26.7808 33.3547L27.1582 30.4023C29.8608 31.5177 30.5447 32.1864 30.4485 32.9232Z" fill="#FFC727"/>
<path d="M27.2293 29.8561C30.3905 31.1405 31.662 32.1448 31.5252 33.1946C31.3758 34.3276 29.3976 34.5749 26.7557 33.8431L26.6518 34.6783C26.6341 34.8171 26.3859 34.8651 26.1123 34.7869C25.8387 34.7061 25.6234 34.5194 25.6412 34.3806L25.7476 33.5352C23.9264 32.9221 22.4699 32.1398 21.1401 31.1027C21.0008 30.9942 20.9197 30.9084 20.9349 30.8099C20.9527 30.6737 21.2186 30.6182 21.4896 30.6964C21.6872 30.7544 21.8063 30.8352 21.8671 30.8857C22.9765 31.789 24.2202 32.4981 25.8514 33.0684L26.2491 30.0226C23.1259 28.7382 21.8974 27.7642 22.0342 26.6943C22.1735 25.6142 24.1366 25.3367 26.7151 26.0609L26.7683 25.6546C26.781 25.5158 27.0242 25.4679 27.2927 25.5436C27.5764 25.6269 27.7967 25.8136 27.779 25.9524L27.7233 26.3763C29.2329 26.8886 30.2942 27.4664 31.3783 28.231C31.5607 28.3622 31.6544 28.4556 31.6392 28.5616C31.619 28.7105 31.3631 28.7534 31.0718 28.6701C30.9325 28.6297 30.8312 28.5868 30.6919 28.4808C29.7091 27.7617 28.7238 27.2494 27.6169 26.8583L27.2293 29.8511V29.8561ZM30.4462 32.9221C30.5425 32.1827 29.8586 31.5165 27.1559 30.4012L26.7785 33.3536C28.8884 33.9516 30.3373 33.7346 30.4462 32.9221ZM26.3149 29.4776L26.6949 26.5605C24.6457 25.9801 23.2171 26.2047 23.1183 26.9718C23.0246 27.6986 23.6376 28.3471 26.3149 29.4776Z" fill="#FFC727"/>
<g opacity="0.1">
<path d="M27.2293 29.8561C30.3905 31.1405 31.662 32.1448 31.5252 33.1946C31.3758 34.3276 29.3976 34.5749 26.7557 33.8431L26.6518 34.6783C26.6341 34.8171 26.3859 34.8651 26.1123 34.7869C25.8387 34.7061 25.6234 34.5194 25.6412 34.3806L25.7476 33.5352C23.9264 32.9221 22.4699 32.1398 21.1401 31.1027C21.0008 30.9942 20.9197 30.9084 20.9349 30.8099C20.9527 30.6737 21.2186 30.6182 21.4896 30.6964C21.6872 30.7544 21.8063 30.8352 21.8671 30.8857C22.9765 31.789 24.2202 32.4981 25.8514 33.0684L26.2491 30.0226C23.1259 28.7382 21.8974 27.7642 22.0342 26.6943C22.1735 25.6142 24.1366 25.3367 26.7151 26.0609L26.7683 25.6546C26.781 25.5158 27.0242 25.4679 27.2927 25.5436C27.5764 25.6269 27.7967 25.8136 27.779 25.9524L27.7233 26.3763C29.2329 26.8886 30.2942 27.4664 31.3783 28.231C31.5607 28.3622 31.6544 28.4556 31.6392 28.5616C31.619 28.7105 31.3631 28.7534 31.0718 28.6701C30.9325 28.6297 30.8312 28.5868 30.6919 28.4808C29.7091 27.7617 28.7238 27.2494 27.6169 26.8583L27.2293 29.8511V29.8561ZM30.4462 32.9221C30.5425 32.1827 29.8586 31.5165 27.1559 30.4012L26.7785 33.3536C28.8884 33.9516 30.3373 33.7346 30.4462 32.9221ZM26.3149 29.4776L26.6949 26.5605C24.6457 25.9801 23.2171 26.2047 23.1183 26.9718C23.0246 27.6986 23.6376 28.3471 26.3149 29.4776Z" fill="black"/>
</g>
<path d="M28.0525 24.1029C43.5112 28.5038 43.3288 41.2496 27.3483 37.1112C27.095 37.0455 26.8443 36.9774 26.5986 36.9068C20.1826 35.0823 16.4642 31.8195 15.4561 28.9227C16.601 31.6051 20.1319 34.5474 26.021 36.2229C26.2541 36.2885 26.4896 36.3541 26.7277 36.4147C42.0674 40.3891 42.2421 28.1581 27.4091 23.9364C27.2723 23.8985 27.133 23.8582 26.9937 23.8203C27.0976 23.8405 27.2039 23.8708 27.3129 23.8985C27.5636 23.9641 27.8118 24.0298 28.055 24.1004L28.0525 24.1029Z" fill="#FFC727"/>
<g opacity="0.1">
<path d="M28.0525 24.1029C43.5112 28.5038 43.3288 41.2496 27.3483 37.1112C27.095 37.0455 26.8443 36.9774 26.5986 36.9068C20.1826 35.0823 16.4642 31.8195 15.4561 28.9227C16.601 31.6051 20.1319 34.5474 26.021 36.2229C26.2541 36.2885 26.4896 36.3541 26.7277 36.4147C42.0674 40.3891 42.2421 28.1581 27.4091 23.9364C27.2723 23.8985 27.133 23.8582 26.9937 23.8203C27.0976 23.8405 27.2039 23.8708 27.3129 23.8985C27.5636 23.9641 27.8118 24.0298 28.055 24.1004L28.0525 24.1029Z" fill="black"/>
</g>
<path d="M61.7055 42.782L63.9674 45.0001C62.7896 43.8444 59.284 45.0254 54.831 49.5297C54.6942 49.6685 54.5575 49.8098 54.4182 49.9536C54.3574 50.0167 54.2991 50.0772 54.2434 50.1378L51.9814 47.9197C52.0372 47.8592 52.0954 47.7961 52.1562 47.7355C52.2955 47.5917 52.4323 47.4504 52.5691 47.3116C57.022 42.8073 60.5251 41.6263 61.7055 42.782Z" fill="#FFC727"/>
<path d="M60.9785 43.3402L63.2405 45.5583C62.1108 44.448 58.747 45.581 54.4764 49.9036C54.4004 49.9819 54.3219 50.0626 54.2434 50.1408L51.9814 47.9228C52.06 47.842 52.136 47.7638 52.2145 47.6856C56.4851 43.3629 59.8463 42.2299 60.9785 43.3402Z" fill="#FFC727"/>
<path d="M55.0844 50.4486C55.0844 50.4486 55.0819 50.4511 55.0793 50.4536C54.3245 49.7142 53.5722 48.9749 52.8174 48.2355C52.8174 48.2355 52.8199 48.233 52.8224 48.2305C53.5013 48.8967 54.4055 49.7824 55.0844 50.4486Z" fill="#FFC727"/>
<path d="M55.0819 50.4525C54.9274 50.6114 54.8413 50.7805 54.8869 50.8335L52.6249 48.6154C52.5768 48.5624 52.6655 48.3934 52.82 48.2344C52.8985 48.3126 53.0049 48.4161 53.0834 48.4943C53.167 48.5776 53.2784 48.6861 53.3646 48.7693C53.4507 48.8551 53.5672 48.9687 53.6558 49.0545C53.7445 49.1428 53.8636 49.2589 53.9522 49.3447C54.0409 49.433 54.1599 49.5491 54.2486 49.6349C54.3347 49.7207 54.4512 49.8342 54.5399 49.92C54.6234 50.0033 54.7349 50.1118 54.821 50.1951C54.8995 50.2733 55.0059 50.3768 55.0844 50.455L55.0819 50.4525Z" fill="#FFC727"/>
<path d="M53.1971 48.0379L55.459 50.256C55.4083 50.2055 55.2386 50.2913 55.0866 50.4453L52.8247 48.2272C52.9792 48.0733 53.1464 47.9875 53.1971 48.0379Z" fill="#FFC727"/>
<path d="M53.1973 48.043L55.4592 50.2611L55.6061 50.4226L53.3442 48.2045L53.1973 48.043Z" fill="#FFC727"/>
<path d="M53.1973 48.0391L55.4592 50.2571V50.2597L53.1973 48.0416V48.0391Z" fill="#FFC727"/>
<path d="M52.625 48.6133L54.8869 50.8339L55.0263 50.9878L52.7643 48.7697L52.625 48.6133Z" fill="#FFC727"/>
<path d="M55.0261 50.9876C54.5626 51.457 54.1725 51.9162 53.8635 52.3376C53.1087 51.5983 52.3564 50.8589 51.6016 50.1196C51.9106 49.6982 52.3032 49.2414 52.7642 48.7695C53.443 49.4357 54.3473 50.3214 55.0261 50.9876Z" fill="#FFC727"/>
<path d="M53.6735 52.1788C52.9795 51.4975 52.2829 50.8162 51.5889 50.1348C51.5939 50.1298 51.599 50.1222 51.6015 50.1172C51.6801 50.1954 51.7864 50.2989 51.865 50.3771C51.9485 50.4604 52.06 50.5689 52.1461 50.6522C52.2322 50.7379 52.3488 50.8515 52.4374 50.9373C52.5261 51.0256 52.6451 51.1417 52.7338 51.2275C52.8224 51.3158 52.9415 51.4319 53.0301 51.5177C53.1162 51.6035 53.2328 51.717 53.3214 51.8028C53.405 51.8861 53.5165 51.9946 53.6026 52.0779C53.6811 52.1561 53.7875 52.2596 53.866 52.3378C53.8609 52.3428 53.8559 52.3504 53.8533 52.3555C53.7951 52.2974 53.7343 52.2394 53.676 52.1813L53.6735 52.1788Z" fill="#FFC727"/>
<path d="M55.7327 46.3633L57.9947 48.5814C57.2019 49.0633 56.4901 49.5857 55.6086 50.4209L53.3467 48.2029C54.2307 47.3676 54.9399 46.8453 55.7327 46.3633Z" fill="#FFC727"/>
<path d="M53.8508 52.3548C53.4911 52.8494 53.2479 53.2885 53.1491 53.6291C52.3943 52.8898 51.642 52.1504 50.8872 51.411C50.986 51.0704 51.2292 50.6313 51.5888 50.1367C51.642 50.1897 51.713 50.2604 51.7661 50.3108C51.794 50.3386 51.832 50.3739 51.8599 50.4017C51.9181 50.4597 51.9941 50.5354 52.0524 50.5909C52.0828 50.6212 52.1208 50.6591 52.1512 50.6868C52.2119 50.7449 52.2905 50.8231 52.3513 50.8837C52.3817 50.9139 52.4222 50.9518 52.4526 50.9821C52.5134 51.0401 52.5919 51.1183 52.6502 51.1764C52.6805 51.2041 52.7185 51.2445 52.7489 51.2723C52.8047 51.3278 52.8807 51.401 52.9389 51.459C52.9668 51.4867 53.0022 51.5221 53.0301 51.5473C53.0656 51.5826 53.1137 51.6281 53.1491 51.6634C53.1593 51.6735 53.1719 51.6861 53.1821 51.6962C53.2023 51.7164 53.2277 51.7416 53.2479 51.7618C53.2581 51.7719 53.2707 51.7845 53.2834 51.7946C53.3037 51.8148 53.3315 51.8426 53.3543 51.8627C53.3644 51.8728 53.3796 51.888 53.3898 51.8981C53.41 51.9183 53.4404 51.9485 53.4607 51.9687C53.4708 51.9788 53.486 51.994 53.4962 52.0041C53.5164 52.0242 53.5468 52.0545 53.5671 52.0747C53.5772 52.0848 53.5924 52.0999 53.6025 52.11C53.6228 52.1302 53.6507 52.158 53.6735 52.1782C53.676 52.1807 53.6811 52.1857 53.6861 52.1908C53.6937 52.1984 53.7013 52.2059 53.7089 52.2135C53.7115 52.216 53.7165 52.2211 53.7216 52.2236C53.7292 52.2312 53.7368 52.2387 53.7444 52.2463C53.7469 52.2488 53.752 52.2539 53.7545 52.2564C53.7621 52.264 53.7697 52.2715 53.7773 52.2791C53.7799 52.2816 53.7849 52.2867 53.7875 52.2892C53.7951 52.2968 53.8026 52.3043 53.8102 52.3094C53.8128 52.3119 53.8178 52.317 53.8204 52.3195C53.828 52.3245 53.8356 52.3346 53.8406 52.3397C53.8432 52.3422 53.8482 52.3472 53.8508 52.3498V52.3548Z" fill="#FFC727"/>
<path d="M53.1011 53.5929C52.3615 52.8687 51.6244 52.1445 50.8848 51.4177C50.8848 51.4152 50.8848 51.4127 50.8848 51.4102C51.6396 52.1495 52.3919 52.8889 53.1467 53.6282C53.1467 53.6308 53.1467 53.6333 53.1467 53.6358C53.1315 53.6207 53.1163 53.6055 53.1011 53.5904V53.5929Z" fill="#FFC727"/>
<path d="M55.9858 46.2852L58.2477 48.5033C58.2098 48.4654 58.1262 48.5008 57.9919 48.579L55.73 46.3609C55.8642 46.2802 55.9453 46.2474 55.9858 46.2852Z" fill="#FFC727"/>
<path d="M55.5276 46.8867L57.7896 49.1048C57.0575 49.5338 56.4116 50.0233 55.7556 50.634L53.4937 48.4159C54.1497 47.8052 54.7956 47.3157 55.5276 46.8867Z" fill="#FFC727"/>
<path d="M53.1465 53.6361C53.1212 53.7269 53.1034 53.8127 53.0984 53.8884C52.3435 53.149 51.5912 52.4097 50.8364 51.6703C50.8415 51.5946 50.8567 51.5088 50.8846 51.418C50.9073 51.4407 50.9403 51.471 50.9631 51.4937C50.9757 51.5063 50.9909 51.5214 51.0036 51.534C51.0289 51.5593 51.0619 51.5921 51.0872 51.6173C51.0999 51.6299 51.1176 51.6476 51.1303 51.6602C51.1556 51.6855 51.191 51.7208 51.2189 51.746C51.2316 51.7586 51.2493 51.7763 51.262 51.7889C51.2873 51.8141 51.3228 51.8495 51.3481 51.8747C51.3608 51.8873 51.3785 51.905 51.3911 51.9176C51.7027 52.2229 52.0117 52.5258 52.3233 52.8311C52.3841 52.8916 52.4651 52.9699 52.5259 53.0279C52.5563 53.0582 52.5968 53.096 52.6247 53.1263C52.683 53.1844 52.7615 53.2601 52.8197 53.3181C52.8476 53.3459 52.8856 53.3837 52.916 53.4115C52.9717 53.4645 53.0452 53.5376 53.0984 53.5906C53.0984 53.5906 53.0984 53.5906 53.1009 53.5932L53.106 53.5982C53.106 53.5982 53.106 53.5982 53.1085 53.6007L53.1136 53.6058C53.1136 53.6058 53.1136 53.6058 53.1161 53.6083L53.1212 53.6133C53.1212 53.6133 53.1212 53.6133 53.1237 53.6159L53.1288 53.6209C53.1288 53.6209 53.1288 53.6209 53.1313 53.6234L53.1364 53.6285C53.1364 53.6285 53.1364 53.6285 53.1389 53.631L53.1465 53.6361Z" fill="#FFC727"/>
<path d="M55.9858 46.2852L58.2477 48.5032C58.2984 48.5588 58.1996 48.7455 58.035 48.9095C57.9565 48.9877 57.8931 49.0433 57.7893 49.1013L55.5273 46.8832C55.6337 46.8252 55.6945 46.7697 55.773 46.6914C55.9377 46.5249 56.0365 46.3407 55.9858 46.2852Z" fill="#FFC727"/>
<path d="M53.0984 53.89C53.0984 53.9127 53.0984 53.9354 53.0984 53.9581C52.3435 53.2187 51.5912 52.4794 50.8364 51.74C50.8364 51.7173 50.8364 51.6946 50.8364 51.6719C50.9149 51.7501 51.0213 51.8536 51.0999 51.9318C51.1834 52.0151 51.2949 52.1236 51.381 52.2068C51.4671 52.2926 51.5837 52.4062 51.6723 52.492C51.761 52.5803 51.88 52.6964 51.9687 52.7822C52.3461 53.1531 52.7235 53.5215 53.0984 53.8925V53.89Z" fill="#FFC727"/>
<path d="M53.7999 53.6232L51.5379 51.4052C51.5379 51.4052 51.5278 51.3951 51.5227 51.39C51.2568 51.0973 51.8039 50.098 52.9564 48.9297L55.2183 51.1478C54.0658 52.3161 53.5162 53.3154 53.7847 53.6081C53.7897 53.6131 53.7948 53.6182 53.7999 53.6232Z" fill="#FFC727"/>
<path d="M53.1921 54.2314C53.1921 54.2314 53.2047 54.244 53.2098 54.2516L50.9479 52.0335C50.9479 52.0335 50.9352 52.0209 50.9301 52.0133C50.8694 51.9452 50.839 51.8544 50.8364 51.7383C50.9149 51.8165 51.0213 51.92 51.0999 51.9982C51.1834 52.0815 51.2949 52.19 51.381 52.2732C51.4671 52.359 51.5837 52.4726 51.6723 52.5584C51.761 52.6467 51.88 52.7628 51.9687 52.8486C52.0573 52.9369 52.1764 53.053 52.265 53.1388C52.3511 53.2246 52.4677 53.3381 52.5563 53.4239C52.6399 53.5072 52.7513 53.6157 52.8375 53.699C52.916 53.7772 53.0224 53.8807 53.1009 53.9589C53.1009 54.0724 53.1338 54.1658 53.1946 54.2339L53.1921 54.2314Z" fill="#FFC727"/>
<path d="M53.8 53.6198L51.5381 51.4017C51.7964 51.654 52.3461 51.4244 53.9697 50.0391L56.2317 52.2571C54.608 53.6425 54.0584 53.8747 53.8 53.6198Z" fill="#FFC727"/>
<path d="M52.9565 48.9297L55.2185 51.1478L56.2317 52.2606L53.9697 50.0425L52.9565 48.9297Z" fill="#FFC727"/>
<path d="M52.9565 48.9297L53.9671 50.0425C52.3131 51.4556 51.7736 51.6676 51.5203 51.39C51.2543 51.0973 51.8014 50.098 52.9539 48.9297H52.9565Z" fill="#FFC727"/>
<path d="M53.4937 48.4141L55.7556 50.6321L56.7941 51.7727L54.5322 49.5521L53.4937 48.4141Z" fill="#FFC727"/>
<path d="M53.2097 54.2508L50.9478 52.0327C51.3277 52.4061 52.2776 51.8787 54.1596 50.2461L56.4215 52.4642C54.537 54.0943 53.5896 54.6242 53.2097 54.2508Z" fill="#FFC727"/>
<path d="M58.8687 50.1712C58.3519 50.4816 57.6731 51.009 56.7942 51.7761L54.5322 49.558C55.4112 48.7934 56.09 48.266 56.6067 47.9531C56.6852 48.0314 56.7916 48.1348 56.8702 48.213C56.9537 48.2963 57.0652 48.4048 57.1513 48.4881C57.2374 48.5739 57.3539 48.6874 57.4426 48.7732C57.5313 48.8616 57.6503 48.9776 57.739 49.0634C58.1164 49.4344 58.4938 49.8028 58.8687 50.1737V50.1712Z" fill="#FFC727"/>
<path d="M58.9266 50.1321C58.9064 50.1448 58.8861 50.1549 58.8684 50.1675C58.1136 49.4281 57.3613 48.6888 56.6064 47.9494C56.6267 47.9368 56.647 47.9267 56.6647 47.9141C56.7002 47.9494 56.7508 47.9973 56.7863 48.0352C56.8066 48.0528 56.8319 48.0781 56.8496 48.0983C56.8901 48.1361 56.9408 48.1891 56.9813 48.227C57.0016 48.2472 57.0295 48.2724 57.0472 48.2926C57.0877 48.3329 57.1434 48.3859 57.184 48.4263C57.2042 48.4465 57.2321 48.4743 57.2524 48.4944C57.2929 48.5348 57.3486 48.5903 57.3917 48.6307C57.4119 48.6509 57.4398 48.6787 57.4601 48.6988C57.5006 48.7392 57.5563 48.7922 57.5968 48.8326C57.6171 48.8528 57.645 48.878 57.6627 48.8982C57.688 48.9234 57.7209 48.9537 57.7463 48.9789C57.7513 48.984 57.7589 48.989 57.7615 48.9941C57.7716 49.0042 57.7843 49.0168 57.7944 49.0269C57.7995 49.0319 57.8045 49.037 57.8096 49.042C57.8197 49.0521 57.8324 49.0647 57.8425 49.0723C57.8476 49.0774 57.8527 49.0824 57.8577 49.0875C57.8679 49.0975 57.8805 49.1102 57.8881 49.1177C57.8932 49.1228 57.8983 49.1278 57.9033 49.1329C57.9135 49.143 57.9261 49.1531 57.9337 49.1632C57.9388 49.1682 57.9439 49.1732 57.9489 49.1783C57.959 49.1859 57.9692 49.1985 57.9793 49.2086C57.9945 49.2237 58.0173 49.2464 58.0325 49.2616C58.0654 49.2944 58.111 49.3398 58.1465 49.3726C58.1642 49.3903 58.187 49.413 58.2047 49.4306C58.2402 49.466 58.2883 49.5139 58.3263 49.5492C58.3441 49.5669 58.3694 49.5921 58.3871 49.6098C58.4251 49.6451 58.4732 49.6956 58.5112 49.7309C58.529 49.7486 58.5543 49.7738 58.572 49.7915C58.6075 49.8268 58.6556 49.8748 58.6936 49.9101C58.7113 49.9277 58.7341 49.9505 58.7519 49.9681C58.7848 50.0009 58.8304 50.0464 58.8658 50.0792C58.881 50.0943 58.9038 50.117 58.919 50.1321H58.9266Z" fill="#FFC727"/>
<path d="M57.9846 49.2075C57.5464 48.776 57.1057 48.3445 56.6675 47.9155C56.8549 47.807 57.017 47.7262 57.1614 47.6758C57.2399 47.754 57.3463 47.8575 57.4248 47.9357C57.4654 47.9761 57.5211 48.0316 57.5641 48.072C57.6503 48.1552 57.7643 48.2688 57.8504 48.3521C57.8934 48.395 57.9517 48.453 57.9973 48.4959C58.4735 48.9627 58.9497 49.4296 59.4233 49.8964C59.2815 49.9469 59.1169 50.0276 58.9294 50.1361C58.6153 49.8283 58.3012 49.5204 57.9846 49.21V49.2075Z" fill="#FFC727"/>
<path d="M59.4941 49.8704C59.4713 49.878 59.446 49.8856 59.4206 49.8957C58.6658 49.1563 57.9135 48.4169 57.1587 47.6776C57.184 47.6675 57.2093 47.6599 57.2321 47.6523C57.2853 47.7053 57.3563 47.7735 57.4095 47.8265C57.4652 47.882 57.5412 47.9552 57.5969 48.0107C57.6552 48.0687 57.7337 48.1444 57.7919 48.2025C57.8502 48.2605 57.9312 48.3387 57.9895 48.3968C58.0478 48.4548 58.1288 48.533 58.1871 48.5911C58.2453 48.6491 58.3239 48.7248 58.3821 48.7828C58.4378 48.8384 58.5138 48.9115 58.5695 48.967C58.6227 49.02 58.6937 49.0882 58.7469 49.1412C58.7722 49.1664 58.8076 49.2017 58.8355 49.227C58.8634 49.2547 58.9014 49.29 58.9292 49.3178C58.9571 49.3456 58.9976 49.3834 59.0255 49.4112C59.0559 49.4389 59.0939 49.4793 59.1243 49.5071C59.1547 49.5348 59.1927 49.5752 59.2231 49.6029C59.2509 49.6307 59.2914 49.6686 59.3193 49.6963C59.3472 49.7241 59.3852 49.7594 59.413 49.7872C59.4384 49.8124 59.4738 49.8477 59.5017 49.873L59.4941 49.8704Z" fill="#FFC727"/>
<path d="M59.4944 49.8713C58.7395 49.1319 57.9872 48.3926 57.2324 47.6532C57.392 47.6053 57.5262 47.5977 57.6301 47.6254C57.7086 47.7037 57.815 47.8071 57.8935 47.8854C57.9771 47.9686 58.0886 48.0771 58.1747 48.1604C58.2608 48.2462 58.3773 48.3598 58.466 48.4455C58.5546 48.5339 58.6737 48.6499 58.7623 48.7357C58.851 48.8241 58.97 48.9401 59.0587 49.0259C59.1448 49.1117 59.2613 49.2253 59.35 49.3111C59.4336 49.3944 59.545 49.5029 59.6311 49.5861C59.7097 49.6644 59.816 49.7678 59.8946 49.846C59.7882 49.8158 59.6565 49.8233 59.4969 49.8738L59.4944 49.8713Z" fill="#FFC727"/>
<path d="M60.0539 49.9365C60.0083 49.8936 59.9551 49.8608 59.8918 49.8431C59.137 49.1037 58.3847 48.3644 57.6299 47.625C57.6932 47.6427 57.7464 47.6729 57.792 47.7184C58.4708 48.3846 59.3751 49.2703 60.0539 49.9365Z" fill="#FFC727"/>
<path d="M57.1994 48.3452L59.4613 50.5633C59.1979 50.3059 58.6128 50.5709 56.9841 51.979L54.7222 49.7609C56.3509 48.3528 56.936 48.0879 57.1994 48.3452Z" fill="#FFC727"/>
<path d="M57.1992 48.3438L59.4612 50.5618C59.4612 50.5618 59.4713 50.5719 59.4738 50.577L57.2119 48.3589C57.2119 48.3589 57.2018 48.3488 57.1992 48.3438Z" fill="#FFC727"/>
<path d="M52.5487 53.3672L54.8107 55.5853C54.7651 55.608 54.6764 55.666 54.57 55.772L52.3081 53.5539C52.4145 53.4479 52.5031 53.3899 52.5487 53.3672Z" fill="#FFC727"/>
<path d="M54.57 55.7702C54.4129 55.9292 54.3167 56.1185 54.3623 56.1715L52.1003 53.9534C52.0522 53.9004 52.1485 53.7137 52.3055 53.5547C53.0553 54.2915 53.805 55.0258 54.5573 55.7627C53.8076 55.0258 53.0578 54.2915 52.3055 53.5547C52.9843 54.2209 53.8886 55.1066 54.5674 55.7728L54.57 55.7702Z" fill="#FFC727"/>
<path d="M55.2186 51.4062L57.4805 53.6243C56.518 54.5252 55.672 55.1283 54.8108 55.585L52.5488 53.3669C53.41 52.9102 54.256 52.3071 55.2186 51.4062Z" fill="#FFC727"/>
<path d="M54.1597 50.2461L56.4216 52.4667L57.4804 53.625L55.2184 51.4069L54.1597 50.2461Z" fill="#FFC727"/>
<path d="M54.7222 49.7617L56.9841 51.9798L58.01 53.1052L55.748 50.8872L54.7222 49.7617Z" fill="#FFC727"/>
<path d="M57.2146 48.3594L59.4766 50.5775C59.7603 50.8853 59.1954 51.9023 58.01 53.1034L55.748 50.8853C56.9335 49.6842 57.4983 48.6672 57.2146 48.3594Z" fill="#FFC727"/>
<path d="M57.2145 48.3604C57.4982 48.6683 56.9334 49.6852 55.7479 50.8864L54.7246 49.7609C56.3837 48.3276 56.9587 48.0778 57.2145 48.3604Z" fill="#FFC727"/>
<path d="M55.3604 51.6172L57.6224 53.8353C56.5585 54.8446 55.5935 55.5613 54.5752 56.1265C54.4688 56.1846 54.4004 56.2098 54.365 56.1745L52.103 53.9564C52.1385 53.9917 52.2069 53.969 52.3133 53.9085C53.3315 53.3432 54.2966 52.6266 55.3604 51.6172Z" fill="#FFC727"/>
<path d="M57.7921 47.7188L60.0541 49.9368C60.0541 49.9368 60.0642 49.9469 60.0693 49.952C60.4644 50.381 59.6766 51.7512 58.1999 53.2602L55.938 51.0421C57.4147 49.5331 58.2025 48.1654 57.8073 47.7339C57.8023 47.7288 57.7972 47.7238 57.7921 47.7188Z" fill="#FFC727"/>
<path d="M53.4101 58.597C52.5134 59.0209 51.7485 59.2127 51.1482 59.195L48.8862 56.977C49.4865 56.9946 50.2515 56.8003 51.1482 56.3789C51.2267 56.4571 51.3331 56.5606 51.4116 56.6388C51.4952 56.7221 51.6066 56.8306 51.6928 56.9139C51.7789 56.9997 51.8954 57.1132 51.984 57.199C52.0727 57.2873 52.1917 57.4034 52.2804 57.4892C52.3691 57.5775 52.4881 57.6936 52.5768 57.7794C52.6629 57.8652 52.7794 57.9788 52.868 58.0646C52.9516 58.1478 53.0631 58.2563 53.1492 58.3396C53.2277 58.4178 53.3341 58.5213 53.4126 58.5995L53.4101 58.597Z" fill="#FFC727"/>
<path d="M55.3604 51.6172L57.6198 53.8353L57.9161 54.1557L55.6542 51.9377L55.3604 51.6172Z" fill="#FFC727"/>
<path d="M57.9188 54.1556L55.6568 51.9375H55.6543L57.9162 54.1556H57.9188Z" fill="#FFC727"/>
<path d="M55.938 51.043L58.1999 53.2611L58.4887 53.5815L56.2267 51.3634L55.938 51.043Z" fill="#FFC727"/>
<path d="M53.8684 58.3651C53.7113 58.4484 53.5593 58.5266 53.4099 58.5948C52.6551 57.8554 51.9028 57.116 51.1479 56.3767C51.2974 56.306 51.4494 56.2303 51.6064 56.1445C52.3612 56.8839 53.1135 57.6233 53.8684 58.3626V58.3651Z" fill="#FFC727"/>
<path d="M57.9187 54.1534L55.6567 51.9354C55.7074 51.9858 55.8771 51.9 56.0291 51.7461L58.291 53.9642C58.1365 54.1181 57.9693 54.2039 57.9187 54.1534Z" fill="#FFC727"/>
<path d="M56.2269 51.3633L58.4888 53.5814C58.5369 53.6344 58.4457 53.811 58.2912 53.9675L56.0293 51.7494C56.1838 51.5929 56.275 51.4163 56.2269 51.3633Z" fill="#FFC727"/>
<path d="M54.5322 49.5556C56.4674 47.8699 57.4426 47.3349 57.8073 47.7362C58.2025 48.1652 57.4147 49.5354 55.938 51.0444L56.2268 51.3623C56.2749 51.4153 56.1837 51.592 56.0292 51.7484C55.8747 51.9049 55.7024 51.9881 55.6543 51.9351L55.358 51.6147C54.2941 52.624 53.3291 53.3407 52.3108 53.9059C52.2044 53.964 52.136 53.9892 52.1006 53.9539C52.0524 53.9009 52.1487 53.7116 52.3032 53.5577C52.4147 53.4467 52.5033 53.3886 52.5489 53.3659C53.4101 52.9092 54.2561 52.3061 55.2186 51.4052L54.1599 50.247C52.245 51.9049 51.2976 52.4222 50.9278 52.0134C50.5529 51.602 51.3154 50.2394 52.7642 48.7682L52.6249 48.6118C52.5768 48.5588 52.6654 48.3872 52.8174 48.2333C52.9795 48.0718 53.1492 47.986 53.1973 48.039L53.3443 48.2005C54.2283 47.3652 54.9375 46.8429 55.7303 46.3609C55.8646 46.2802 55.9456 46.2474 55.9861 46.2852C56.0368 46.3407 55.938 46.5275 55.7734 46.6915C55.6948 46.7697 55.6315 46.8252 55.5277 46.8833C54.7956 47.3122 54.1497 47.8018 53.4937 48.4124L54.5322 49.553V49.5556ZM57.2146 48.3595C56.9588 48.0768 56.3813 48.3266 54.7247 49.76L55.748 50.8854C56.9335 49.6842 57.4983 48.6673 57.2146 48.3595ZM53.9699 50.0401L52.9592 48.9272C51.8067 50.0956 51.2571 51.0948 51.5256 51.3876C51.7789 51.6651 52.3184 51.4532 53.9724 50.0401" fill="#FFC727"/>
<g opacity="0.1">
<path d="M54.5322 49.5556C56.4674 47.8699 57.4426 47.3349 57.8073 47.7362C58.2025 48.1652 57.4147 49.5354 55.938 51.0444L56.2268 51.3623C56.2749 51.4153 56.1837 51.592 56.0292 51.7484C55.8747 51.9049 55.7024 51.9881 55.6543 51.9351L55.358 51.6147C54.2941 52.624 53.3291 53.3407 52.3108 53.9059C52.2044 53.964 52.136 53.9892 52.1006 53.9539C52.0524 53.9009 52.1487 53.7116 52.3032 53.5577C52.4147 53.4467 52.5033 53.3886 52.5489 53.3659C53.4101 52.9092 54.2561 52.3061 55.2186 51.4052L54.1599 50.247C52.245 51.9049 51.2976 52.4222 50.9278 52.0134C50.5529 51.602 51.3154 50.2394 52.7642 48.7682L52.6249 48.6118C52.5768 48.5588 52.6654 48.3872 52.8174 48.2333C52.9795 48.0718 53.1492 47.986 53.1973 48.039L53.3443 48.2005C54.2283 47.3652 54.9375 46.8429 55.7303 46.3609C55.8646 46.2802 55.9456 46.2474 55.9861 46.2852C56.0368 46.3407 55.938 46.5275 55.7734 46.6915C55.6948 46.7697 55.6315 46.8252 55.5277 46.8833C54.7956 47.3122 54.1497 47.8018 53.4937 48.4124L54.5322 49.553V49.5556ZM57.2146 48.3595C56.9588 48.0768 56.3813 48.3266 54.7247 49.76L55.748 50.8854C56.9335 49.6842 57.4983 48.6673 57.2146 48.3595ZM53.9699 50.0401L52.9592 48.9272C51.8067 50.0956 51.2571 51.0948 51.5256 51.3876C51.7789 51.6651 52.3184 51.4532 53.9724 50.0401" fill="black"/>
</g>
<path d="M54.3473 58.0956C54.1827 58.1915 54.0231 58.2823 53.866 58.3656C53.7875 58.2874 53.6811 58.1839 53.6026 58.1057C53.5621 58.0653 53.5064 58.0098 53.4633 57.9694C53.3772 57.8862 53.2632 57.7726 53.1771 57.6893C53.0884 57.6035 52.9719 57.4875 52.8832 57.4017C52.8376 57.3588 52.7794 57.3007 52.7338 57.2553C52.6451 57.167 52.5261 57.0509 52.4374 56.9651C52.1588 56.6926 51.8802 56.4201 51.6016 56.145C51.7586 56.0617 51.9182 55.9709 52.0828 55.875C52.4602 56.2459 52.8376 56.6144 53.2125 56.9853C53.3012 57.0736 53.4202 57.1897 53.5089 57.2755C53.7875 57.548 54.0661 57.8206 54.3448 58.0956H54.3473Z" fill="#FFC727"/>
<path d="M58.8332 54.4505C57.1766 56.126 55.6568 57.3246 54.3498 58.0968C53.595 57.3574 52.8427 56.6181 52.0879 55.8787C53.3949 55.1065 54.9172 53.9079 56.5712 52.2324C56.7029 52.1011 56.8321 51.9649 56.9664 51.8261C61.1052 47.501 62.0602 44.3972 60.9811 43.3398L63.2431 45.5579C64.3221 46.6178 63.3697 49.7216 59.2283 54.0442C59.0966 54.183 58.9649 54.3167 58.8332 54.4505Z" fill="#FFC727"/>
<path d="M52.103 46.8284C62.592 36.2124 68.7142 40.9085 58.0732 52.0266C57.906 52.2008 57.7389 52.3724 57.5742 52.5389C47.0852 63.1549 40.9605 58.4563 51.604 47.3407C51.7712 47.1665 51.9384 46.995 52.103 46.8284ZM57.5261 51.6254C66.356 42.3998 61.2749 38.5062 52.5716 47.3104C52.4348 47.4492 52.298 47.5905 52.1587 47.7343C52.0979 47.7974 52.0397 47.858 51.984 47.9185C52.0625 47.8378 52.1385 47.7595 52.217 47.6813C60.5656 39.2329 65.4416 42.9701 56.9663 51.8222C56.8346 51.961 56.7029 52.0948 56.5712 52.2285C53.258 55.5796 50.487 57.018 48.8861 56.9751C50.5098 57.1744 53.4987 55.7083 57.1081 52.0544C57.2475 51.9131 57.3868 51.7718 57.5261 51.6254ZM52.3107 53.5508C52.1537 53.7098 52.0574 53.899 52.103 53.952C52.1385 53.9873 52.2069 53.9646 52.3132 53.9041C53.3315 53.3388 54.2966 52.6222 55.3604 51.6128L55.6568 51.9333C55.7049 51.9863 55.8771 51.9005 56.0316 51.7465C56.1861 51.5901 56.2773 51.4135 56.2292 51.3605L55.9404 51.0425C57.4172 49.5335 58.2049 48.1658 57.8098 47.7343C57.445 47.3356 56.4698 47.8681 54.5347 49.5537L53.4961 48.4131C54.1522 47.8024 54.7981 47.3129 55.5301 46.8839C55.6365 46.8259 55.6973 46.7704 55.7707 46.6972C55.9404 46.5256 56.0418 46.3414 55.9886 46.2833C55.9506 46.2455 55.867 46.2808 55.7327 46.359C54.9399 46.841 54.2282 47.3634 53.3467 48.1986L53.1998 48.0371C53.1517 47.9841 52.9794 48.0699 52.8249 48.2239C52.6679 48.3828 52.5792 48.5569 52.6273 48.6074L52.7666 48.7639C51.3203 50.235 50.5554 51.5977 50.9302 52.009C51.2975 52.4178 52.2474 51.9005 54.1623 50.2426L55.2211 51.4008C54.2586 52.3017 53.4125 52.9048 52.5513 53.3615C52.5057 53.3842 52.4171 53.4423 52.3107 53.5483" fill="#FFC727"/>
<path d="M52.5692 47.3111C61.27 38.5068 66.3536 42.4005 57.5237 51.6261C57.3844 51.7725 57.2451 51.9163 57.1058 52.0551C53.4963 55.709 50.5074 57.1751 48.8838 56.9757C50.4846 57.0186 53.2582 55.5828 56.5688 52.2292C56.7005 52.098 56.8297 51.9617 56.9639 51.8229C65.4392 42.9708 60.5633 39.2336 52.2146 47.682C52.1386 47.7602 52.0601 47.841 51.9816 47.9192C52.0373 47.8586 52.0956 47.7955 52.1564 47.735C52.2957 47.5911 52.4325 47.4498 52.5692 47.3111Z" fill="#FFC727"/>
<g opacity="0.1">
<path d="M52.5692 47.3111C61.27 38.5068 66.3536 42.4005 57.5237 51.6261C57.3844 51.7725 57.2451 51.9163 57.1058 52.0551C53.4963 55.709 50.5074 57.1751 48.8838 56.9757C50.4846 57.0186 53.2582 55.5828 56.5688 52.2292C56.7005 52.098 56.8297 51.9617 56.9639 51.8229C65.4392 42.9708 60.5633 39.2336 52.2146 47.682C52.1386 47.7602 52.0601 47.841 51.9816 47.9192C52.0373 47.8586 52.0956 47.7955 52.1564 47.735C52.2957 47.5911 52.4325 47.4498 52.5692 47.3111Z" fill="black"/>
</g>
<path d="M63.1138 41.3672L65.3757 43.5853C66.7308 44.9151 65.5327 48.8138 60.3376 54.2442C60.1705 54.4183 60.0033 54.5899 59.8386 54.7564C54.4713 60.1868 50.2488 61.6101 48.8279 60.2171L46.5659 57.999C47.9869 59.392 52.2094 57.9688 57.5767 52.5384C57.7414 52.3718 57.9085 52.2002 58.0757 52.0261C63.2733 46.5957 64.4714 42.6996 63.1138 41.3672Z" fill="#FFC727"/>
<g opacity="0.1">
<path d="M63.1138 41.3672L65.3757 43.5853C66.7308 44.9151 65.5327 48.8138 60.3376 54.2442C60.1705 54.4183 60.0033 54.5899 59.8386 54.7564C54.4713 60.1868 50.2488 61.6101 48.8279 60.2171L46.5659 57.999C47.9869 59.392 52.2094 57.9688 57.5767 52.5384C57.7414 52.3718 57.9085 52.2002 58.0757 52.0261C63.2733 46.5957 64.4714 42.6996 63.1138 41.3672Z" fill="black"/>
</g>
</g>
<defs>
<clipPath id="clip0_6104_5611">
<rect width="73" height="66" fill="white"/>
</clipPath>
</defs>
</svg>
