<svg width="7" height="8" viewBox="0 0 7 8" fill="none" xmlns="http://www.w3.org/2000/svg">
<path d="M2.03437 7.79619C1.97566 7.77263 1.92687 7.73116 1.8957 7.67832C1.86454 7.62548 1.85276 7.56428 1.86224 7.50437L2.38437 4.27259H0.998706C0.954776 4.27372 0.911162 4.26523 0.871228 4.24779C0.831295 4.23035 0.796109 4.20443 0.768387 4.17201C0.740665 4.1396 0.721147 4.10156 0.711338 4.06084C0.70153 4.02012 0.701694 3.9778 0.711817 3.93714L1.57248 0.391735C1.58763 0.330719 1.62442 0.276525 1.67667 0.238277C1.72893 0.200029 1.79345 0.180063 1.85937 0.181738H4.72825C4.77111 0.1816 4.81346 0.190592 4.85218 0.208054C4.89091 0.225516 4.92502 0.251004 4.95202 0.282646C4.97941 0.314645 4.9988 0.352132 5.00874 0.392285C5.01867 0.432439 5.0189 0.474212 5.0094 0.514461L4.51308 2.63625H5.8758C5.92957 2.63615 5.98229 2.65041 6.02794 2.67742C6.07359 2.70442 6.11034 2.74308 6.134 2.78898C6.15456 2.83303 6.16247 2.88148 6.15693 2.92939C6.15138 2.97729 6.13259 3.02295 6.10244 3.0617L2.3729 7.69801C2.34769 7.73353 2.31404 7.7629 2.27466 7.78375C2.23529 7.8046 2.1913 7.81633 2.14626 7.818C2.10787 7.81732 2.06994 7.80993 2.03437 7.79619ZM3.79586 3.1817L4.36964 0.727186H2.08888L1.36018 3.72715H3.05569L2.59954 6.53075L5.30203 3.1817H3.79586Z" fill="#CCF900"/>
</svg>
